<svg width="148" height="148" viewBox="0 0 148 148" fill="none" xmlns="http://www.w3.org/2000/svg">
<g clip-path="url(#clip0)">
<path d="M29.9423 104.387C29.5523 104.643 29.0768 104.733 28.6203 104.638C28.1639 104.543 27.7638 104.27 27.5083 103.88C27.2527 103.49 27.1625 103.015 27.2575 102.558C27.3526 102.102 27.6251 101.702 28.015 101.446C28.405 101.191 28.8806 101.101 29.337 101.196C29.7935 101.291 30.1935 101.563 30.4491 101.953C30.7047 102.343 30.7949 102.819 30.6998 103.275C30.6048 103.732 30.3323 104.132 29.9423 104.387Z" fill="#211E1F"/>
<path d="M24.5813 94.9903C24.047 95.1799 23.48 95.2606 22.914 95.2275C22.348 95.1945 21.7943 95.0484 21.2857 94.7978C20.777 94.5473 20.3237 94.1974 19.9525 93.7688C19.5813 93.3402 19.2997 92.8416 19.1244 92.3024C18.675 91.1998 18.6778 89.9645 19.1322 88.8639L20.8073 89.4898C20.4777 90.2209 20.4491 91.0525 20.7276 91.8046C20.9694 92.4138 21.4423 92.9026 22.0431 93.1646C22.6439 93.4265 23.3239 93.4403 23.9348 93.2029C24.2617 93.1103 24.5661 92.9514 24.8291 92.7362C25.092 92.521 25.3078 92.2539 25.4632 91.9517C25.6185 91.6495 25.71 91.3185 25.7319 90.9795C25.7539 90.6404 25.7059 90.3004 25.5909 89.9807C25.4074 89.401 25.0468 88.8934 24.5599 88.5294L23.4498 88.9128L24.0498 90.6441L22.5685 91.1595L21.3889 87.7699L24.7784 86.5903C25.9019 87.2357 26.7526 88.2673 27.1723 89.493C27.3877 90.0221 27.491 90.59 27.4756 91.161C27.4602 91.7319 27.3265 92.2935 27.083 92.8102C26.8395 93.3268 26.4914 93.7874 26.0608 94.1626C25.6302 94.5379 25.1264 94.8197 24.5813 94.9903Z" fill="#211E1F"/>
<path d="M21.364 85.1022C20.7965 85.1792 20.2193 85.1414 19.6667 84.9911C19.1141 84.8407 18.5973 84.5808 18.1471 84.2268C17.6969 83.8728 17.3224 83.4319 17.0459 82.9304C16.7694 82.4288 16.5965 81.8768 16.5375 81.3072C16.4416 80.7461 16.46 80.1714 16.5915 79.6175C16.7231 79.0637 16.9651 78.5421 17.3031 78.0841C17.6411 77.6261 18.0682 77.2411 18.5586 76.9521C19.0491 76.6631 19.5928 76.4762 20.1573 76.4025L20.1858 76.3969C21.322 76.2727 22.4617 76.5965 23.363 77.2995C24.2642 78.0024 24.8557 79.029 25.012 80.1612C25.1682 81.2934 24.8768 82.4419 24.1997 83.3627C23.5225 84.2834 22.513 84.9038 21.3857 85.092L21.364 85.1022ZM20.4373 78.2854C20.1042 78.3182 19.7811 78.4175 19.4871 78.5775C19.1931 78.7375 18.9342 78.9549 18.7258 79.2167C18.5174 79.4786 18.3637 79.7797 18.2738 80.1021C18.1838 80.4245 18.1595 80.7616 18.2023 81.0936C18.2429 81.4238 18.3499 81.7424 18.5169 82.0303C18.6839 82.3181 18.9074 82.5691 19.174 82.7682C19.4405 82.9673 19.7447 83.1105 20.068 83.189C20.3914 83.2674 20.7272 83.2797 21.0554 83.2249C21.3885 83.1913 21.7115 83.0914 22.0055 82.9312C22.2994 82.7709 22.5584 82.5536 22.7671 82.2919C22.9758 82.0301 23.1302 81.7293 23.221 81.4071C23.3119 81.0849 23.3374 80.7478 23.2961 80.4156C23.2539 80.0855 23.1456 79.7674 22.9777 79.4801C22.8098 79.1928 22.5858 78.9422 22.319 78.7434C22.0522 78.5446 21.7481 78.4016 21.4248 78.3229C21.1015 78.2442 20.7656 78.2314 20.4373 78.2854Z" fill="#211E1F"/>
<path d="M20.1075 73.9707C18.9828 73.8419 17.9513 73.2836 17.2284 72.4124C16.5055 71.5413 16.147 70.4245 16.2279 69.2954C16.3087 68.1662 16.8225 67.1119 17.6621 66.3525C18.5017 65.5931 19.6021 65.1874 20.7337 65.22C21.3039 65.2627 21.8597 65.4193 22.3682 65.6807C22.8767 65.942 23.3277 66.3027 23.6943 66.7414C24.061 67.1801 24.3359 67.6879 24.5028 68.2348C24.6696 68.7816 24.7251 69.3564 24.6659 69.9251C24.6431 70.4938 24.5058 71.052 24.2622 71.5663C24.0185 72.0806 23.6735 72.5405 23.2479 72.9182C22.8222 73.296 22.3247 73.584 21.785 73.7648C21.2454 73.9457 20.6748 74.0157 20.1075 73.9707ZM20.6191 67.1151C20.2837 67.0789 19.9445 67.1108 19.6217 67.2089C19.2989 67.307 18.9993 67.4693 18.7408 67.6859C18.4822 67.9026 18.27 68.1692 18.117 68.4698C17.9639 68.7704 17.8731 69.0988 17.85 69.4353C17.8241 69.7678 17.8658 70.1021 17.9728 70.418C18.0797 70.7338 18.2496 71.0247 18.4722 71.273C18.6948 71.5214 18.9655 71.7219 19.2678 71.8627C19.5701 72.0034 19.8979 72.0813 20.2312 72.0917C20.566 72.127 20.9046 72.0945 21.2266 71.9962C21.5486 71.8978 21.8475 71.7355 22.1054 71.519C22.3633 71.3026 22.575 71.0364 22.7277 70.7363C22.8805 70.4362 22.9712 70.1085 22.9945 69.7726C23.0206 69.4405 22.9792 69.1065 22.8727 68.7909C22.7661 68.4753 22.5968 68.1845 22.3748 67.9361C22.1527 67.6878 21.8827 67.487 21.581 67.3459C21.2792 67.2047 20.952 67.1262 20.6191 67.1151Z" fill="#211E1F"/>
<path d="M17.3605 61.3418L18.2417 58.2477C18.9358 55.7414 21.1611 54.5173 23.3951 55.1522C25.6291 55.787 26.8794 58.025 26.1626 60.5061L25.2835 63.6413L17.3605 61.3418ZM24.6064 60.0644C24.7195 59.7514 24.7641 59.4178 24.7372 59.0861C24.7103 58.7545 24.6126 58.4324 24.4506 58.1417C24.2886 57.8511 24.0661 57.5985 23.7982 57.4012C23.5303 57.2038 23.2231 57.0663 22.8975 56.9978C22.5832 56.8882 22.2493 56.846 21.9177 56.8739C21.586 56.9018 21.2639 56.9992 20.9723 57.1597C20.6807 57.3203 20.4262 57.5403 20.2252 57.8057C20.0242 58.071 19.8813 58.3756 19.8058 58.6998L19.4127 60.0509L24.1962 61.4188L24.6064 60.0644Z" fill="#211E1F"/>
<path d="M25.2419 45.7652L23.9539 47.902L22.5122 47.0466L26.0194 41.1744L27.461 42.0297L26.1707 44.1847L31.8473 47.5702L30.9151 49.1336L25.2419 45.7652Z" fill="#211E1F"/>
<path d="M27.8769 38.6476L31.9009 33.9007L33.1365 34.9445L30.2789 38.3251L31.5565 39.4022L34.0749 36.4377L35.3048 37.4826L32.8196 40.4347L34.1415 41.5564L37.0278 38.1406L38.2383 39.1775L34.1765 43.9732L27.8769 38.6476Z" fill="#211E1F"/>
<path d="M34.3544 31.4822L39.1145 27.4681L40.1611 28.7267L36.7844 31.575L37.8492 32.8359L40.8186 30.3283L41.8607 31.5641L38.897 34.0706L40.0152 35.3922L43.4434 32.5043L44.4855 33.7401L39.6796 37.7928L34.3544 31.4822Z" fill="#211E1F"/>
<path d="M44.4647 25.9517L42.3042 27.2342L41.4294 25.7938L47.3188 22.311L48.1936 23.7515L46.0262 25.0294L49.3764 30.6959L47.8104 31.5953L44.4647 25.9517Z" fill="#211E1F"/>
<path d="M50.2382 20.9095L51.9389 20.2741L53.0833 23.3328L56.2197 22.1613L55.0809 19.1015L56.7816 18.4661L59.6709 26.1961L57.9702 26.8316L56.8065 23.7352L53.668 24.8953L54.8271 27.9985L53.1264 28.6339L50.2382 20.9095Z" fill="#211E1F"/>
<path d="M65.7048 20.7591C65.6499 20.2984 65.7802 19.8347 66.0672 19.4701C66.3542 19.1055 66.7742 18.8698 67.2349 18.8149C67.6957 18.76 68.1594 18.8904 68.524 19.1773C68.8886 19.4643 69.1243 19.8843 69.1792 20.3451C69.2064 20.5732 69.1883 20.8045 69.1262 21.0256C69.064 21.2468 68.9588 21.4535 68.8167 21.6341C68.6747 21.8146 68.4984 21.9654 68.298 22.0778C68.0977 22.1902 67.8771 22.2621 67.649 22.2893C67.1883 22.3442 66.7246 22.2138 66.36 21.9269C66.1795 21.7848 66.0287 21.6085 65.9163 21.4082C65.8038 21.2078 65.732 20.9873 65.7048 20.7591Z" fill="#211E1F"/>
<path d="M76.5146 20.099C76.5811 19.5361 76.76 18.9924 77.0409 18.5001C77.3217 18.0078 77.6986 17.577 78.1493 17.2333C78.5999 16.8896 79.1151 16.64 79.6641 16.4994C80.2132 16.3588 80.7849 16.33 81.3453 16.4148C82.5314 16.5002 83.6359 17.0505 84.4185 17.9459L83.1149 19.1258C82.6081 18.5052 81.8768 18.1097 81.0801 18.0252C80.4272 17.97 79.7791 18.1756 79.2776 18.597C78.776 19.0185 78.4617 19.6215 78.4036 20.274C78.3413 20.6078 78.3482 20.9509 78.424 21.2819C78.4998 21.6129 78.6428 21.9247 78.8442 22.1982C79.0456 22.4716 79.301 22.7006 79.5947 22.8712C79.8883 23.0417 80.2139 23.1501 80.5511 23.1895C81.1521 23.2826 81.7672 23.1849 82.3097 22.9101L82.4546 21.744L80.6307 21.5088L80.8296 19.9528L84.3849 20.4058L83.9319 23.9612C82.8559 24.6811 81.5545 24.9845 80.2711 24.8147C79.708 24.7689 79.1602 24.6082 78.6616 24.3425C78.1631 24.0768 77.7242 23.7117 77.3722 23.2698C77.0202 22.8279 76.7625 22.3186 76.615 21.7732C76.4675 21.2279 76.4333 20.658 76.5146 20.099Z" fill="#211E1F"/>
<path d="M88.4004 17.8236L91.9895 18.993C92.4142 19.1028 92.8126 19.2968 93.161 19.5635C93.5095 19.8301 93.8009 20.1639 94.018 20.5451C94.1674 20.8576 94.2526 21.1969 94.2685 21.543C94.2844 21.889 94.2306 22.2347 94.1104 22.5596C93.9623 23.1022 93.6399 23.5811 93.1928 23.9225C92.7457 24.2639 92.1987 24.4488 91.6362 24.4488L92.6401 27.8787L90.6206 27.2196L89.7544 24.1597L88.4195 23.7279L87.6055 26.2577L85.8491 25.7011L88.4004 17.8236ZM90.6312 22.7672C91.474 23.0465 92.1036 22.7513 92.3183 22.0929C92.5584 21.3526 92.166 20.8013 91.3266 20.5095L89.6055 19.9519L88.8622 22.2071L90.6312 22.7672Z" fill="#211E1F"/>
<path d="M98.0943 21.3582L103.597 24.28L102.823 25.7117L98.9134 23.6332L98.1309 25.1139L101.565 26.9419L100.806 28.3645L97.368 26.5434L96.5591 28.0707L100.527 30.1733L99.7683 31.596L94.2189 28.6477L98.0943 21.3582Z" fill="#211E1F"/>
<path d="M108.834 27.9L110.146 28.9407L107.763 37.6503L106.276 36.4721L106.837 34.5845L104.101 32.4183L102.362 33.3991L100.906 32.2324L108.834 27.9ZM107.318 32.8962L108.118 30.1143L105.599 31.5323L107.318 32.8962Z" fill="#211E1F"/>
<path d="M114.277 35.1176L112.599 33.2657L113.834 32.129L118.462 37.1481L117.226 38.2792L115.511 36.4819L110.671 40.9381L109.442 39.5967L114.277 35.1176Z" fill="#211E1F"/>
<path d="M123.043 43.6817L123.892 45.2931L120.703 46.9844L125.462 48.2565L126.487 50.1947L121.82 48.8752L119.267 54.2049L118.25 52.2769L120.153 48.3486L118.828 47.9682L116.6 49.1512L115.745 47.5409L123.043 43.6817Z" fill="#211E1F"/>
<path d="M127.483 52.9451L128.108 54.6537L120.365 57.4803L119.734 55.8024L127.483 52.9451Z" fill="#211E1F"/>
<path d="M129.32 58.1198L129.991 61.2713C130.53 63.8087 129.162 65.9314 126.892 66.4118C124.617 66.899 122.476 65.4992 121.942 62.9846L121.272 59.8389L129.32 58.1198ZM123.522 62.6453C123.569 62.9718 123.684 63.2847 123.86 63.5633C124.037 63.8419 124.271 64.0797 124.546 64.2611C124.821 64.4425 125.132 64.5633 125.458 64.6155C125.783 64.6676 126.116 64.6499 126.435 64.5636C126.762 64.5111 127.075 64.3904 127.352 64.2093C127.63 64.0283 127.866 63.7909 128.047 63.5126C128.227 63.2343 128.346 62.9212 128.398 62.5938C128.449 62.2663 128.431 61.9316 128.345 61.6115L128.076 60.2362L123.212 61.2721L123.522 62.6453Z" fill="#211E1F"/>
<path d="M124.106 68.5276L125.433 69.5535C124.834 70.2484 124.509 71.1381 124.519 72.0556C124.546 72.797 124.856 73.2339 125.339 73.2164C125.797 73.1976 126.026 72.91 126.327 71.5175C126.692 69.8401 127.113 68.7504 128.734 68.6757C130.228 68.62 131.262 69.7862 131.321 71.4755C131.38 72.5867 131.047 73.6835 130.381 74.575L128.976 73.6651C129.445 73.0323 129.71 72.2713 129.734 71.4841C129.705 70.7906 129.376 70.4403 128.974 70.4478C128.432 70.4651 128.267 70.8294 127.955 72.2652C127.576 73.9573 127.012 74.9211 125.57 74.9725C123.935 75.0322 122.973 73.8161 122.903 72.0344C122.866 70.7584 123.294 69.5124 124.106 68.5276Z" fill="#211E1F"/>
<path d="M126.54 82.1602C126.998 82.2497 127.401 82.5173 127.661 82.9042C127.922 83.291 128.017 83.7654 127.928 84.223C127.838 84.6806 127.571 85.0839 127.184 85.3442C126.797 85.6044 126.323 85.7004 125.865 85.6109C125.639 85.5666 125.423 85.478 125.231 85.3504C125.038 85.2227 124.873 85.0584 124.744 84.8669C124.615 84.6753 124.525 84.4603 124.479 84.234C124.434 84.0077 124.433 83.7746 124.477 83.548C124.522 83.3214 124.61 83.1058 124.738 82.9134C124.865 82.7211 125.03 82.5557 125.221 82.4269C125.608 82.1666 126.082 82.0707 126.54 82.1602Z" fill="#211E1F"/>
<path d="M37.8222 107.495L40.6313 110.097C40.9358 110.344 41.1886 110.649 41.3752 110.993C41.5617 111.338 41.6783 111.716 41.7183 112.106C41.7326 112.363 41.6952 112.62 41.6082 112.862C41.5213 113.104 41.3866 113.326 41.2121 113.515C40.968 113.793 40.6494 113.994 40.294 114.095C39.9387 114.196 39.5618 114.193 39.2083 114.086C39.6598 114.999 39.7182 115.811 38.9646 116.622C37.9372 117.73 36.5264 117.455 35.1571 116.183L32.2639 113.514L37.8222 107.495ZM36.18 115.052C36.7675 115.601 37.3179 115.718 37.7336 115.269C38.1093 114.858 38.0407 114.326 37.3543 113.696L35.8123 112.268L34.5799 113.6L36.18 115.052ZM38.0896 112.308C38.676 112.851 39.2274 113.003 39.6431 112.555C40.0154 112.156 39.909 111.643 39.3614 111.116L38.05 109.898L36.8499 111.152L38.0896 112.308Z" fill="#211E1F"/>
<path d="M44.3233 113.243L49.5276 116.638L48.6441 117.997L44.9402 115.576L44.0292 116.975L47.2849 119.104L46.4014 120.463L43.1446 118.328L42.1969 119.781L45.9485 122.234L45.0651 123.593L39.7993 120.156L44.3233 113.243Z" fill="#211E1F"/>
<path d="M52.2706 119.811L49.9503 118.796L50.6291 117.27L56.8852 120.044L56.2257 121.578L53.9282 120.558L51.2599 126.569L49.5999 125.839L52.2706 119.811Z" fill="#211E1F"/>
<path d="M59.8425 122.647L57.417 122.002L57.8407 120.384L64.4532 122.135L64.0237 123.754L61.5982 123.109L59.883 129.477L58.1262 129.01L59.8425 122.647Z" fill="#211E1F"/>
<path d="M66.0159 122.368L72.2075 122.968L72.0551 124.58L67.6512 124.151L67.4918 125.818L71.3634 126.191L71.21 127.797L67.3327 127.425L67.1674 129.152L71.6193 129.584L71.4658 131.19L65.2081 130.585L66.0159 122.368Z" fill="#211E1F"/>
<path d="M74.0356 122.983L77.8025 122.701C78.2366 122.643 78.6778 122.672 79.1008 122.785C79.5238 122.899 79.9201 123.095 80.2668 123.362C80.5224 123.595 80.7288 123.876 80.8737 124.19C81.0186 124.503 81.0991 124.843 81.1105 125.188C81.1784 125.745 81.0612 126.309 80.7769 126.793C80.4927 127.277 80.0572 127.654 79.5375 127.867L81.7676 130.659L79.6479 130.82L77.687 128.312L76.285 128.415L76.4811 131.049L74.6706 131.185L74.0356 122.983ZM77.9841 126.713C78.866 126.647 79.3356 126.14 79.2824 125.445C79.225 124.669 78.6505 124.307 77.7686 124.373L75.9537 124.486L76.1213 126.823L77.9841 126.713Z" fill="#211E1F"/>
<path d="M85.866 121.756L87.6833 121.05L91.3068 125.632L91.0209 119.726L92.4681 119.158L96.2344 123.712L95.7897 117.874L97.5624 117.183L97.9328 125.969L96.4639 126.547L92.7607 122.194L92.9904 127.903L91.5204 128.476L85.866 121.756Z" fill="#211E1F"/>
<path d="M100.234 120.203C99.6363 119.244 99.4313 118.091 99.6619 116.985C99.8924 115.878 100.541 114.903 101.472 114.263C102.403 113.622 103.545 113.366 104.661 113.546C105.776 113.726 106.78 114.33 107.461 115.231C108.087 116.189 108.313 117.354 108.091 118.477C107.87 119.599 107.218 120.591 106.275 121.239C105.333 121.888 104.174 122.143 103.046 121.949C101.919 121.755 100.912 121.128 100.24 120.202L100.234 120.203ZM105.903 116.319C105.722 116.035 105.487 115.79 105.21 115.599C104.933 115.408 104.62 115.274 104.291 115.206C103.961 115.138 103.622 115.137 103.292 115.203C102.962 115.268 102.648 115.4 102.37 115.589C102.094 115.776 101.859 116.017 101.679 116.297C101.499 116.578 101.378 116.892 101.322 117.221C101.267 117.55 101.279 117.886 101.358 118.21C101.436 118.534 101.58 118.839 101.779 119.106C101.959 119.39 102.194 119.635 102.47 119.826C102.747 120.017 103.059 120.151 103.388 120.219C103.717 120.287 104.056 120.288 104.386 120.223C104.715 120.157 105.028 120.026 105.306 119.837C105.582 119.65 105.817 119.409 105.997 119.128C106.178 118.848 106.299 118.534 106.355 118.205C106.411 117.877 106.399 117.54 106.322 117.216C106.244 116.892 106.101 116.586 105.903 116.319Z" fill="#211E1F"/>
<path d="M106.389 110.636L109.047 107.958C109.334 107.628 109.684 107.359 110.077 107.166C110.469 106.973 110.897 106.86 111.333 106.834C112.031 106.855 112.692 107.152 113.172 107.659C113.593 108.032 113.88 108.533 113.988 109.084C114.096 109.636 114.02 110.208 113.77 110.712L117.285 111.351L115.753 112.878L112.676 112.296L111.685 113.29L113.561 115.15L112.284 116.437L106.389 110.636ZM111.808 110.86C112.432 110.234 112.457 109.547 111.957 109.053C111.405 108.503 110.738 108.604 110.115 109.236L108.848 110.515L110.532 112.182L111.808 110.86Z" fill="#211E1F"/>
<path d="M112.347 104.295L113.396 102.815L118.785 106.636L121.168 103.284L122.51 104.235L119.075 109.056L112.347 104.295Z" fill="#211E1F"/>
<path d="M116.579 98.1621L117.973 95.2639C119.097 92.928 121.497 92.0786 123.573 93.0881C125.666 94.0942 126.515 96.488 125.391 98.8296L123.998 101.728L116.579 98.1621ZM123.933 98.1316C124.101 97.8428 124.206 97.5212 124.239 97.1885C124.271 96.8558 124.232 96.52 124.124 96.2039C124.015 95.8877 123.84 95.5987 123.609 95.3565C123.379 95.1143 123.099 94.9246 122.789 94.8003C122.497 94.6409 122.175 94.5446 121.844 94.5176C121.512 94.4907 121.179 94.5336 120.865 94.6436C120.552 94.7537 120.265 94.9284 120.023 95.1565C119.781 95.3846 119.59 95.661 119.462 95.9677L118.85 97.2312L123.337 99.3861L123.933 98.1316Z" fill="#211E1F"/>
</g>
<defs>
<clipPath id="clip0">
<rect width="125.61" height="125.61" fill="white" transform="translate(0 24.1511) rotate(-11.0853)"/>
</clipPath>
</defs>
</svg>
