<svg width="216" height="182" viewBox="0 0 216 182" fill="none" xmlns="http://www.w3.org/2000/svg">
<path d="M108.075 2.07924C107.725 2.66417 107.464 3.29814 107.3 3.96029L108.307 4.4553C108.489 4.22498 108.659 3.99568 108.823 3.77422C109.022 3.50544 109.212 3.24822 109.406 3.01482C109.723 2.61814 110.109 2.28266 110.546 2.02479C110.899 1.79742 111.316 1.69304 111.734 1.72779C112.143 1.76829 112.519 1.96939 112.78 2.28715L113.845 1.93569C113.767 1.49484 113.554 1.08969 113.234 0.777366C112.92 0.472159 112.538 0.246473 112.119 0.119002C111.697 -0.0057834 111.252 -0.0328619 110.817 0.0398001C110.409 0.115514 110.016 0.257638 109.653 0.460559C108.998 0.856415 108.455 1.41359 108.075 2.07924Z" fill="#211E1F"/>
<path d="M98.1561 4.49986C98.3151 3.83854 98.5711 3.2046 98.9157 2.61882C99.3 1.95133 99.8485 1.39399 100.509 1.00013C100.867 0.795298 101.257 0.653021 101.663 0.579375C102.097 0.506713 102.543 0.533792 102.965 0.658577C103.383 0.787088 103.765 1.01264 104.08 1.31694C104.398 1.63046 104.611 2.03507 104.691 2.47527L103.636 2.84157C103.373 2.52352 102.995 2.32251 102.585 2.28221C102.167 2.2482 101.75 2.35252 101.397 2.57922C100.963 2.83855 100.578 3.17386 100.262 3.56924C100.067 3.80002 99.8791 4.05407 99.6827 4.31957C99.5168 4.54383 99.3448 4.77626 99.1574 5.00972L98.1561 4.49986Z" fill="#211E1F"/>
<path fill-rule="evenodd" clip-rule="evenodd" d="M114.181 6.46504C109.855 6.48198 105.533 6.73315 101.234 7.21746C94.5374 7.92178 87.945 9.40352 81.5889 11.633C81.5203 11.6566 81.4559 11.679 81.3955 11.7L81.3934 11.7008C81.1897 11.7716 81.032 11.8264 80.9181 11.8607C79.2263 12.3903 78.452 13.4397 78.4915 15.0683L78.7035 21.8302C78.7279 22.4155 78.904 22.9796 79.2085 23.4693C79.276 23.7669 79.3694 24.0499 79.4843 24.314L76.1777 24.5711C76.4936 23.8973 76.7418 23.193 76.9181 22.4688V22.2361C77.0585 21.4786 77.0234 20.6988 76.8152 19.9571C76.6071 19.2154 76.2317 18.5318 75.718 17.9592C75.2043 17.3866 74.5661 16.9403 73.8529 16.6551C73.1397 16.3698 72.3707 16.2531 71.6054 16.3141C70.84 16.3751 70.099 16.6121 69.4396 17.0068C68.7802 17.4014 68.2202 17.9432 67.803 18.59C67.3858 19.2368 67.1225 19.9713 67.0336 20.7366C66.9447 21.502 67.0326 22.2776 67.2904 23.0034C67.2888 23.033 67.2888 23.0628 67.2904 23.0925L67.3151 23.1469V23.1964C67.6617 24.0349 68.1089 24.8278 68.6468 25.5576C68.9752 25.9435 69.2204 26.3935 69.3669 26.8793C69.3023 27.382 69.1344 27.8658 68.8737 28.3C68.4418 29.1163 68.1105 29.9823 67.8872 30.879V31.0572C67.7532 31.783 67.7801 32.5296 67.9662 33.2439C68.1522 33.9581 68.4928 34.6224 68.9637 35.1895C69.4346 35.7566 70.0242 36.2126 70.6906 36.5251C71.357 36.8375 72.0839 36.9988 72.8194 36.9973H73.2091C73.8685 36.951 74.5122 36.7741 75.1031 36.4767C75.694 36.1794 76.2204 35.7676 76.6518 35.2651C77.0833 34.7625 77.4114 34.1792 77.6171 33.5487C77.8228 32.9183 77.902 32.2532 77.8503 31.5918C77.8153 31.154 77.7224 30.7229 77.5741 30.3097L77.5247 30.1612V30.1018C77.247 29.4327 76.9052 28.7927 76.5043 28.1908L81.2757 27.8199C80.9787 28.1135 80.7386 28.4631 80.5707 28.8516C80.2929 29.4949 80.2279 30.2107 80.3854 30.8938L80.7899 34.4035L80.8737 35.1014L81.4754 35.4578C81.7362 35.6135 86.2933 38.2536 94.6033 39.7482L94.4391 44.0962C94.1029 44.2579 93.8194 44.5211 93.6037 44.967C93.3181 45.0122 93.055 45.1495 92.854 45.3581C92.0501 46.1946 92.2572 48.0806 92.5088 49.7835C92.585 50.5868 92.585 51.3957 92.5088 52.1991V52.2486C92.5004 52.6586 92.4608 53.0673 92.3904 53.4713C92.3789 53.5579 92.366 53.6451 92.3531 53.7329C92.3106 54.0212 92.2671 54.3162 92.2671 54.6197C92.2069 55.4926 92.0498 56.3559 91.7985 57.1938C91.5366 58.0368 91.3711 58.907 91.3053 59.7876C91.2838 60.2869 91.332 60.7867 91.4483 61.2727C91.981 63.4804 92.8984 65.8465 96.9132 66H97.367C100.524 66 102.309 64.6734 102.378 62.233C102.398 61.738 102.156 60.8816 101.663 59.4609C100.843 57.1647 100.366 54.7593 100.247 52.3229C100.24 52.0383 100.255 51.7537 100.292 51.4714C100.356 50.8873 100.44 50.125 100.524 49.4023C100.701 47.8826 100.805 46.9371 100.805 46.6451C100.786 46.1296 100.66 45.6236 100.435 45.16C100.316 44.9764 100.159 44.8213 99.9741 44.7058C99.7891 44.5903 99.5809 44.5172 99.3645 44.4918C99.3294 44.4376 99.288 44.3877 99.2412 44.3433C98.7466 43.9194 98.116 43.6891 97.4656 43.6948C97.3947 43.693 97.3238 43.6924 97.2529 43.693L97.3854 40.1823C100.052 40.5366 103.036 40.7594 106.324 40.7594H106.607L106.521 43.0382C106.149 43.0856 105.804 43.2044 105.564 43.5017C105.064 44.0872 105.013 45.0979 104.978 45.7712L104.977 45.7837C104.958 46.0027 104.964 46.2176 104.971 46.4276C104.974 46.5309 104.977 46.6331 104.977 46.7342V47.4222C104.915 48.2758 104.749 49.1185 104.484 49.9319L104.461 50.0194L104.423 50.1684C104.337 50.4953 104.25 50.8299 104.178 51.1645C103.99 52.0693 103.94 52.8861 104.031 53.6108C103.983 53.7019 103.955 53.8031 103.951 53.9069L103.858 56.4116C103.857 56.4962 103.877 56.5798 103.917 56.6542C103.991 56.7928 104.351 57.2779 105.752 57.6145C106.17 57.7113 106.58 57.8401 106.977 57.9993C107.697 58.5896 108.412 58.9654 109.19 59.2048C110.181 59.7604 111.217 60.232 112.287 60.6143C114.235 61.2576 116.278 61.5623 118.329 61.5152C120.001 61.5321 121.67 61.3627 123.305 61.0103C123.929 60.9017 124.493 60.5713 124.894 60.0797C124.974 59.9533 125.011 59.8035 124.997 59.654L124.844 57.5304C124.828 57.4263 124.788 57.3275 124.727 57.2417C124.699 57.2025 124.668 57.1664 124.632 57.1341C124.433 56.6213 124.052 56.2 123.562 55.9513L120.859 54.8276C120.395 54.5355 119.932 54.2385 119.473 53.9366C119.432 53.6572 119.294 53.4012 119.084 53.213C118.874 53.0249 118.605 52.9166 118.324 52.907C118.253 52.8993 118.182 52.8993 118.112 52.907H118.013V52.8822C118.023 52.8033 118.023 52.7235 118.013 52.6446C117.985 52.3539 117.853 52.0833 117.642 51.8823C117.431 51.6813 117.155 51.5636 116.864 51.5506H116.607V51.5061C116.603 51.1876 116.476 50.8831 116.254 50.6555C116.032 50.428 115.731 50.2948 115.414 50.2834H115.379C115.452 50.1033 115.48 49.9084 115.461 49.7152C115.442 49.522 115.377 49.3362 115.272 49.1735C115.166 49.0107 115.023 48.8759 114.855 48.7805C114.686 48.685 114.497 48.6317 114.304 48.6251C114.232 48.6201 114.159 48.6201 114.087 48.6251L113.993 48.4568C114.08 48.3147 114.137 48.1564 114.161 47.9915C114.2 47.7045 114.134 47.4132 113.977 47.1706C113.819 46.928 113.58 46.7503 113.303 46.6698C113.215 46.3204 113.154 45.9645 113.12 45.6055V45.3481C113.107 44.9677 113.048 44.5903 112.943 44.2245C112.854 43.9086 112.689 43.6197 112.462 43.3838C112.235 43.1479 111.952 42.9724 111.641 42.8731C111.525 42.8422 111.406 42.8256 111.286 42.8236C110.775 42.8164 110.282 43.0081 109.91 43.3582C109.873 43.3886 109.838 43.4217 109.806 43.4572C109.807 43.4407 109.807 43.4242 109.806 43.4077L109.742 43.3334H109.678L109.311 43.2753L109.408 40.7095C114.457 40.5064 118.135 39.8554 120.558 38.7199C122.842 37.6606 124.07 36.1459 124.208 34.2253C124.262 33.5025 124.302 32.8442 124.317 32.27C124.338 31.7476 124.21 31.2299 123.948 30.7781C123.686 30.3264 123.3 29.9594 122.837 29.7207L121.582 21.9188C121.851 21.3317 122.1 20.5123 122.423 19.4442L122.546 19.0284C122.595 18.8671 122.651 18.6575 122.706 18.4137C123.494 18.2012 123.891 17.7306 124.09 17.3206C124.621 16.2097 124.505 15.2564 124.382 14.2495L124.381 14.2417C124.29 13.6121 124.242 12.977 124.238 12.3408L124.238 11.7617C124.238 9.7902 124.239 7.16287 121.569 6.8066C119.113 6.52786 116.642 6.40386 114.171 6.43534L114.181 6.46504ZM70.9754 32.9765C70.7825 32.6732 70.6671 32.3268 70.6394 31.968L70.669 31.9928C70.6423 31.7083 70.6722 31.4214 70.7568 31.1486C70.8415 30.8759 70.9793 30.6227 71.1622 30.4038C71.5353 29.963 72.0675 29.6888 72.6419 29.6415C73.2153 29.5926 73.7851 29.7702 74.23 30.1365C74.5025 30.3704 74.7133 30.6681 74.8437 31.0034C74.9741 31.3386 75.0201 31.7009 74.9776 32.0582C74.9351 32.4155 74.8055 32.7568 74.6002 33.0518C74.3949 33.3469 74.1203 33.5865 73.8006 33.7496C73.481 33.9126 73.1262 33.994 72.7677 33.9866C72.4093 33.9791 72.0582 33.883 71.7455 33.7068C71.4329 33.5306 71.1684 33.2798 70.9754 32.9765ZM72.0204 19.3106H71.8478C71.4177 19.3432 71.007 19.5031 70.6675 19.77C70.328 20.0369 70.0751 20.3989 69.9406 20.8102C69.8062 21.2214 69.7963 21.6635 69.9122 22.0804C70.0281 22.4973 70.2646 22.8703 70.5918 23.1523C70.919 23.4343 71.3222 23.6125 71.7503 23.6644C72.1785 23.7164 72.6124 23.6397 72.9971 23.4441C73.3818 23.2486 73.7001 22.9428 73.9117 22.5657C74.1232 22.1885 74.2186 21.7568 74.1857 21.3253C74.1423 20.7781 73.8957 20.2672 73.4946 19.894C73.0935 19.5208 72.5673 19.3126 72.0204 19.3106Z" fill="#211E1F"/>
<path d="M104.425 53.9266C104.425 53.8876 104.435 53.8493 104.456 53.8162C104.477 53.7831 104.506 53.7565 104.541 53.7395C104.576 53.7224 104.615 53.7156 104.654 53.7198C104.693 53.724 104.729 53.7391 104.76 53.7633C105.386 54.2583 106.984 54.6097 110.96 56.5551C114.51 58.1743 118.476 58.6415 122.304 57.8916C122.856 57.8183 123.391 57.6508 123.887 57.3966C123.92 57.3749 123.959 57.3633 123.998 57.3633C124.037 57.3633 124.076 57.3749 124.109 57.3966L124.272 57.4857C124.302 57.5011 124.329 57.5243 124.348 57.553C124.367 57.5816 124.378 57.6147 124.38 57.6491L124.533 59.7529C124.538 59.7995 124.528 59.8465 124.504 59.8865C124.163 60.2778 123.697 60.5385 123.187 60.6241C121.973 60.9607 116.351 61.6488 112.474 60.2132C108.597 58.7777 108.528 57.8223 105.885 57.1937C104.577 56.8818 104.351 56.466 104.351 56.466L104.425 53.9266Z" fill="white"/>
<path d="M110.047 49.3725C109.748 49.3782 109.451 49.3103 109.184 49.1745C109.096 49.1019 109.036 49.0011 109.014 48.8892C108.992 48.7773 109.009 48.6612 109.063 48.5605C109.116 48.4598 109.202 48.3807 109.307 48.3365C109.412 48.2924 109.529 48.2859 109.638 48.3182C109.918 48.4219 110.224 48.4323 110.511 48.3479C110.934 48.2576 111.353 48.1435 111.763 48.0063C111.938 47.96 112.105 47.8865 112.257 47.7885C112.359 47.738 112.476 47.7247 112.587 47.751C112.698 47.7772 112.797 47.8414 112.866 47.9326C112.936 48.0237 112.971 48.1362 112.967 48.2507C112.963 48.3653 112.919 48.4748 112.844 48.5607C112.601 48.7285 112.33 48.8525 112.045 48.927C111.598 49.0746 111.143 49.1985 110.683 49.2983C110.474 49.3443 110.261 49.3692 110.047 49.3725Z" fill="white"/>
<path d="M109.973 52.1049C109.872 52.097 109.775 52.0576 109.697 51.9923C109.618 51.927 109.562 51.8389 109.536 51.7401C109.509 51.6414 109.514 51.5368 109.549 51.4408C109.584 51.3448 109.648 51.2621 109.732 51.204C110.989 50.4887 112.35 49.9759 113.766 49.6843C113.878 49.687 113.985 49.7276 114.071 49.7995C114.156 49.8714 114.215 49.9704 114.238 50.0802C114.26 50.19 114.244 50.3041 114.194 50.4039C114.143 50.5038 114.06 50.5834 113.959 50.6298C112.643 50.9009 111.378 51.3787 110.21 52.0455C110.137 52.0849 110.056 52.1053 109.973 52.1049Z" fill="white"/>
<path d="M111.187 54.2138C111.084 54.2145 110.984 54.1834 110.901 54.1247C110.799 54.047 110.732 53.9329 110.713 53.8065C110.693 53.6801 110.724 53.5511 110.797 53.4465C111.283 52.7854 111.918 52.2493 112.65 51.8819C113.382 51.5145 114.191 51.3263 115.009 51.3328C115.14 51.3328 115.265 51.385 115.358 51.4778C115.45 51.5706 115.502 51.6965 115.502 51.8278C115.502 51.9591 115.45 52.085 115.358 52.1778C115.265 52.2707 115.14 52.3228 115.009 52.3228H114.955C114.299 52.3284 113.652 52.4863 113.067 52.7843C112.482 53.0823 111.973 53.5123 111.581 54.0405C111.533 54.0975 111.472 54.1426 111.404 54.1727C111.335 54.2027 111.261 54.2167 111.187 54.2138Z" fill="white"/>
<path d="M113.006 55.7434C112.92 55.744 112.835 55.7218 112.76 55.679C112.651 55.6122 112.573 55.5058 112.54 55.3822C112.508 55.2586 112.525 55.1272 112.587 55.0157C112.987 54.3439 113.538 53.7749 114.196 53.3539C114.853 52.9329 115.599 52.6714 116.375 52.5901C116.5 52.5815 116.624 52.6213 116.722 52.7014C116.819 52.7814 116.882 52.8957 116.898 53.0208C116.908 53.1475 116.869 53.2731 116.789 53.3717C116.709 53.4703 116.594 53.5343 116.469 53.5505C115.842 53.6193 115.24 53.8341 114.711 54.1779C114.182 54.5217 113.74 54.9849 113.421 55.5305C113.374 55.5975 113.312 55.6519 113.24 55.6891C113.168 55.7262 113.087 55.7449 113.006 55.7434Z" fill="white"/>
<path d="M114.906 57.0897C114.834 57.0901 114.763 57.0749 114.698 57.0451C114.584 56.9876 114.497 56.8878 114.455 56.7669C114.412 56.6459 114.418 56.5132 114.472 56.3967C114.79 55.7412 115.263 55.1733 115.849 54.7421C116.435 54.3109 117.117 54.0293 117.835 53.9216C117.962 53.9059 118.089 53.9398 118.192 54.0164C118.294 54.093 118.362 54.2063 118.383 54.3325C118.399 54.4594 118.365 54.5875 118.288 54.6899C118.212 54.7924 118.099 54.8612 117.973 54.8819C117.412 54.9698 116.879 55.1919 116.421 55.5296C115.962 55.8673 115.591 56.3107 115.34 56.8224C115.298 56.9024 115.236 56.9695 115.16 57.0166C115.083 57.0637 114.995 57.089 114.906 57.0897Z" fill="white"/>
<path fill-rule="evenodd" clip-rule="evenodd" d="M101.391 62.1934C101.307 64.1437 99.813 65.0793 96.9523 64.9704L96.9622 64.9852C93.6478 64.8417 92.9424 63.1091 92.4492 61.0251C92.4036 60.8362 92.3706 60.6443 92.3506 60.4509C93.0806 61.9211 94.4221 62.53 96.686 62.6191C98.9499 62.7082 100.439 62.327 101.258 61.4311C101.334 61.6786 101.379 61.9347 101.391 62.1934Z" fill="white"/>
<path d="M96.2916 49.7686C95.8975 49.7633 95.504 49.7369 95.1128 49.6894C94.5435 49.6723 93.995 49.4709 93.5492 49.1152C93.4852 49.0788 93.43 49.0285 93.3878 48.968C93.3457 48.9074 93.3175 48.8382 93.3055 48.7653C93.2934 48.6924 93.2978 48.6177 93.3183 48.5467C93.3387 48.4758 93.3747 48.4103 93.4237 48.3551C93.4726 48.2999 93.5333 48.2565 93.6012 48.2279C93.669 48.1993 93.7424 48.1863 93.816 48.1899C93.8895 48.1935 93.9613 48.2135 94.0261 48.2486C94.0909 48.2836 94.147 48.3328 94.1904 48.3925C94.4866 48.6068 94.8414 48.7244 95.2065 48.7291C95.8101 48.8081 96.4206 48.8181 97.0264 48.7588C97.7515 48.6994 98.4321 48.64 98.95 48.1697C98.9913 48.1068 99.0463 48.0542 99.1109 48.0159C99.1755 47.9775 99.2479 47.9545 99.3227 47.9485C99.3975 47.9425 99.4727 47.9537 99.5425 47.9812C99.6123 48.0088 99.675 48.052 99.7257 48.1075C99.7763 48.1631 99.8137 48.2295 99.835 48.3017C99.8562 48.3739 99.8608 48.4501 99.8483 48.5243C99.8358 48.5986 99.8066 48.669 99.7629 48.7302C99.7192 48.7914 99.6622 48.8418 99.5961 48.8776C98.8921 49.4284 98.0227 49.7233 97.13 49.7141C96.7848 49.7537 96.5283 49.7686 96.2916 49.7686Z" fill="white"/>
<path d="M93.8843 51.9269C93.7891 51.9249 93.6966 51.8953 93.6179 51.8417C93.5391 51.7882 93.4775 51.7129 93.4404 51.6249C93.3943 51.5053 93.3963 51.3723 93.446 51.2541C93.4957 51.1359 93.5892 51.0417 93.7067 50.9913C95.5732 50.4615 97.5402 50.3952 99.4379 50.7983C99.5415 50.8479 99.6246 50.9323 99.6729 51.0368C99.7212 51.1413 99.7316 51.2595 99.7024 51.3709C99.6731 51.4824 99.6061 51.5801 99.5128 51.6472C99.4195 51.7144 99.3058 51.7467 99.1913 51.7388C97.4946 51.3874 95.7395 51.44 94.0668 51.8922C94.0089 51.916 93.9468 51.9278 93.8843 51.9269Z" fill="white"/>
<path d="M93.8744 54.0702C93.7692 54.0611 93.6698 54.0183 93.5906 53.9482C93.5115 53.878 93.4568 53.7842 93.4347 53.6806C93.4127 53.577 93.4243 53.469 93.4679 53.3725C93.5116 53.276 93.5849 53.1961 93.6771 53.1446C95.5185 52.3625 97.5808 52.2816 99.4774 52.9169C99.5975 52.9597 99.6965 53.0475 99.7535 53.162C99.8105 53.2764 99.8212 53.4085 99.7832 53.5307C99.7389 53.6439 99.6545 53.7368 99.5462 53.7916C99.438 53.8464 99.3134 53.8592 99.1963 53.8277C97.5283 53.2663 95.7139 53.3332 94.0915 54.0158C94.0247 54.0516 93.9501 54.0703 93.8744 54.0702Z" fill="white"/>
<path d="M94.1954 56.3671C94.096 56.3608 94.0008 56.3244 93.9224 56.2628C93.844 56.2011 93.786 56.117 93.7561 56.0217C93.7262 55.9263 93.7258 55.8241 93.7549 55.7285C93.784 55.6329 93.8413 55.5483 93.9192 55.486C94.7275 54.9411 95.6645 54.6194 96.6359 54.5534C97.6074 54.4873 98.579 54.6792 99.4531 55.1098C99.5243 55.1287 99.5904 55.1634 99.6465 55.2113C99.7026 55.2592 99.7473 55.3192 99.7773 55.3867C99.8073 55.4542 99.8219 55.5276 99.8199 55.6015C99.818 55.6754 99.7995 55.7479 99.766 55.8137C99.7324 55.8796 99.6846 55.937 99.6261 55.9818C99.5675 56.0267 99.4997 56.0578 99.4276 56.0729C99.3555 56.088 99.2809 56.0867 99.2094 56.0691C99.1378 56.0515 99.0711 56.018 99.0142 55.9711C98.2964 55.6183 97.4987 55.4614 96.7013 55.5161C95.9039 55.5709 95.1349 55.8354 94.4716 56.283C94.39 56.338 94.2938 56.3673 94.1954 56.3671Z" fill="white"/>
<path d="M93.6181 59.0203C93.4959 59.02 93.3781 58.9742 93.2877 58.8916C93.1968 58.8028 93.1436 58.6823 93.139 58.555C93.1344 58.4278 93.1788 58.3037 93.263 58.2085C94.1381 57.3576 95.2873 56.8484 96.5035 56.773C98.0324 56.6047 99.3247 56.9611 100.143 57.763C100.205 57.8028 100.257 57.8558 100.296 57.9182C100.334 57.9806 100.359 58.0509 100.367 58.1239C100.375 58.1969 100.367 58.2708 100.343 58.3403C100.319 58.4098 100.28 58.4731 100.229 58.5257C100.178 58.5782 100.116 58.6186 100.047 58.644C99.9784 58.6694 99.9049 58.6791 99.832 58.6724C99.7591 58.6657 99.6886 58.6429 99.6256 58.6054C99.5625 58.568 99.5086 58.517 99.4677 58.456C98.649 57.6492 97.3222 57.6591 96.607 57.7383C95.6246 57.7938 94.6927 58.1931 93.9732 58.8669C93.9274 58.9152 93.8723 58.9536 93.8113 58.98C93.7503 59.0064 93.6846 59.0201 93.6181 59.0203Z" fill="white"/>
<path d="M81.9775 32.301L82.1996 34.2303C82.1996 34.2303 91.3439 39.6506 107.719 39.3338C120.444 39.0863 122.668 36.245 122.826 34.1115C122.885 33.2996 122.915 32.6759 122.93 32.2156C122.94 31.9124 122.849 31.6145 122.67 31.3702C122.566 31.2282 122.436 31.1091 122.288 31.0186C122.171 31.5638 121.956 32.0787 121.623 32.5225C121.471 32.7359 121.265 32.9051 121.027 33.0129C120.789 33.1207 120.526 33.1633 120.266 33.1363C119.886 33.059 119.545 32.8485 119.305 32.5423C118.795 33.0641 118.101 33.3631 117.373 33.3743C116.646 33.3854 115.943 33.1077 115.418 32.6017C114.993 33.2586 114.427 33.8117 113.761 34.2204C113.186 34.4937 112.539 34.5719 111.916 34.4433C111.293 34.3148 110.729 33.9863 110.308 33.5075C110.189 33.3649 110.077 33.2162 109.973 33.062C109.813 33.3333 109.617 33.5814 109.391 33.7996C109.08 34.1051 108.71 34.3425 108.303 34.4967C107.897 34.651 107.462 34.7187 107.028 34.6956C105.983 34.5966 105.115 33.7105 104.592 33.0373C104.295 33.5316 103.879 33.9436 103.383 34.2358C102.887 34.528 102.326 34.6911 101.751 34.7104H101.588C100.39 34.651 99.7435 33.6115 99.2453 32.6611C98.815 33.0878 98.2991 33.4175 97.7318 33.6284C97.1645 33.8392 96.559 33.9263 95.9556 33.8837C94.7373 33.7946 93.6423 32.8591 92.9272 31.8146C92.069 33.1016 91.1615 33.1709 90.5104 32.9531C89.9339 32.6571 89.4288 32.2381 89.0307 31.7255C88.8968 31.9797 88.6922 32.1893 88.4418 32.3291C88.1914 32.4688 87.9059 32.5325 87.6201 32.5126C87.3768 32.453 87.1498 32.3399 86.9553 32.1816C86.7608 32.0232 86.6038 31.8235 86.4956 31.5968C86.2992 31.88 86.0394 32.113 85.737 32.2772C85.4347 32.4414 85.0982 32.5322 84.7545 32.5423C84.4945 32.5276 84.2405 32.4578 84.0093 32.3375C83.778 32.2172 83.5748 32.0491 83.413 31.8443C83.2214 32.0164 82.996 32.1463 82.7513 32.2256C82.5067 32.3049 82.2482 32.3318 81.9925 32.3047C81.9875 32.3035 81.9825 32.3023 81.9775 32.301Z" fill="#EC3627"/>
<path d="M79.961 17.0716L79.8967 15.0189C79.8671 14.2516 80.0249 13.618 81.3369 13.2369C87.8144 10.8959 94.5493 9.34688 101.396 8.62335C112.794 7.37097 119.808 8.02439 121.401 8.23724C122.867 8.43305 122.859 9.86876 122.848 11.8238C122.847 11.994 122.846 12.1682 122.846 12.3458C122.846 13.1971 122.932 13.8617 123.005 14.4255C123.105 15.2046 123.181 15.7912 122.971 16.4123C123.011 15.4521 122.895 14.462 122.427 13.7979C122.261 13.5558 122.041 13.3565 121.784 13.2162C121.527 13.076 121.24 12.9988 120.947 12.9911H120.898C120.545 12.9892 120.197 13.0722 119.883 13.2333C119.569 13.3944 119.298 13.6288 119.093 13.9167C118.492 13.4779 117.77 13.2375 117.026 13.2287C116.908 13.2213 116.789 13.2213 116.671 13.2287C115.888 13.3202 115.165 13.693 114.634 14.2781C114.234 13.6671 113.691 13.1642 113.052 12.8137C112.413 12.4632 111.698 12.2759 110.97 12.2683H110.683L110.688 12.2485C110.001 12.2285 109.32 12.3838 108.708 12.6997C108.096 13.0157 107.575 13.4821 107.191 14.0553C106.771 13.5483 106.243 13.1426 105.645 12.8684C105.047 12.5942 104.396 12.4585 103.739 12.4713H103.69C101.919 12.4713 100.444 13.5356 99.4578 15.4414C98.6201 14.6678 97.5234 14.2384 96.385 14.2385H96.2864C95.642 14.2296 95.0052 14.3792 94.4317 14.6743C93.8582 14.9695 93.3655 15.4011 92.9966 15.9314C92.6832 15.5377 92.2906 15.2147 91.8445 14.9835C91.3983 14.7524 90.9085 14.6183 90.4072 14.5899H90.3184C88.9424 14.5899 88.1236 15.4661 87.6698 16.5205C87.2594 16.1958 86.7568 16.0103 86.2346 15.9908C86.1557 15.9859 86.0767 15.9859 85.9978 15.9908C85.7091 16.0232 85.4306 16.1167 85.1806 16.2652C84.9307 16.4137 84.7149 16.6137 84.5478 16.8521C84.4599 16.9705 84.3854 17.0983 84.3258 17.2333C84.0137 17.058 83.6625 16.9643 83.3048 16.961C83.2145 16.9561 83.1239 16.9561 83.0336 16.961C82.6085 17.0436 82.2319 17.2885 81.983 17.6442C81.5812 17.2592 81.0576 17.028 80.5034 16.9907H80.454C80.2859 16.9895 80.1192 17.017 79.961 17.0716Z" fill="#EC3627"/>
<path d="M114.738 27.9634C114.769 28.0191 114.809 28.0689 114.856 28.1108C115.008 28.7816 115.087 29.4692 115.089 30.1612L115.656 30.2206C115.841 29.3505 115.914 28.4625 115.873 27.5786C115.972 27.3932 116.11 27.23 116.278 27.1008C116.531 26.9077 116.838 26.801 117.155 26.7965C117.473 26.7921 117.783 26.8901 118.04 27.0762C118.298 27.2622 118.489 27.5264 118.586 27.8297C118.615 27.8997 118.658 27.9622 118.712 28.014C118.877 28.6053 118.982 29.2135 119.024 29.8295H119.602C119.717 29.021 119.734 28.2037 119.655 27.3954C119.691 27.2867 119.76 27.1911 119.853 27.1218C120.238 27.1614 120.356 27.206 120.455 27.3446C121.293 28.5227 121.604 30.6661 120.701 31.864C120.67 31.9155 120.626 31.9588 120.575 31.9906C120.524 32.0224 120.466 32.0418 120.406 32.0472C120.285 31.9625 120.185 31.8527 120.111 31.7254C120.037 31.5981 119.991 31.4563 119.976 31.3096C119.997 31.1699 119.964 31.0276 119.884 30.9112C119.804 30.7949 119.684 30.7131 119.546 30.6824C119.409 30.6517 119.265 30.6743 119.143 30.7457C119.022 30.817 118.932 30.9318 118.891 31.0671C118.803 31.3994 118.608 31.6936 118.337 31.9048C118.067 32.1161 117.735 32.2328 117.392 32.2373C117.049 32.2418 116.714 32.1338 116.438 31.9297C116.162 31.7256 115.96 31.4366 115.863 31.1067C115.827 30.9701 115.739 30.8529 115.619 30.78C115.498 30.707 115.354 30.6839 115.217 30.7156C115.075 30.7499 114.951 30.8369 114.871 30.9591C114.79 31.0813 114.759 31.2295 114.783 31.374C114.817 31.7056 113.836 32.9333 113.303 33.1907C112.944 33.3585 112.541 33.4062 112.153 33.3269C111.765 33.2476 111.413 33.0454 111.148 32.7501C110.807 32.3548 110.555 31.8906 110.408 31.3888C110.403 31.2422 110.34 31.1035 110.234 31.0026C110.128 30.9016 109.987 30.8466 109.841 30.8493C109.768 30.8505 109.696 30.8664 109.63 30.8958C109.563 30.9252 109.503 30.9677 109.453 31.0207C109.403 31.0737 109.364 31.1362 109.338 31.2045C109.312 31.2728 109.3 31.3456 109.303 31.4185C109.304 31.7105 109.245 31.9995 109.128 32.2671C109.012 32.5347 108.841 32.775 108.627 32.9729C108.431 33.1724 108.194 33.3276 107.933 33.4283C107.672 33.5291 107.392 33.5729 107.113 33.557C106.25 33.4976 105.313 32.1512 105.052 31.6561C105.001 31.5619 104.924 31.4845 104.83 31.4335C104.737 31.3825 104.63 31.3601 104.524 31.369C104.415 31.3726 104.31 31.409 104.222 31.4735C104.134 31.5379 104.067 31.6274 104.031 31.7304C104.03 31.7307 104.03 31.7318 104.029 31.7337L104.025 31.7433C103.954 31.9115 103.218 33.6581 101.648 33.5966C100.97 33.5623 100.509 32.6696 100.098 31.8737L100.085 31.8492C100.052 31.7873 100.02 31.7253 99.9885 31.6643C99.9393 31.5692 99.8912 31.4763 99.8432 31.3888C99.7952 31.3001 99.7237 31.2264 99.6367 31.1758C99.5497 31.1251 99.4505 31.0995 99.35 31.1017C99.2587 31.1025 99.169 31.126 99.0889 31.17C99.0089 31.2141 98.941 31.2773 98.8913 31.3542C98.5803 31.8179 98.1543 32.1924 97.6553 32.4406C97.1563 32.6889 96.6014 32.8024 96.0454 32.7699C94.9899 32.6907 93.9245 31.5126 93.4313 30.4434C93.3896 30.3463 93.3209 30.2634 93.2334 30.2046C93.1459 30.1458 93.0434 30.1135 92.9381 30.1117C92.8339 30.1154 92.7327 30.1479 92.6457 30.2055C92.5587 30.2631 92.4892 30.3437 92.4449 30.4384C91.927 31.572 91.3795 32.0621 90.8863 31.8888C90.3235 31.4788 89.8333 30.9768 89.4362 30.4038C89.3788 30.3291 89.3034 30.2704 89.2171 30.2332C89.1308 30.1959 89.0365 30.1814 88.943 30.1909C88.8472 30.2021 88.7559 30.2382 88.6781 30.2954C88.6003 30.3527 88.5386 30.4293 88.4991 30.5176C88.3616 30.858 88.1511 31.1639 87.8826 31.4136C87.705 31.3839 87.419 31.0522 87.2118 30.2355C87.1833 30.1231 87.1203 30.0225 87.0318 29.9479C86.9434 29.8734 86.8338 29.8285 86.7186 29.8197C86.6061 29.8066 86.4924 29.8291 86.3933 29.8842C86.2943 29.9392 86.2148 30.024 86.1662 30.1266C85.8505 30.7602 85.3178 31.4581 84.8246 31.4136C84.6586 31.3931 84.5014 31.3267 84.3708 31.2218C84.2402 31.117 84.1411 30.9777 84.0848 30.8196C84.0564 30.7285 84.0045 30.6466 83.9343 30.5823C83.8641 30.5179 83.7782 30.4734 83.6853 30.4533C83.5927 30.4317 83.4962 30.434 83.4048 30.4599C83.3134 30.4859 83.23 30.5347 83.1625 30.6018C82.914 30.8762 82.6072 31.091 82.2648 31.2304L82.259 31.2288C82.0864 31.1794 81.8325 31.1068 81.9837 30.2404C82.0823 29.6514 82.1612 29.0474 82.2352 28.4683C82.2747 28.1614 82.3141 27.8544 82.3585 27.5476C82.3902 27.1194 82.5023 26.7012 82.689 26.315C82.7502 26.1954 82.8416 26.094 82.9542 26.021C83.0667 25.948 83.1964 25.906 83.3302 25.8992C83.4753 26.0675 83.5901 26.2592 83.6701 26.4657C83.6319 26.6481 83.6023 26.8324 83.5817 27.0179C83.5031 27.7013 83.4833 28.3903 83.5225 29.0771L84.0897 29.0969C84.1999 28.4682 84.3649 27.8503 84.5829 27.2505C84.6559 27.0416 84.7441 26.8384 84.8468 26.6427C85.0565 26.3633 85.344 26.0972 85.4905 26.0972C85.7029 26.1065 85.9083 26.1761 86.0829 26.2979C86.2575 26.4197 86.3941 26.5887 86.4769 26.7852C86.4931 26.8268 86.5142 26.8661 86.5396 26.9022C86.5366 26.944 86.5338 26.9859 86.5312 27.0278C86.4868 27.6771 86.4868 28.3288 86.5312 28.9781H87.1033C87.2105 28.3762 87.3588 27.7825 87.5472 27.201C87.6523 26.8597 87.772 26.5232 87.906 26.1925C88.0798 26.0711 88.287 26.0066 88.4991 26.0081C88.7168 26.0215 88.9249 26.1026 89.0946 26.2401C89.1864 26.3144 89.2645 26.4033 89.3262 26.5026C89.2106 27.3551 89.1599 28.2158 89.1748 29.0771L89.7519 29.092C89.8822 28.5247 90.0469 27.966 90.2451 27.4189C90.2896 27.2905 90.3361 27.1629 90.3845 27.036C90.7302 26.686 91.1273 26.3911 91.562 26.1615C91.733 26.0672 91.9231 26.0133 92.118 26.0038C92.3129 25.9944 92.5073 26.0297 92.6865 26.1071C92.9036 26.2457 93.1058 26.7803 93.0713 27.5921C93.0638 27.7247 93.1039 27.8556 93.1845 27.961C93.2651 28.0664 93.3807 28.1393 93.5102 28.1663C93.6352 28.1971 93.767 28.1827 93.8824 28.1257C93.9979 28.0686 94.0896 27.9726 94.1415 27.8545C94.5115 27.0278 95.6311 26.706 96.5238 26.706C97.7026 26.7456 98.5411 27.0476 98.8025 28.4039C98.8266 28.5306 98.8939 28.6449 98.993 28.7272C99.092 28.8094 99.2165 28.8544 99.345 28.8544C99.4742 28.8542 99.5993 28.8085 99.6984 28.7252C99.7976 28.642 99.8645 28.5266 99.8876 28.399C99.9431 28.0419 100.073 27.7007 100.27 27.3979C100.466 27.095 100.724 26.8373 101.027 26.6417C101.347 26.4932 102.881 26.7605 103.399 26.9882C103.573 27.0622 103.727 27.1767 103.848 27.3221C103.969 27.4676 104.053 27.6399 104.095 27.8248C104.124 27.9267 104.182 28.0181 104.262 28.0882C104.341 28.1584 104.439 28.2043 104.544 28.2208C104.648 28.2356 104.755 28.2207 104.852 28.1779C104.949 28.135 105.031 28.0658 105.091 27.9782C105.159 27.8758 105.221 27.7734 105.282 27.6732L105.283 27.6721C105.301 27.6419 105.319 27.6119 105.338 27.5822C105.5 27.2587 105.73 26.9749 106.013 26.7506C106.416 26.4532 106.91 26.3077 107.409 26.3397C107.889 26.3906 108.34 26.5953 108.696 26.9233C109.051 27.2514 109.292 27.6854 109.382 28.1614C109.401 28.2831 109.459 28.395 109.549 28.4796C109.638 28.5642 109.752 28.6165 109.875 28.6285C109.997 28.6404 110.119 28.6112 110.223 28.5454C110.327 28.4796 110.406 28.3811 110.447 28.2653C110.607 27.8403 110.885 27.4701 111.249 27.1989C111.612 26.9276 112.045 26.7665 112.497 26.7347C112.948 26.7029 113.399 26.8018 113.797 27.0196C114.194 27.2373 114.521 27.5649 114.738 27.9634Z" fill="white"/>
<path d="M112.439 13.7979C111.982 13.5729 111.476 13.454 110.96 13.4546C108.731 13.3358 107.892 14.9396 107.577 16.0336C107.564 16.0883 107.534 16.1375 107.492 16.1736C107.449 16.2097 107.395 16.2307 107.339 16.2335C107.284 16.2364 107.228 16.2208 107.182 16.1891C107.15 16.1669 107.123 16.1376 107.104 16.1037C107.082 16.0805 107.066 16.0534 107.054 16.0237C106.859 15.5451 106.551 14.9799 106.069 14.5193C105.986 14.4471 105.9 14.3787 105.81 14.3143C105.211 13.8841 104.491 13.6575 103.754 13.6675C101.688 13.6675 100.612 15.603 100.119 16.9048C100.081 16.9805 100.025 17.0451 99.9545 17.0924C99.8845 17.1398 99.8035 17.1683 99.7194 17.1752C99.6352 17.1822 99.5507 17.1674 99.4739 17.1321C99.4372 17.1153 99.4029 17.0941 99.3716 17.0691C99.3242 17.0336 99.2833 16.9897 99.2512 16.9395C99.1735 16.8186 99.0883 16.7032 98.9963 16.5939C98.7301 16.2864 98.4091 16.0292 98.0485 15.8363C97.5478 15.5686 96.9873 15.4338 96.4201 15.4445C95.7929 15.4316 95.1774 15.6154 94.6593 15.9704C94.3059 16.2125 94.0098 16.526 93.7886 16.8883C93.8319 17.9747 93.895 19.0621 94.0379 20.157L93.4805 20.3055C93.0682 19.2359 92.7379 18.1584 92.427 17.0591C92.3513 16.948 92.2689 16.8379 92.1793 16.7317C91.7577 16.2441 91.1827 15.846 90.4176 15.8158C89.4719 15.7683 88.9446 16.4328 88.6507 17.169C88.6902 18.368 88.7507 19.5674 88.9084 20.7808L88.351 20.9293C87.9698 19.9402 87.6587 18.9412 87.3681 17.9293C87.0068 17.5458 86.5714 17.2117 86.1513 17.2117H86.0526C85.9809 17.2209 85.914 17.2362 85.8516 17.257C85.5887 17.3637 85.4118 17.5688 85.2953 17.821C85.3904 19.1473 85.4935 20.4897 85.6827 21.7955L85.1254 21.944C84.7097 20.8176 84.357 19.6876 84.0173 18.5482C83.7709 18.3381 83.4996 18.1919 83.2216 18.1919H83.1203C83.0573 18.213 82.9966 18.2518 82.9385 18.3039C82.8428 18.9772 82.7615 19.6732 82.7037 20.3551C82.6381 21.051 82.6217 21.7507 82.6543 22.449L82.0921 22.5628C81.9022 21.8477 81.7638 21.1198 81.6778 20.3848C81.615 19.8941 81.5633 19.4102 81.5212 18.921C81.2461 18.573 80.8929 18.2518 80.4968 18.1879C80.4828 18.1873 80.4687 18.1869 80.4546 18.1869C79.4681 18.1869 79.843 21.35 80.2622 23.2311C80.5187 24.3817 81.2438 25.1822 81.9061 25.2543C81.9221 25.2552 81.9381 25.2557 81.954 25.2557C82.3387 25.2557 82.6889 24.9983 82.9059 24.4092C82.918 24.4221 82.9303 24.4347 82.9429 24.4471C82.947 24.4362 82.9511 24.4253 82.9552 24.4141C83.3918 24.8383 83.8859 24.8833 84.342 24.7644C85.1468 24.5384 85.8208 23.8053 85.8208 23.8053C85.8274 23.8123 85.834 23.8193 85.8406 23.8262C85.8664 23.8002 85.88 23.7855 85.88 23.7855C85.88 23.7855 86.8023 24.7755 87.7148 24.4785C87.7352 24.4716 87.7553 24.4643 87.7751 24.4567C88.7361 24.053 89.0021 22.8747 89.0021 22.8747C89.0021 22.8747 89.0106 22.899 89.0281 22.9412C89.0443 22.8865 89.0514 22.8549 89.0514 22.8549C89.0514 22.8549 89.5446 24.2458 90.6642 24.1914C90.7607 24.1863 90.8668 24.1828 90.9796 24.1791C91.1659 24.173 91.3703 24.1663 91.5792 24.1508C92.3357 24.0811 93.1373 23.8963 93.3424 23.2212C93.3785 23.0785 93.4 22.9326 93.4065 22.7856C93.4211 22.6648 93.4794 22.5537 93.5704 22.4733C93.6613 22.393 93.7786 22.3491 93.8998 22.3499C93.9402 22.3497 93.9804 22.3549 94.0193 22.3652C94.0341 22.3675 94.0489 22.3706 94.0635 22.3744C94.1513 22.3969 94.2311 22.4433 94.2943 22.5084C94.5175 22.8024 94.802 23.044 95.1279 23.2162C95.5119 23.35 95.9136 23.4181 96.3167 23.4194C96.5108 23.4117 96.7045 23.3968 96.8975 23.3747C96.9523 23.366 97.0069 23.3561 97.0613 23.3449C97.6447 23.3313 98.2138 23.1603 98.7087 22.8499C98.8358 22.7379 98.9535 22.6167 99.061 22.4876C99.3973 22.077 99.6313 21.5885 99.7395 21.0629C99.7508 21.011 99.7794 20.9645 99.8207 20.9311C99.8308 20.9229 99.8416 20.9157 99.8528 20.9094C99.8862 20.8872 99.9249 20.8741 99.9652 20.8714C100.015 20.868 100.065 20.881 100.107 20.9084C100.149 20.9358 100.181 20.9761 100.198 21.0233C100.397 21.533 100.705 21.9926 101.101 22.3698C101.11 22.3788 101.12 22.3878 101.13 22.3967C101.387 22.6248 101.673 22.8132 101.977 22.9588C103.321 23.5713 104.986 23.2425 106.403 22.8648C106.689 22.7718 106.947 22.6078 107.153 22.388C107.359 22.1682 107.507 21.8997 107.582 21.6074C107.593 21.5525 107.623 21.5029 107.665 21.4663C107.708 21.4297 107.761 21.408 107.817 21.4046C107.873 21.4013 107.928 21.4164 107.975 21.4476C108.022 21.4789 108.057 21.5246 108.075 21.5777C108.075 21.5789 108.076 21.58 108.076 21.5812C108.215 21.9364 108.457 22.2414 108.771 22.4563C109.086 22.6719 109.459 22.7867 109.841 22.7856C110.093 22.7777 110.343 22.7838 110.591 22.7899C110.674 22.7919 110.758 22.794 110.841 22.7955H111.034C111.045 22.7963 111.056 22.797 111.066 22.7977C111.357 22.7979 111.643 22.785 111.924 22.7353C112.308 22.6529 112.676 22.4979 113.007 22.2757C113.466 21.9183 113.812 21.4352 114.003 20.8847C114.021 20.8339 114.055 20.7902 114.099 20.7599C114.132 20.7376 114.169 20.7235 114.208 20.7184C114.237 20.7055 114.268 20.6979 114.3 20.6963C114.355 20.6936 114.408 20.7079 114.454 20.7372C114.5 20.7666 114.535 20.8095 114.556 20.86C114.906 21.5629 115.493 22.345 115.937 22.4886C116.279 22.5719 116.626 22.6184 116.975 22.6282C116.985 22.6279 116.996 22.6276 117.007 22.6271C117.035 22.6284 117.062 22.6294 117.089 22.6301C117.4 22.6318 117.711 22.6043 118.017 22.5478C118.23 22.5038 118.44 22.4427 118.645 22.3648C118.935 22.1547 119.158 21.8639 119.286 21.5282C119.302 21.4905 119.329 21.4586 119.363 21.4365C119.397 21.4144 119.437 21.4032 119.478 21.4045C119.491 21.4042 119.503 21.405 119.516 21.4069C119.52 21.406 119.525 21.4052 119.53 21.4046C119.566 21.4002 119.603 21.4051 119.638 21.4189C119.672 21.4328 119.702 21.455 119.725 21.4837C119.864 21.6605 120.029 21.8149 120.215 21.9418C120.555 21.87 121.07 20.1171 121.486 18.6918C121.891 17.2997 122.216 14.4536 121.086 14.1657C121.057 14.1614 121.028 14.1587 120.997 14.1575C120.59 14.1423 120.298 14.3143 120.088 14.5597C120.312 15.2176 120.405 15.9152 120.361 16.6128C120.298 17.4297 120.149 18.2378 119.917 19.0235L119.355 18.9294C119.432 18.1724 119.432 17.4094 119.355 16.6524C119.295 16.1685 119.146 15.7018 118.918 15.2749C118.596 14.9428 118.142 14.594 117.573 14.4494C117.344 14.397 117.098 14.3777 116.834 14.405C115.794 14.5139 115.118 15.4643 114.743 16.197C114.721 16.2471 114.683 16.2889 114.636 16.3164C114.588 16.3439 114.533 16.3557 114.479 16.3503C114.43 16.3454 114.384 16.3268 114.345 16.2968C114.327 16.2883 114.309 16.2776 114.293 16.2648C114.247 16.229 114.215 16.179 114.201 16.1227C114.046 15.3619 113.634 14.6782 113.034 14.1874C112.849 14.0358 112.65 13.9055 112.439 13.7979Z" fill="white"/>
<path d="M106.077 18.6005C106.121 17.4422 105.475 16.4773 104.633 16.4453C103.792 16.4133 103.075 17.3264 103.031 18.4847C102.988 19.643 103.634 20.608 104.475 20.6399C105.316 20.6719 106.034 19.7589 106.077 18.6005Z" fill="#211E1F"/>
<path d="M112.875 18.4307C112.919 17.2724 112.272 16.3075 111.431 16.2755C110.59 16.2435 109.873 17.1566 109.829 18.3149C109.785 19.4732 110.432 20.4382 111.273 20.4701C112.114 20.5021 112.831 19.5891 112.875 18.4307Z" fill="#211E1F"/>
<path d="M21.1082 148.49L22.0682 147.783L23.251 149.367C23.142 149.697 22.9778 150.007 22.7653 150.284C22.5469 150.569 22.2892 150.822 21.9996 151.036C21.6258 151.325 21.1864 151.519 20.7196 151.602C20.2836 151.67 19.837 151.619 19.4282 151.454C19.0147 151.275 18.6558 150.992 18.3871 150.632C18.1185 150.273 17.9494 149.851 17.8967 149.407C17.8538 148.97 17.9371 148.531 18.1367 148.14C18.3487 147.716 18.6627 147.351 19.051 147.076C19.3782 146.827 19.7535 146.646 20.1539 146.545C20.5161 146.457 20.8945 146.457 21.2567 146.545L21.0282 147.676C20.8131 147.625 20.5894 147.623 20.3731 147.668C20.1568 147.713 19.9532 147.804 19.7767 147.936C19.6256 148.037 19.4969 148.167 19.3986 148.319C19.3003 148.47 19.2345 148.641 19.2053 148.819C19.1792 148.998 19.1917 149.181 19.2419 149.356C19.2921 149.53 19.3789 149.692 19.4967 149.831C19.6422 150.033 19.8394 150.193 20.0682 150.295C20.2789 150.391 20.5125 150.426 20.7424 150.397C20.9864 150.365 21.2173 150.27 21.411 150.12C21.6185 149.971 21.7886 149.778 21.9082 149.554L21.1082 148.49Z" fill="#211E1F"/>
<path d="M25.7939 148.247C25.3508 148.239 24.9182 148.112 24.5424 147.88C24.1644 147.637 23.8602 147.296 23.6624 146.895C23.4582 146.501 23.3687 146.059 23.404 145.617C23.4393 145.176 23.5981 144.753 23.8624 144.395C24.1436 144.023 24.5151 143.728 24.9424 143.535C25.3551 143.315 25.8163 143.198 26.2853 143.196C26.7284 143.204 27.1609 143.331 27.5367 143.564C27.9148 143.807 28.219 144.147 28.4167 144.548C28.623 144.945 28.7121 145.392 28.6739 145.838C28.6385 146.274 28.4801 146.691 28.2167 147.043C27.9314 147.417 27.5619 147.721 27.1374 147.93C26.7129 148.14 26.2451 148.248 25.771 148.247H25.7939ZM27.171 146.494C27.2975 146.306 27.3687 146.086 27.3767 145.86C27.3843 145.614 27.3272 145.371 27.211 145.153C27.1049 144.927 26.9415 144.732 26.7367 144.588C26.5521 144.457 26.3347 144.378 26.1082 144.361C25.8766 144.35 25.6461 144.399 25.4396 144.503C25.2324 144.601 25.0564 144.753 24.931 144.944C24.8046 145.132 24.7333 145.352 24.7253 145.577C24.7177 145.823 24.7748 146.067 24.891 146.285C24.9953 146.512 25.159 146.707 25.3653 146.85C25.5495 146.982 25.7672 147.06 25.9939 147.076C26.2254 147.088 26.4559 147.039 26.6624 146.935C26.8687 146.836 27.0443 146.683 27.171 146.494Z" fill="#211E1F"/>
<path d="M31.852 145.662C31.4267 145.578 31.0321 145.383 30.7091 145.096C30.3744 144.792 30.1345 144.4 30.0177 143.965C29.8951 143.534 29.8951 143.078 30.0177 142.647C30.1298 142.216 30.3614 141.824 30.6863 141.516C31.032 141.194 31.4518 140.961 31.9091 140.837C32.3624 140.697 32.8442 140.674 33.3091 140.769C33.7349 140.852 34.13 141.047 34.452 141.335C34.7776 141.643 35.0147 142.031 35.1392 142.459C35.2637 142.887 35.2711 143.341 35.1605 143.773C35.0498 144.205 34.8181 144.597 34.492 144.904C34.1485 145.229 33.7279 145.462 33.2691 145.583C32.811 145.727 32.3236 145.754 31.852 145.662ZM33.5263 144.18C33.6788 144.022 33.7871 143.827 33.8405 143.614C33.8915 143.372 33.8797 143.121 33.8063 142.885C33.7391 142.647 33.6135 142.429 33.4405 142.251C33.2848 142.091 33.0868 141.977 32.8691 141.923C32.6487 141.861 32.4152 141.861 32.1948 141.923C31.9774 141.987 31.7804 142.106 31.6234 142.268C31.4711 142.427 31.3628 142.622 31.3091 142.834C31.2581 143.076 31.2699 143.327 31.3434 143.564C31.4114 143.801 31.5369 144.019 31.7091 144.197C31.866 144.357 32.0633 144.472 32.2805 144.531C32.5033 144.59 32.7378 144.59 32.9605 144.531C33.1771 144.466 33.3723 144.344 33.5263 144.18Z" fill="#211E1F"/>
<path d="M36.7139 139.791L38.9653 139.536C39.4434 139.471 39.9302 139.515 40.3881 139.666C40.7949 139.801 41.1539 140.048 41.4224 140.379C41.6943 140.729 41.8589 141.149 41.8967 141.589C41.9588 142.026 41.8954 142.471 41.7139 142.873C41.5284 143.257 41.2347 143.579 40.8681 143.801C40.4569 144.05 39.9937 144.203 39.5139 144.248L37.2624 144.508L36.7139 139.791ZM39.3367 143.185C39.6983 143.16 40.0363 142.998 40.2796 142.732C40.3913 142.594 40.4719 142.433 40.5163 142.262C40.5606 142.09 40.5676 141.911 40.5367 141.736C40.5267 141.56 40.4787 141.389 40.3959 141.232C40.3131 141.076 40.1974 140.94 40.0567 140.831C39.7598 140.624 39.3924 140.541 39.0339 140.6L38.1824 140.696L38.4853 143.281L39.3367 143.185Z" fill="#211E1F"/>
<path d="M48 140.464L46.5371 140.294L46.6571 139.237L50.9257 139.723L50.8 140.781L49.3428 140.617L48.92 144.277L47.5714 144.101L48 140.464Z" fill="#211E1F"/>
<path d="M55.6573 144.633L55.4287 145.64L51.6973 144.706L52.8401 140.108L56.4858 141.018L56.2287 142.019L53.8858 141.454L53.7144 142.212L55.783 142.727L55.5316 143.699L53.4687 143.185L53.2516 144.028L55.6573 144.633Z" fill="#211E1F"/>
<path d="M60.8914 146.505L60.5256 147.478L56.9199 146.132L58.6342 141.691L62.1542 143.004L61.7828 143.977L59.4971 143.128L59.2114 143.88L61.2056 144.621L60.8514 145.56L58.8571 144.819L58.5485 145.634L60.8914 146.505Z" fill="#211E1F"/>
<path d="M64.5711 145.261L63.2454 144.621L63.714 143.665L67.5825 145.521L67.1082 146.477L65.7939 145.843L64.1654 149.158L62.9482 148.592L64.5711 145.261Z" fill="#211E1F"/>
<path d="M73.0404 148.666L70.589 152.744L69.4461 152.06L70.4004 150.465L68.8118 149.531L67.8518 151.121L66.709 150.436L69.1433 146.364L70.2861 147.048L69.3661 148.581L70.9547 149.514L71.8804 147.981L73.0404 148.666Z" fill="#211E1F"/>
<path d="M73.7146 153.321C73.732 153.419 73.7293 153.52 73.7067 153.617C73.6841 153.714 73.6421 153.806 73.5832 153.887C73.5219 153.972 73.451 154.05 73.3718 154.119C73.2422 154.226 73.1026 154.321 72.9546 154.402L72.0346 154.967L71.3604 154.515L72.2518 153.779C72.1805 153.664 72.1465 153.53 72.1546 153.395C72.1703 153.223 72.24 153.061 72.3538 152.931C72.4677 152.801 72.6199 152.71 72.7889 152.671C72.99 152.641 73.1949 152.689 73.3603 152.806C73.4508 152.865 73.5287 152.94 73.5895 153.029C73.6504 153.117 73.6929 153.216 73.7146 153.321Z" fill="#211E1F"/>
<path d="M80.8687 157.139L81.8059 157.875L80.5716 159.419C80.2201 159.398 79.8744 159.32 79.5487 159.187C79.2128 159.054 78.8974 158.875 78.6116 158.655C78.2382 158.37 77.9401 157.999 77.743 157.575C77.5623 157.176 77.497 156.736 77.5545 156.302C77.6214 155.86 77.8044 155.443 78.0852 155.093C78.366 154.742 78.7346 154.471 79.1545 154.306C79.5682 154.151 80.0175 154.113 80.4516 154.198C80.9196 154.291 81.3573 154.497 81.7259 154.798C82.0547 155.046 82.3289 155.357 82.5316 155.714C82.716 156.035 82.818 156.397 82.8287 156.766L81.6859 156.84C81.6812 156.621 81.6276 156.406 81.5288 156.21C81.4299 156.015 81.2884 155.843 81.1145 155.708C80.9786 155.586 80.8179 155.494 80.6431 155.438C80.4683 155.382 80.2834 155.364 80.1009 155.385C79.9184 155.406 79.7426 155.465 79.5853 155.559C79.4279 155.653 79.2927 155.779 79.1887 155.929C79.0303 156.118 78.924 156.344 78.8802 156.585C78.8416 156.812 78.8673 157.045 78.9545 157.258C79.0512 157.482 79.2048 157.677 79.4002 157.824C79.5966 157.983 79.8273 158.095 80.0745 158.152L80.8687 157.139Z" fill="#211E1F"/>
<path d="M84.1882 161.167L83.5824 160.737L82.8396 161.761L81.7139 160.98L84.5139 157.122L86.2967 158.39C86.6163 158.606 86.8852 158.887 87.0853 159.215C87.2586 159.495 87.342 159.819 87.3247 160.147C87.3073 160.474 87.19 160.788 86.9882 161.048C86.8049 161.3 86.5533 161.497 86.2625 161.614C85.9702 161.728 85.651 161.758 85.3425 161.699L85.3082 163.509L84.1253 162.672L84.1882 161.167ZM86.0339 159.713C85.9636 159.501 85.8199 159.321 85.6282 159.204L85.0167 158.768L84.1939 159.9L84.8053 160.335C84.9789 160.481 85.2004 160.56 85.4282 160.556C85.5243 160.545 85.6168 160.513 85.6989 160.462C85.7809 160.411 85.8505 160.343 85.9025 160.262C85.9628 160.185 86.0058 160.096 86.0285 160.002C86.0511 159.907 86.053 159.809 86.0339 159.713Z" fill="#211E1F"/>
<path d="M90.908 165.46L90.4109 166.371L87.0166 164.572L89.3023 160.386L92.6166 162.145L92.1252 163.062L89.9938 161.93L89.6109 162.637L91.4909 163.633L91.0109 164.515L89.1309 163.52L88.7195 164.289L90.908 165.46Z" fill="#211E1F"/>
<path d="M95.783 167.344L93.8516 166.727L93.2059 167.491L91.8916 167.072L95.3716 163.198L96.6459 163.599L97.2173 168.764L95.8745 168.334L95.783 167.344ZM95.7088 166.28L95.5945 164.646L94.5373 165.907L95.7088 166.28Z" fill="#211E1F"/>
<path d="M100.571 165.596L99.1143 165.387L99.2685 164.335L103.52 164.94L103.366 165.998L101.914 165.788L101.383 169.431L100.04 169.239L100.571 165.596Z" fill="#211E1F"/>
<path d="M109.532 168.011L109.052 168.577L109.103 169.765L107.76 169.821L107.549 165.081L108.892 165.019L108.977 166.993L110.743 164.94L112.235 164.872L110.372 167.061L112.555 169.612L110.977 169.68L109.532 168.011Z" fill="#211E1F"/>
<path d="M113.405 164.651L114.742 164.442L115.485 169.137L114.142 169.341L113.405 164.651Z" fill="#211E1F"/>
<path d="M116.377 164.204L118.543 163.543C119.001 163.395 119.488 163.352 119.966 163.418C120.388 163.481 120.783 163.659 121.108 163.933C121.441 164.227 121.681 164.61 121.8 165.036C121.941 165.456 121.959 165.907 121.851 166.337C121.739 166.746 121.511 167.115 121.194 167.4C120.835 167.72 120.407 167.954 119.943 168.085L117.777 168.741L116.377 164.204ZM119.583 167.078C119.934 166.986 120.235 166.763 120.423 166.456C120.574 166.135 120.6 165.771 120.494 165.433C120.389 165.095 120.159 164.808 119.851 164.629C119.522 164.479 119.147 164.463 118.806 164.583L117.983 164.832L118.754 167.321L119.583 167.078Z" fill="#211E1F"/>
<path d="M124.983 166.11C124.661 166.185 124.328 166.203 124 166.161L123.932 165.081C124.205 165.107 124.48 165.093 124.749 165.041C125.029 164.989 125.3 164.897 125.555 164.77C126.012 164.532 126.183 164.3 126.063 164.068C126.032 164.009 125.982 163.962 125.922 163.932C125.861 163.903 125.793 163.893 125.726 163.904C125.478 163.93 125.233 163.979 124.995 164.051C124.693 164.136 124.385 164.2 124.075 164.244C123.821 164.279 123.563 164.247 123.326 164.153C123.072 164.04 122.869 163.839 122.755 163.588C122.625 163.341 122.571 163.061 122.6 162.784C122.644 162.481 122.775 162.196 122.978 161.964C123.239 161.665 123.56 161.422 123.92 161.251C124.198 161.107 124.491 160.995 124.795 160.918C125.075 160.84 125.367 160.807 125.658 160.822L125.749 161.896C125.282 161.875 124.818 161.972 124.4 162.179C124.213 162.26 124.052 162.389 123.932 162.552C123.901 162.608 123.885 162.67 123.885 162.733C123.885 162.797 123.901 162.859 123.932 162.914C123.964 162.969 124.013 163.013 124.071 163.04C124.129 163.066 124.195 163.074 124.258 163.062C124.502 163.039 124.744 162.989 124.978 162.914C125.28 162.83 125.587 162.764 125.898 162.717C126.151 162.687 126.407 162.718 126.646 162.807C126.9 162.92 127.103 163.122 127.218 163.373C127.348 163.617 127.4 163.896 127.366 164.17C127.32 164.473 127.189 164.757 126.989 164.99C126.728 165.287 126.409 165.53 126.052 165.703C125.715 165.884 125.356 166.021 124.983 166.11Z" fill="#211E1F"/>
<path d="M129.622 162.027C129.723 162.045 129.818 162.084 129.901 162.142C129.985 162.2 130.056 162.274 130.108 162.36C130.165 162.45 130.213 162.545 130.251 162.643C130.298 162.804 130.332 162.969 130.354 163.135L130.548 164.199L129.868 164.646L129.519 163.548C129.385 163.567 129.249 163.547 129.125 163.492C128.998 163.428 128.889 163.333 128.811 163.215C128.753 163.134 128.712 163.041 128.691 162.944C128.671 162.847 128.671 162.746 128.691 162.649C128.741 162.45 128.865 162.278 129.037 162.165C129.209 162.052 129.418 162.007 129.622 162.038V162.027Z" fill="#211E1F"/>
<path d="M136.457 155.906C136.715 155.971 136.941 156.123 137.097 156.336C137.223 156.48 137.309 156.654 137.345 156.84C137.381 157.027 137.366 157.22 137.303 157.399C137.113 157.871 136.787 158.276 136.366 158.565L134.332 160.16L131.36 156.432L133.286 154.927C133.654 154.615 134.108 154.418 134.589 154.362C134.769 154.345 134.95 154.374 135.115 154.447C135.28 154.519 135.423 154.632 135.532 154.775C135.667 154.937 135.754 155.132 135.783 155.34C135.807 155.554 135.77 155.77 135.675 155.963C135.924 155.869 136.197 155.849 136.457 155.906ZM133.029 156.37L133.6 157.088L134.332 156.523C134.692 156.24 134.772 155.957 134.577 155.736C134.383 155.516 134.115 155.521 133.76 155.804L133.029 156.37ZM135.937 157.06C135.732 156.805 135.446 156.828 135.075 157.117L134.183 157.818L134.783 158.57L135.68 157.875C136.05 157.58 136.134 157.309 135.932 157.06H135.937Z" fill="#211E1F"/>
<path d="M141.715 153.304L142.326 154.141L139.2 156.37L136.4 152.512L139.429 150.323L140.04 151.166L138.092 152.586L138.56 153.236L140.275 152.003L140.846 152.818L139.132 154.051L139.646 154.758L141.715 153.304Z" fill="#211E1F"/>
<path d="M142.588 149.582L141.337 150.352L140.766 149.446L144.411 147.184L144.983 148.089L143.737 148.858L145.714 152.02L144.571 152.727L142.588 149.582Z" fill="#211E1F"/>
<path d="M147.331 146.833L146.028 147.512L145.531 146.567L149.331 144.593L149.834 145.532L148.537 146.211L150.251 149.469L149.051 150.091L147.331 146.833Z" fill="#211E1F"/>
<path d="M155.954 145.798L156.36 146.754L152.811 148.225L150.954 143.846L154.423 142.41L154.828 143.366L152.6 144.293L152.914 145.029L154.874 144.214L155.268 145.142L153.303 145.956L153.646 146.754L155.954 145.798Z" fill="#211E1F"/>
<path d="M159.503 144.412L158.794 144.616L159.154 145.826L157.851 146.205L156.491 141.68L158.594 141.064C158.963 140.946 159.352 140.907 159.737 140.95C160.064 140.985 160.373 141.117 160.623 141.329C160.869 141.542 161.052 141.817 161.153 142.125C161.253 142.433 161.268 142.762 161.194 143.077C161.108 143.376 160.935 143.644 160.697 143.847L162.12 144.978L160.725 145.385L159.503 144.412ZM159.474 142.076C159.262 141.996 159.029 141.996 158.817 142.076L158.097 142.291L158.491 143.62L159.217 143.411C159.444 143.366 159.646 143.241 159.788 143.06C159.88 142.891 159.9 142.692 159.844 142.508C159.789 142.323 159.662 142.168 159.491 142.076H159.474Z" fill="#211E1F"/>
<path d="M173.715 139.14L172.275 143.926L170.823 143.96L169.835 141.092L168.949 144.005L167.498 144.039L165.823 139.333L167.218 139.299L168.263 142.308L169.2 139.248H170.446L171.486 142.28L172.418 139.197L173.715 139.14Z" fill="#211E1F"/>
<path d="M176.229 144.101C175.871 143.834 175.594 143.476 175.428 143.065C175.262 142.653 175.213 142.205 175.286 141.768C175.359 141.33 175.551 140.921 175.842 140.585C176.133 140.248 176.512 139.997 176.937 139.859C177.389 139.714 177.87 139.683 178.337 139.768C178.808 139.833 179.255 140.016 179.634 140.3C179.989 140.563 180.264 140.917 180.429 141.324C180.596 141.738 180.642 142.191 180.56 142.63C180.49 143.075 180.292 143.489 179.989 143.824C179.699 144.156 179.324 144.404 178.903 144.542C178.452 144.689 177.97 144.722 177.503 144.638C177.041 144.563 176.603 144.379 176.229 144.101ZM178.389 143.479C178.6 143.397 178.786 143.26 178.926 143.083C179.075 142.885 179.173 142.654 179.211 142.41C179.253 142.168 179.235 141.919 179.16 141.686C179.091 141.464 178.958 141.268 178.777 141.12C178.598 140.975 178.383 140.88 178.154 140.843C177.928 140.806 177.696 140.828 177.48 140.905C177.268 140.986 177.082 141.123 176.943 141.301C176.796 141.5 176.698 141.731 176.657 141.975C176.616 142.218 176.634 142.468 176.709 142.704C176.778 142.924 176.909 143.12 177.086 143.27C177.267 143.413 177.484 143.505 177.714 143.535C177.94 143.573 178.172 143.554 178.389 143.479Z" fill="#211E1F"/>
<path d="M184.028 144.78L183.32 144.559L182.943 145.764L181.646 145.362L183.08 140.837L185.171 141.488C185.545 141.593 185.892 141.776 186.188 142.025C186.438 142.236 186.619 142.516 186.708 142.828C186.792 143.147 186.78 143.483 186.674 143.796C186.588 144.099 186.413 144.371 186.171 144.576C185.932 144.779 185.638 144.907 185.326 144.944L185.863 146.675L184.48 146.245L184.028 144.78ZM185.32 142.828C185.188 142.647 184.996 142.519 184.777 142.466L184.057 142.246L183.634 143.569L184.354 143.796C184.566 143.872 184.799 143.872 185.011 143.796C185.099 143.756 185.176 143.697 185.238 143.624C185.299 143.55 185.343 143.464 185.366 143.371C185.398 143.283 185.411 143.189 185.403 143.095C185.396 143.001 185.367 142.91 185.32 142.828Z" fill="#211E1F"/>
<path d="M189.228 142.925L190.457 143.49L188.903 146.833L190.983 147.784L190.531 148.751L187.223 147.241L189.228 142.925Z" fill="#211E1F"/>
<path d="M194.366 145.402L196.257 146.635C196.665 146.888 197.009 147.231 197.263 147.636C197.49 147.997 197.605 148.416 197.594 148.841C197.577 149.283 197.432 149.711 197.177 150.074C196.94 150.448 196.601 150.748 196.2 150.94C195.809 151.118 195.374 151.179 194.948 151.115C194.473 151.046 194.019 150.87 193.623 150.6L191.726 149.367L194.366 145.402ZM194.171 149.673C194.315 149.779 194.48 149.856 194.654 149.899C194.829 149.942 195.011 149.949 195.188 149.922C195.535 149.836 195.836 149.624 196.033 149.329C196.23 149.033 196.308 148.676 196.251 148.327C196.158 147.979 195.93 147.682 195.617 147.501L194.903 147.031L193.457 149.192L194.171 149.673Z" fill="#211E1F"/>
<path d="M28.1656 122.821C28.7589 123.067 29.2623 123.486 29.6085 124.023C29.9546 124.56 30.127 125.188 30.1027 125.825C30.1182 126.466 29.9434 127.097 29.5998 127.64C29.2509 128.168 28.7517 128.581 28.1656 128.828C27.4699 129.118 26.7201 129.259 25.9656 129.241H24.0456V131.843H21.8398V122.402H25.9656C26.7205 122.386 27.4704 122.529 28.1656 122.821ZM27.3541 127.035C27.5174 126.877 27.6471 126.688 27.7357 126.48C27.8243 126.272 27.8699 126.048 27.8699 125.822C27.8699 125.596 27.8243 125.372 27.7357 125.164C27.6471 124.955 27.5174 124.766 27.3541 124.608C26.9143 124.298 26.379 124.148 25.8398 124.184H24.0456V127.459H25.8398C26.379 127.496 26.9143 127.346 27.3541 127.035Z" fill="#211E1F"/>
<path d="M39.7315 130.084V131.838H32.3486V122.403H39.5543V124.156H34.5429V126.204H38.9658V127.901H34.5429V130.084H39.7315Z" fill="#211E1F"/>
<path d="M42.166 122.402H46.4974C47.4437 122.377 48.3828 122.571 49.2403 122.968C50.005 123.331 50.6478 123.904 51.0917 124.62C51.5223 125.376 51.7485 126.229 51.7485 127.097C51.7485 127.965 51.5223 128.819 51.0917 129.575C50.6478 130.29 50.005 130.864 49.2403 131.227C48.3828 131.624 47.4437 131.817 46.4974 131.792H42.166V122.402ZM46.3889 130.044C47.2252 130.087 48.0454 129.805 48.6746 129.258C49.2217 128.678 49.526 127.914 49.526 127.12C49.526 126.326 49.2217 125.562 48.6746 124.982C48.0454 124.435 47.2252 124.153 46.3889 124.196H44.3717V130.044H46.3889Z" fill="#211E1F"/>
<path d="M54.0918 122.403H56.2975V131.838H54.0918V122.403Z" fill="#211E1F"/>
<path d="M65.5143 129.818H61.0914L60.2457 131.838H57.96L62.2057 122.403H64.3828L68.6457 131.838H66.3314L65.5143 129.818ZM64.8228 128.155L63.3085 124.546L61.8 128.155H64.8228Z" fill="#211E1F"/>
<path d="M71.8464 124.184H68.7949V122.403H77.1035V124.184H74.0521V131.838H71.8464V124.184Z" fill="#211E1F"/>
<path d="M85.0401 131.838L83.2001 129.207H81.1715V131.838H78.9658V122.402H83.0915C83.8466 122.386 84.5965 122.528 85.2915 122.821C85.8885 123.067 86.3985 123.482 86.7573 124.015C87.1161 124.547 87.3075 125.173 87.3075 125.813C87.3075 126.453 87.1161 127.079 86.7573 127.612C86.3985 128.144 85.8885 128.56 85.2915 128.806L87.4287 131.838H85.0401ZM84.4687 124.608C84.0321 124.295 83.4978 124.145 82.9601 124.184H81.1601V127.471H82.9601C83.4985 127.508 84.0329 127.356 84.4687 127.041C84.6424 126.89 84.7794 126.702 84.8695 126.492C84.9595 126.281 85.0003 126.053 84.9887 125.825C85.003 125.597 84.9646 125.369 84.8764 125.158C84.7883 124.948 84.6528 124.76 84.4801 124.608H84.4687Z" fill="#211E1F"/>
<path d="M89.6514 122.403H91.8571V131.838H89.6514V122.403Z" fill="#211E1F"/>
<path d="M96.7252 131.374C95.9596 130.97 95.3195 130.368 94.8738 129.631C94.4317 128.867 94.1992 128.001 94.1992 127.12C94.1992 126.239 94.4317 125.373 94.8738 124.608C95.3195 123.872 95.9596 123.27 96.7252 122.866C97.4801 122.492 98.3067 122.282 99.15 122.249C99.9934 122.216 100.834 122.361 101.617 122.674C102.266 122.953 102.841 123.377 103.297 123.913L101.879 125.208C101.592 124.854 101.227 124.568 100.813 124.372C100.398 124.176 99.9445 124.075 99.4852 124.077C98.9329 124.068 98.3876 124.2 97.9024 124.461C97.4466 124.711 97.072 125.084 96.8224 125.536C96.5671 126.018 96.4337 126.553 96.4337 127.097C96.4337 127.641 96.5671 128.177 96.8224 128.659C97.072 129.111 97.4466 129.484 97.9024 129.733C98.3876 129.995 98.9329 130.127 99.4852 130.118C99.9448 130.121 100.399 130.021 100.814 129.825C101.229 129.629 101.593 129.342 101.879 128.987L103.297 130.282C102.838 130.832 102.249 131.262 101.582 131.532C100.872 131.83 100.108 131.978 99.3366 131.968C98.4299 131.987 97.5325 131.783 96.7252 131.374Z" fill="#211E1F"/>
<path d="M109.994 122.402H114.326C115.272 122.377 116.211 122.571 117.068 122.968C117.833 123.331 118.476 123.904 118.92 124.62C119.35 125.376 119.577 126.229 119.577 127.097C119.577 127.965 119.35 128.819 118.92 129.575C118.476 130.29 117.833 130.864 117.068 131.227C116.211 131.624 115.272 131.817 114.326 131.792H109.994V122.402ZM114.217 130.044C115.053 130.087 115.873 129.805 116.503 129.258C117.05 128.678 117.354 127.914 117.354 127.12C117.354 126.326 117.05 125.562 116.503 124.982C115.873 124.435 115.053 124.153 114.217 124.196H112.2V130.044H114.217Z" fill="#211E1F"/>
<path d="M129.297 130.084V131.838H121.92V122.403H129.143V124.156H124.114V126.204H128.537V127.901H124.114V130.084H129.297Z" fill="#211E1F"/>
<path d="M140.48 122.403V131.838H138.669L133.914 126.108V131.838H131.737V122.403H133.56L138.286 128.133V122.403H140.48Z" fill="#211E1F"/>
<path d="M145.394 124.184H142.343V122.403H150.646V124.184H147.6V131.838H145.394V124.184Z" fill="#211E1F"/>
<path d="M152.515 122.403H154.72V131.838H152.515V122.403Z" fill="#211E1F"/>
<path d="M158.606 131.696C157.991 131.54 157.41 131.273 156.892 130.91L157.64 129.264C158.086 129.575 158.577 129.815 159.097 129.976C159.65 130.157 160.229 130.249 160.812 130.248C161.291 130.28 161.771 130.185 162.2 129.971C162.335 129.899 162.447 129.793 162.525 129.664C162.604 129.534 162.645 129.386 162.646 129.235C162.649 129.127 162.628 129.02 162.582 128.922C162.536 128.824 162.468 128.737 162.383 128.67C162.181 128.51 161.95 128.389 161.703 128.313C161.423 128.223 161.052 128.127 160.56 128.019C159.956 127.883 159.361 127.711 158.777 127.505C158.317 127.337 157.907 127.054 157.589 126.684C157.241 126.258 157.064 125.721 157.092 125.174C157.085 124.645 157.241 124.126 157.537 123.686C157.876 123.212 158.346 122.844 158.892 122.629C159.594 122.351 160.347 122.218 161.103 122.238C161.706 122.236 162.307 122.308 162.892 122.453C163.429 122.58 163.944 122.788 164.417 123.07L163.732 124.727C162.932 124.256 162.022 124.001 161.092 123.986C160.617 123.953 160.142 124.057 159.726 124.286C159.589 124.367 159.477 124.481 159.399 124.618C159.32 124.755 159.28 124.909 159.28 125.067C159.28 125.224 159.329 125.378 159.421 125.507C159.513 125.636 159.644 125.733 159.794 125.785C160.295 125.995 160.816 126.152 161.349 126.254C161.955 126.389 162.552 126.559 163.137 126.764C163.595 126.931 164.004 127.209 164.326 127.572C164.676 127.992 164.854 128.528 164.823 129.071C164.826 129.596 164.667 130.11 164.366 130.542C164.024 131.018 163.549 131.386 163 131.6C162.294 131.88 161.538 132.015 160.777 131.996C160.043 131.999 159.312 131.898 158.606 131.696Z" fill="#211E1F"/>
<path d="M168.863 124.184H165.812V122.403H174.12V124.184H171.069V131.838H168.863V124.184Z" fill="#211E1F"/>
<path d="M182.057 131.838L180.217 129.207H178.189V131.838H176V122.402H180.126C180.881 122.386 181.631 122.528 182.326 122.821C182.912 123.067 183.411 123.481 183.76 124.009C184.107 124.551 184.284 125.183 184.269 125.825C184.296 126.468 184.12 127.103 183.764 127.641C183.408 128.18 182.892 128.595 182.286 128.828L184.423 131.86L182.057 131.838ZM181.486 124.608C181.049 124.295 180.515 124.145 179.977 124.184H178.177V127.471H180C180.538 127.508 181.073 127.356 181.509 127.041C181.683 126.891 181.821 126.703 181.911 126.492C182.001 126.282 182.041 126.053 182.029 125.825C182.041 125.595 182 125.366 181.908 125.155C181.816 124.943 181.675 124.756 181.497 124.608H181.486Z" fill="#211E1F"/>
<path d="M191.108 128.494V131.837H188.903V128.443L185.217 122.38H187.56L190.103 126.571L192.651 122.38H194.811L191.108 128.494Z" fill="#211E1F"/>
<path d="M24.9033 110.201V100.053H16.0633V110.201H9.97754V86.8452H16.0633V97.5644H24.9033V86.8452H31.0061V110.201H24.9033Z" fill="#211E1F"/>
<path d="M52.434 105.24V110.003C51.4178 110.463 50.3167 110.709 49.1997 110.727C46.4854 110.727 45.7368 108.979 46.2226 104.109H46.034C45.1426 108.335 42.3654 110.727 38.5368 110.727C35.5711 110.727 33.2568 109.381 33.2568 106.474C33.2568 102.225 37.9425 101.62 45.4054 101.671V101.343C45.4054 99.6461 44.3483 98.7297 42.2511 98.7297C40.4911 98.7297 38.4911 99.4764 38.6168 101.53L34.7254 100.964C33.9597 97.2873 36.7426 93.8707 42.5997 93.8707C47.0797 93.8707 50.5426 95.6921 50.5426 100.936V104.132C50.5426 104.986 50.7197 105.495 51.3254 105.495C51.7082 105.483 52.0849 105.397 52.434 105.24ZM45.394 102.491C41.2054 102.491 38.5368 103.108 38.5368 104.533C38.5368 105.472 39.4111 105.981 41.034 105.981C43.2225 105.981 45.234 104.997 45.394 102.491Z" fill="#211E1F"/>
<path d="M54.1543 94.3232H59.2972L58.9086 99.9797H59.0629C59.8 96.2408 62.3429 93.8141 65.3486 93.8141C69.8114 93.8141 72.5314 97.1684 72.5314 102.237C72.5314 107.599 69.7372 110.722 65.2857 110.722C63.9259 110.756 62.5929 110.344 61.4942 109.55C60.3956 108.756 59.593 107.625 59.2114 106.332H59.0057C59.1314 107.644 59.32 109.047 59.32 110.292V115.852H54.1772L54.1543 94.3232ZM67.2114 102.282C67.2114 100.149 65.6629 98.9446 63.1829 98.9446C60.7029 98.9446 59.1829 100.229 59.1829 102.254C59.1829 104.477 60.7314 105.591 63.2286 105.591C65.7257 105.591 67.2114 104.437 67.2114 102.288V102.282Z" fill="#211E1F"/>
<path d="M74.3948 94.3232H79.5376L79.1491 99.9797H79.3034C80.0405 96.2408 82.5834 93.8141 85.5891 93.8141C90.0519 93.8141 92.7719 97.1684 92.7719 102.237C92.7719 107.599 89.9776 110.722 85.5262 110.722C84.1618 110.76 82.823 110.35 81.7195 109.555C80.6161 108.759 79.8105 107.624 79.4291 106.326H79.2234C79.3491 107.639 79.5376 109.042 79.5376 110.286V115.846H74.3662L74.3948 94.3232ZM87.4291 102.288C87.4291 100.155 85.8805 98.9503 83.4291 98.9503C80.8634 98.9503 79.4291 100.234 79.4291 102.259C79.4291 104.482 80.9776 105.597 83.4748 105.597C85.9719 105.597 87.4291 104.437 87.4291 102.288Z" fill="#211E1F"/>
<path d="M111.011 94.3232L104.154 111.327C102.371 115.733 100.468 117.159 97.7999 117.159C96.6746 117.184 95.5783 116.804 94.7138 116.091C93.8492 115.378 93.2749 114.379 93.097 113.278L95.5827 111.202C95.7191 111.687 96.0219 112.11 96.439 112.398C96.8561 112.686 97.3616 112.821 97.8684 112.781C99.1656 112.781 100.257 111.033 100.971 109.16H98.617L92.5713 94.3232H97.8799C99.5498 98.1939 100.815 102.223 101.657 106.349H101.943C102.657 103.289 105.8 94.3232 105.8 94.3232H111.011Z" fill="#211E1F"/>
<path d="M128.509 88.2988V110.28H122.463V88.3215" fill="#211E1F"/>
<path d="M166.389 82.1899C164.863 84.9446 161.777 87.0206 157.915 87.886C154.052 88.7515 150.035 88.3895 146.235 87.886C141.829 87.2027 137.475 86.2295 133.2 84.9729C129.143 83.8699 125.309 82.8291 121.56 82.3539C117.914 81.8788 114.612 82.4444 112 83.8868C108.829 85.6686 106.789 88.9777 106.777 92.2472H111.606C111.606 90.6691 112.714 88.9664 114.377 88.0331C116.514 86.8282 119.126 86.8509 120.943 87.0828C124.372 87.5127 128.029 88.5082 131.92 89.5604C136.403 90.8873 140.972 91.9116 145.595 92.6262C149.635 93.1919 154.383 93.5765 158.977 92.5527C164.183 91.3874 168.429 88.4517 170.612 84.4977L166.389 82.1899Z" fill="#211E1F"/>
<path d="M132.76 102.282C132.76 96.9816 136.057 93.797 141.903 93.797C147.457 93.797 150.783 96.9307 150.783 102.282C150.783 107.633 147.503 110.727 141.783 110.727C136.063 110.727 132.76 107.509 132.76 102.282ZM145.954 102.242C145.954 100.121 144.411 98.8087 141.783 98.8087C139.154 98.8087 137.583 100.121 137.583 102.259C137.583 104.397 139.16 105.721 141.8 105.721C144.44 105.721 145.954 104.369 145.954 102.242Z" fill="#211E1F"/>
<path d="M152.269 102.282C152.269 96.9816 155.56 93.797 161.411 93.797C166.971 93.797 170.297 96.9307 170.297 102.282C170.297 107.633 167.006 110.727 161.291 110.727C155.577 110.727 152.269 107.509 152.269 102.282ZM165.463 102.242C165.463 100.121 163.914 98.8087 161.291 98.8087C158.669 98.8087 157.091 100.121 157.091 102.259C157.091 104.397 158.669 105.721 161.309 105.721C163.949 105.721 165.463 104.369 165.463 102.242Z" fill="#211E1F"/>
<path d="M187 104.166C187.428 107.678 185.52 110.727 180.52 110.727C176.102 110.727 174.148 108.38 174.148 104.251V99.1597H171.325V94.3233H173.262C174.668 94.3233 175.165 93.5823 175.165 92.2248V88.0615H179.285C179.285 90.4599 179.285 92.9771 178.942 93.9217V94.3233H184.571V99.1314H179.274V103.487C179.274 105.405 180.074 105.948 181.182 105.948C182.417 105.948 183.102 105.314 182.994 103.951L187 104.166Z" fill="#211E1F"/>
<path d="M188.503 87.8577H193.714V94.9567C193.714 97.9716 193.217 99.6403 192.931 101.569H193.143C194.223 96.7158 196.343 93.8253 199.949 93.8253C204.68 93.8253 206.023 96.9478 206.023 101.433V110.212H200.92V102.808C200.92 100.33 199.874 99.1425 197.749 99.1425C195.377 99.1425 193.611 100.998 193.611 103.747V110.212H188.503V87.8577Z" fill="#211E1F"/>
<path d="M111.171 153.983C110.594 153.966 110.019 153.89 109.457 153.757C108.434 153.548 107.383 153.333 106.263 153.757L105.503 153.084L108.463 142.053L109.571 142.342L106.857 152.428C107.805 152.324 108.764 152.395 109.686 152.637C110.829 152.869 111.577 152.988 112.246 152.512L112.914 153.434C112.408 153.797 111.797 153.99 111.171 153.983Z" fill="#211E1F"/>
<path d="M108 157.111C101.263 157.111 95.7891 152.993 95.7891 147.925C95.7891 142.857 101.263 138.739 108 138.739C114.738 138.739 120.212 142.862 120.212 147.925C120.212 152.988 114.738 157.111 108 157.111ZM108 139.87C101.898 139.87 96.9319 143.485 96.9319 147.925C96.9319 152.365 101.898 155.98 108 155.98C114.103 155.98 119.069 152.371 119.069 147.925C119.069 143.479 114.103 139.864 108 139.864V139.87Z" fill="#211E1F"/>
<path d="M101.674 151.986C100.996 152 100.332 151.789 99.7885 151.387C99.4834 151.151 99.2437 150.843 99.0918 150.491C98.9399 150.138 98.8808 149.754 98.92 149.373L100.063 149.531C100.051 149.716 100.086 149.901 100.164 150.07C100.241 150.239 100.36 150.386 100.509 150.498C100.868 150.761 101.309 150.887 101.754 150.855C102.189 150.855 102.612 150.716 102.96 150.459C103.126 150.328 103.26 150.162 103.352 149.973C103.444 149.784 103.492 149.577 103.491 149.367C103.489 149.094 103.428 148.824 103.312 148.576C103.195 148.329 103.027 148.108 102.817 147.93C102.602 147.765 102.375 147.615 102.137 147.484C101.523 147.196 101.016 146.725 100.686 146.137C100.493 145.644 100.478 145.1 100.643 144.597C100.809 144.094 101.145 143.663 101.594 143.377C101.956 143.131 102.366 142.965 102.798 142.89C103.23 142.815 103.673 142.832 104.097 142.941C104.437 143.012 104.756 143.156 105.033 143.363C105.31 143.571 105.536 143.836 105.697 144.141C105.824 144.345 105.904 144.574 105.933 144.813C105.961 145.051 105.937 145.292 105.863 145.521L104.806 145.085C104.807 144.9 104.746 144.719 104.634 144.57C104.549 144.436 104.439 144.32 104.308 144.229C104.178 144.138 104.03 144.073 103.874 144.039C103.598 143.96 103.308 143.943 103.024 143.989C102.741 144.035 102.471 144.143 102.234 144.305C102.01 144.442 101.838 144.65 101.746 144.894C101.654 145.139 101.647 145.407 101.726 145.656C101.969 146.025 102.314 146.318 102.72 146.499C103.013 146.666 103.292 146.855 103.554 147.065C103.894 147.351 104.166 147.706 104.353 148.107C104.539 148.507 104.635 148.943 104.634 149.384C104.633 149.762 104.546 150.135 104.379 150.475C104.211 150.815 103.969 151.113 103.669 151.347C103.127 151.758 102.465 151.983 101.783 151.986H101.674Z" fill="#211E1F"/>
<path d="M112.474 151.115C112.13 151.125 111.788 151.061 111.471 150.93C111.154 150.798 110.869 150.601 110.634 150.352C109.308 148.83 110.063 146.437 110.874 145.261C112.074 143.53 113.628 142.834 115.137 143.349C115.435 143.451 115.705 143.621 115.925 143.845C116.146 144.069 116.31 144.341 116.406 144.638C116.594 145.16 116.606 145.728 116.44 146.256L115.354 145.889C115.451 145.606 115.451 145.3 115.354 145.017C115.312 144.88 115.239 144.755 115.14 144.651C115.041 144.547 114.918 144.467 114.783 144.418C113.434 143.954 112.354 145.148 111.834 145.9C111.206 146.811 110.691 148.609 111.52 149.582C111.67 149.724 111.851 149.831 112.049 149.894C112.247 149.956 112.457 149.974 112.663 149.944C113.023 149.896 113.367 149.763 113.665 149.556C113.963 149.349 114.207 149.075 114.377 148.756L115.371 149.322C115.117 149.803 114.747 150.215 114.295 150.523C113.843 150.83 113.322 151.024 112.777 151.087L112.474 151.115Z" fill="#211E1F"/>
</svg>
