<svg width="74" height="74" viewBox="0 0 74 74" fill="none" xmlns="http://www.w3.org/2000/svg">
<path d="M38.4605 0L43.5724 7.01307L51.1184 2.66013L53.5526 11.1242L62.0724 9.6732L61.3421 18.3791L70.1053 19.8301L66.4539 27.8105L74 32.1634L67.9145 38.2092L73.5132 44.9804L65.4803 48.6078L68.4013 56.8301L59.8816 57.7974V66.5033L51.3618 64.085L48.1974 72.3072L41.1382 67.4706L35.5395 74L30.4276 66.9869L22.8816 71.3399L20.4474 62.8758L11.9276 64.3268L12.6579 55.8627L3.89474 54.1699L7.54605 46.4314L0 41.8366L6.08553 35.7908L0.486842 29.0196L8.51974 25.3922L5.35526 17.1699L14.1184 16.4444V7.73856L22.6382 9.91503L25.8026 1.69281L32.8618 6.77124L38.4605 0Z" fill="#F9CF47"/>
<path d="M28.2364 21.281C30.1838 14.5098 37.243 10.3987 44.0588 12.3333C50.8746 14.268 55.0127 21.281 53.0654 28.0523C48.9272 42.8039 33.3483 51.5098 33.3483 51.5098C33.3483 51.5098 24.0983 35.7909 28.2364 21.281Z" fill="#211E1F"/>
<path d="M38.9404 61.2179C39.753 58.2541 36.9418 54.9126 32.6616 53.7543C28.3813 52.596 24.2527 54.0596 23.4401 57.0234C22.6275 59.9871 25.4386 63.3286 29.7189 64.4869C33.9992 65.6452 38.1278 64.1816 38.9404 61.2179Z" fill="#211E1F"/>
</svg>
