<svg width="99" height="51" viewBox="0 0 99 51" fill="none" xmlns="http://www.w3.org/2000/svg">
<path d="M20.3583 29.5175V50.3294H14.6934V29.5362" fill="#211E1F"/>
<path d="M17.7054 21.9861V12.4479H9.42089V21.9861H3.71387V0H9.42089V10.0902H17.7054V0.0140331H23.4265V22.0001L17.7054 21.9861Z" fill="#211E1F"/>
<path d="M43.5088 17.2848V21.7943C42.555 22.2217 41.5227 22.4464 40.4775 22.4539C37.9327 22.4539 37.2311 20.7979 37.6708 16.1902H37.5071C36.6744 20.2132 34.0688 22.4539 30.4902 22.4539C27.7069 22.4539 25.541 21.1768 25.541 18.4262C25.541 14.4032 29.9336 13.8325 36.927 13.8746V13.5706C36.927 11.9427 35.9306 11.096 33.9706 11.096C32.3193 11.096 30.4434 11.7977 30.5604 13.7437L26.9116 13.187C26.1959 9.70664 28.7828 6.46954 34.2887 6.46954C38.4988 6.46954 41.7359 8.19569 41.7359 13.1589V16.1902C41.7359 16.9948 41.8996 17.4766 42.4703 17.4766C42.8255 17.479 43.1779 17.4139 43.5088 17.2848V17.2848ZM36.9083 14.6792C32.9882 14.6792 30.4528 15.264 30.4528 16.6112C30.4528 17.5047 31.2761 17.9865 32.7917 17.9865C34.8734 17.9865 36.7633 17.0509 36.9083 14.6792Z" fill="#211E1F"/>
<path d="M45.123 6.96538H49.9366L49.5717 12.3403H49.7167C50.4044 8.78508 52.7901 6.49759 55.6015 6.49759C59.7835 6.49759 62.333 9.67388 62.333 14.4734C62.333 19.5536 59.7134 22.4819 55.5407 22.4819C52.7901 22.4819 50.4512 20.709 49.8477 18.3233H49.6606C49.7775 19.5676 49.9506 20.9008 49.9506 22.0983V27.3703H45.123V6.96538ZM57.3557 14.5061C57.3557 12.4853 55.9056 11.3439 53.5807 11.3439C51.1809 11.3439 49.8384 12.5601 49.8384 14.4734C49.8384 16.5831 51.2885 17.6356 53.6274 17.6356C55.9664 17.6356 57.3557 16.527 57.3557 14.4921V14.5061Z" fill="#211E1F"/>
<path d="M64.0918 6.96538H68.9053L68.5405 12.3403H68.6855C69.3731 8.78508 71.7589 6.49759 74.5703 6.49759C78.7804 6.49759 81.3017 9.67388 81.3017 14.4734C81.3017 19.5536 78.6821 22.4819 74.5095 22.4819C71.7589 22.4819 69.4199 20.709 68.8165 18.3233H68.6153C68.7323 19.5676 68.9053 20.9008 68.9053 22.0983V27.3703H64.0918V6.96538ZM76.3245 14.5061C76.3245 12.4853 74.879 11.3439 72.5494 11.3439C70.1497 11.3439 68.8071 12.5601 68.8071 14.4734C68.8071 16.5831 70.2573 17.6356 72.6009 17.6356C74.9445 17.6356 76.3245 16.527 76.3245 14.4921V14.5061Z" fill="#211E1F"/>
<path d="M98.4133 6.96533L92.0046 23.0526C90.3346 27.2253 88.5477 28.5725 86.045 28.5725C84.9906 28.597 83.963 28.2384 83.1528 27.5632C82.3425 26.888 81.8045 25.9419 81.6384 24.9004L83.9774 22.9356C84.1043 23.3943 84.3873 23.7944 84.7775 24.0668C85.1678 24.3392 85.6409 24.4669 86.1152 24.4279C87.3267 24.4279 88.3512 22.7766 89.0248 21.0037H86.8169L81.1426 6.96533H86.1199C88.2997 12.3683 89.1184 15.5867 89.661 18.356H89.923C90.8005 14.4627 92.0103 10.6519 93.539 6.96533H98.4133Z" fill="#211E1F"/>
<path d="M55.8634 23.7357C54.4319 26.3459 51.5363 28.3106 47.9109 29.1246C44.2856 29.9385 40.5246 29.5924 36.9647 29.1246C32.7546 28.5539 28.6848 27.4405 24.7507 26.36C20.9429 25.3168 17.3503 24.3344 13.8372 23.8853C10.4223 23.4503 7.32558 23.9508 4.88839 25.3402C1.92261 27.0289 0.0140337 30.1537 0 33.2552H4.5282C4.5282 31.7629 5.57137 30.1537 7.1291 29.2649C9.13124 28.1282 11.5825 28.1469 13.2805 28.3621C16.4802 28.7691 19.9231 29.714 23.5719 30.701C27.651 31.819 31.8658 32.9745 36.3799 33.5826C40.169 34.0925 44.6224 34.4854 48.9214 33.5171C53.8051 32.4131 57.7813 29.6345 59.8302 25.8875L55.8634 23.7357Z" fill="#211E1F"/>
<path d="M24.3438 42.756C24.3438 37.7366 27.4312 34.7381 32.9043 34.7381C38.1155 34.7381 41.2309 37.7085 41.2309 42.756C41.2309 47.8034 38.1576 50.7458 32.8107 50.7458C27.4639 50.7458 24.3438 47.7052 24.3438 42.756ZM36.7121 42.7139C36.7121 40.7071 35.2619 39.4393 32.8014 39.4393C30.3408 39.4393 28.8673 40.6837 28.8673 42.7139C28.8673 44.7441 30.3455 45.9884 32.8154 45.9884C35.2853 45.9884 36.7121 44.7347 36.7121 42.7139Z" fill="#211E1F"/>
<path d="M42.625 42.756C42.625 37.7366 45.7124 34.7381 51.1855 34.7381C56.3967 34.7381 59.5122 37.7085 59.5122 42.756C59.5122 47.8034 56.4388 50.7458 51.092 50.7458C45.7452 50.7458 42.625 47.7052 42.625 42.756ZM54.9933 42.7139C54.9933 40.7071 53.5432 39.4393 51.0826 39.4393C48.6221 39.4393 47.1485 40.6837 47.1485 42.7139C47.1485 44.7441 48.6267 45.9884 51.1013 45.9884C53.5759 45.9884 54.9933 44.7347 54.9933 42.7139Z" fill="#211E1F"/>
<path d="M75.1647 44.5429C75.5577 47.8642 73.7614 50.7317 69.0835 50.7317C64.9435 50.7317 63.1145 48.5097 63.1145 44.599V39.7854H60.4668V35.2339H62.2818C63.5963 35.2339 64.0641 34.5322 64.0641 33.2458V29.2929H67.928C67.928 31.5617 67.928 33.9708 67.6053 34.8409V35.2339H72.8913V39.7854H67.9514V43.9207C67.9514 45.7357 68.6999 46.2596 69.7384 46.2596C70.8938 46.2596 71.5394 45.6562 71.4364 44.3885L75.1647 44.5429Z" fill="#211E1F"/>
<path d="M76.5908 29.1011H81.4792V35.8186C81.4792 38.6721 81.0114 40.2532 80.7448 42.0823H80.9366C81.947 37.4886 83.9351 34.752 87.3266 34.752C91.7612 34.752 93.0196 37.7085 93.0196 41.9513V50.2639H88.2247V43.2471C88.2247 40.9081 87.2424 39.7808 85.2543 39.7808C83.0276 39.7808 81.3763 41.535 81.3763 44.1406V50.2873H76.5908V29.1011Z" fill="#211E1F"/>
</svg>
