<svg width="60" height="69" viewBox="0 0 60 69" fill="none" xmlns="http://www.w3.org/2000/svg">
<path d="M42.4912 2.17376C42.1293 2.78526 41.8593 3.44806 41.6901 4.1403L42.731 4.65781C42.92 4.41703 43.0954 4.1773 43.2649 3.94578C43.4705 3.66478 43.6673 3.39587 43.8688 3.15185C44.1964 2.73715 44.5958 2.38642 45.0474 2.11683C45.4125 1.87912 45.8447 1.76999 46.277 1.80632C46.6996 1.84867 47.0885 2.05891 47.3587 2.39111L48.4608 2.02368C48.3801 1.56279 48.1588 1.13922 47.8281 0.812701C47.5031 0.493621 47.1078 0.257676 46.675 0.124411C46.2379 -0.00604628 45.7774 -0.0343556 45.328 0.0416092C44.9057 0.120765 44.499 0.269349 44.1239 0.481494C43.4464 0.895342 42.8844 1.47784 42.4912 2.17376Z" fill="#211E1F"/>
<path d="M32.2305 4.7044C32.3949 4.01302 32.6597 3.35027 33.0162 2.73786C33.4138 2.04003 33.9812 1.45736 34.6643 1.0456C35.0348 0.831448 35.4385 0.682703 35.8582 0.60571C36.3076 0.529745 36.7681 0.558055 37.2052 0.688512C37.6376 0.822865 38.0326 1.05867 38.3583 1.3768C38.6874 1.70458 38.9084 2.12757 38.991 2.58778L37.8991 2.97074C37.6269 2.63822 37.2364 2.42807 36.8123 2.38595C36.38 2.35039 35.9481 2.45946 35.5827 2.69646C35.1337 2.96757 34.7362 3.31812 34.4092 3.73148C34.2072 3.97274 34.0128 4.23834 33.8097 4.51591C33.638 4.75036 33.4602 4.99336 33.2662 5.23744L32.2305 4.7044Z" fill="#211E1F"/>
<path fill-rule="evenodd" clip-rule="evenodd" d="M48.8078 6.75891C44.3326 6.77661 39.8616 7.0392 35.4143 7.54553C28.4869 8.28186 21.6672 9.83095 15.0919 12.1617C15.021 12.1865 14.9544 12.2099 14.8919 12.2318L14.8897 12.2326C14.679 12.3066 14.5158 12.3639 14.398 12.3998C12.6479 12.9535 11.8469 14.0506 11.8877 15.7533L12.1071 22.8225C12.1323 23.4344 12.3145 24.0241 12.6295 24.5361C12.6994 24.8472 12.7959 25.143 12.9148 25.4192L9.49415 25.688C9.82101 24.9835 10.0777 24.2472 10.2601 23.4901V23.2468C10.4054 22.4549 10.369 21.6396 10.1537 20.8642C9.9384 20.0889 9.55 19.3742 9.01858 18.7755C8.48716 18.1769 7.82699 17.7104 7.08922 17.4121C6.35145 17.1139 5.55589 16.9919 4.76417 17.0557C3.97246 17.1194 3.20584 17.3672 2.52373 17.7798C1.84161 18.1924 1.2623 18.7588 0.830688 19.435C0.399075 20.1112 0.126743 20.8791 0.0347923 21.6792C-0.0571581 22.4793 0.0337417 23.2902 0.300449 24.049C0.298798 24.08 0.298798 24.1111 0.300449 24.1421L0.32596 24.199V24.2508C0.684494 25.1274 1.14712 25.9564 1.70357 26.7193C2.04334 27.1228 2.29698 27.5932 2.44851 28.1011C2.38172 28.6267 2.20797 29.1325 1.93828 29.5863C1.49149 30.4397 1.14882 31.3451 0.917824 32.2826V32.4689C0.779133 33.2277 0.807014 34.0083 0.999484 34.7549C1.19195 35.5016 1.54428 36.1961 2.03141 36.789C2.51854 37.3819 3.12849 37.8586 3.81789 38.1853C4.50729 38.512 5.25918 38.6805 6.0201 38.679H6.42318C7.1053 38.6306 7.77121 38.4456 8.38249 38.1348C8.99376 37.824 9.5383 37.3934 9.98467 36.868C10.431 36.3426 10.7704 35.7328 10.9832 35.0737C11.196 34.4145 11.278 33.7192 11.2244 33.0278C11.1882 32.5701 11.0921 32.1194 10.9387 31.6874L10.8877 31.5322V31.4701C10.6004 30.7705 10.2468 30.1014 9.83201 29.4722L14.768 29.0845C14.4607 29.3913 14.2123 29.7569 14.0387 30.1631C13.7512 30.8356 13.684 31.5839 13.847 32.2981L14.2654 35.9672L14.3521 36.6969L14.9746 37.0695C15.2444 37.2323 19.9586 39.9924 28.5551 41.5549L28.3853 46.1006C28.0375 46.2696 27.7442 46.5448 27.5211 47.0109C27.2257 47.0582 26.9534 47.2017 26.7455 47.4198C25.9139 48.2944 26.1282 50.2661 26.3884 52.0463C26.4673 52.8862 26.4673 53.7319 26.3884 54.5718V54.6235C26.3797 55.0522 26.3388 55.4795 26.2659 55.9018C26.254 55.9924 26.2407 56.0835 26.2273 56.1753C26.1834 56.4767 26.1384 56.7851 26.1384 57.1024C26.0761 58.015 25.9136 58.9176 25.6536 59.7935C25.3826 60.6748 25.2115 61.5846 25.1434 62.5052C25.1212 63.0272 25.171 63.5498 25.2914 64.0578C25.8424 66.3659 26.7915 68.8396 30.9447 69H31.4141C34.6796 69 36.5266 67.6131 36.598 65.0617C36.6184 64.5442 36.3684 63.6489 35.8582 62.1637C35.0096 59.7631 34.5161 57.2483 34.3938 54.7012C34.3864 54.4037 34.4017 54.1061 34.4398 53.811C34.5061 53.2004 34.5928 52.4034 34.6796 51.6478C34.8633 50.0591 34.9704 49.0706 34.9704 48.7653C34.9513 48.2263 34.8209 47.6974 34.5877 47.2128C34.4653 47.0208 34.3025 46.8587 34.1111 46.7379C33.9198 46.6171 33.7044 46.5407 33.4805 46.5141C33.4442 46.4575 33.4014 46.4054 33.353 46.3589C32.8413 45.9157 32.189 45.675 31.5162 45.6809C31.4428 45.679 31.3694 45.6784 31.2961 45.679L31.4332 42.0088C34.1921 42.3792 37.279 42.6121 40.6798 42.6121H40.9731L40.8841 44.9945C40.4993 45.0441 40.1424 45.1682 39.8941 45.4791C39.3769 46.0911 39.3233 47.1478 39.2876 47.8517L39.2869 47.8648C39.2664 48.0937 39.2734 48.3184 39.2802 48.538C39.2836 48.6459 39.2869 48.7527 39.2869 48.8584V49.5778C39.2222 50.4701 39.0509 51.3512 38.7767 52.2016L38.7532 52.293L38.713 52.4488C38.6247 52.7905 38.5343 53.1404 38.4604 53.4902C38.2653 54.4361 38.2137 55.29 38.3083 56.0477C38.2581 56.1429 38.2297 56.2487 38.2257 56.3572L38.1287 58.9758C38.1274 59.0642 38.1485 59.1516 38.1899 59.2294C38.2665 59.3743 38.6389 59.8814 40.088 60.2334C40.5209 60.3346 40.9447 60.4692 41.3558 60.6356C42.1006 61.2527 42.8403 61.6456 43.6453 61.8959C44.6701 62.4768 45.7416 62.9698 46.8485 63.3695C48.8639 64.0421 50.9777 64.3606 53.0988 64.3113C54.8288 64.329 56.5554 64.1519 58.247 63.7835C58.8921 63.6699 59.4753 63.3246 59.8899 62.8106C59.9736 62.6785 60.0113 62.5218 59.9971 62.3655L59.8389 60.1454C59.8219 60.0366 59.7804 59.9333 59.7176 59.8436C59.6889 59.8026 59.6561 59.7649 59.6198 59.7311C59.4134 59.195 59.0192 58.7545 58.5123 58.4945L55.7162 57.3197C55.2366 57.0144 54.757 56.7039 54.2825 56.3882C54.2397 56.0961 54.0974 55.8285 53.8802 55.6318C53.6629 55.4351 53.3847 55.3219 53.0937 55.3118C53.0208 55.3038 52.9472 55.3038 52.8743 55.3118H52.7722V55.2859C52.7824 55.2035 52.7824 55.12 52.7722 55.0375C52.743 54.7337 52.6067 54.4507 52.3883 54.2406C52.1699 54.0305 51.8841 53.9073 51.5834 53.8938H51.3181V53.8473C51.3131 53.5143 51.1821 53.1959 50.9523 52.9581C50.7226 52.7202 50.4115 52.5809 50.0833 52.569H50.0476C50.1224 52.3807 50.1513 52.177 50.1319 51.975C50.1125 51.773 50.0454 51.5787 49.9363 51.4086C49.8271 51.2385 49.6792 51.0976 49.5049 50.9978C49.3307 50.898 49.1353 50.8423 48.9353 50.8353C48.8606 50.8301 48.7856 50.8301 48.7108 50.8353L48.6139 50.6594C48.7037 50.5109 48.7627 50.3453 48.7874 50.1729C48.8273 49.8729 48.7595 49.5683 48.5966 49.3147C48.4336 49.0611 48.1863 48.8753 47.8996 48.7912C47.8082 48.4258 47.7451 48.0538 47.7108 47.6785V47.4094C47.6972 47.0117 47.6355 46.6171 47.5271 46.2347C47.4356 45.9044 47.2646 45.6024 47.0294 45.3558C46.7943 45.1092 46.5025 44.9257 46.1801 44.8219C46.0602 44.7896 45.9368 44.7722 45.8127 44.7701C45.2848 44.7626 44.7746 44.963 44.3892 45.329C44.3511 45.3608 44.3152 45.3954 44.282 45.4325C44.2829 45.4153 44.2829 45.398 44.282 45.3808L44.2157 45.3031H44.1494L43.7699 45.2424L43.8701 42.5599C49.0935 42.3476 52.8984 41.667 55.405 40.4799C57.7674 39.3725 59.0378 37.7889 59.1807 35.7809C59.2368 35.0254 59.2776 34.3371 59.2929 33.7368C59.3154 33.1906 59.1831 32.6494 58.9119 32.1771C58.6406 31.7048 58.2417 31.3212 57.7623 31.0716L56.4642 22.9151C56.7424 22.3013 57.0003 21.4447 57.3337 20.3281L57.4612 19.8933C57.5119 19.7247 57.5697 19.5056 57.6265 19.2507C58.4425 19.0286 58.8527 18.5366 59.0582 18.1079C59.6079 16.9465 59.4874 15.9499 59.3603 14.8972L59.3593 14.889C59.2653 14.2308 59.2159 13.5668 59.2113 12.9018L59.2113 12.2963C59.2119 10.2352 59.2127 7.48845 56.451 7.11599C53.9103 6.82458 51.3542 6.69495 48.7976 6.72786L48.8078 6.75891ZM4.11252 34.4754C3.91292 34.1583 3.79351 33.7962 3.76487 33.4211L3.79549 33.447C3.7679 33.1496 3.79879 32.8496 3.88638 32.5645C3.97396 32.2793 4.1165 32.0146 4.30572 31.7858C4.6917 31.3249 5.24222 31.0383 5.8364 30.9888C6.42959 30.9377 7.01902 31.1234 7.47933 31.5063C7.76119 31.7509 7.97922 32.0621 8.11412 32.4126C8.24902 32.763 8.29661 33.1418 8.25268 33.5154C8.20875 33.889 8.07466 34.2458 7.86228 34.5542C7.64991 34.8626 7.3658 35.1132 7.03514 35.2836C6.70448 35.4541 6.33747 35.5392 5.96664 35.5314C5.5958 35.5236 5.23258 35.4232 4.90917 35.239C4.58575 35.0548 4.31212 34.7925 4.11252 34.4754ZM5.19353 20.1883H5.01495C4.57009 20.2224 4.14518 20.3896 3.79399 20.6686C3.44279 20.9477 3.1811 21.3261 3.04201 21.7561C2.90292 22.186 2.89268 22.6482 3.01259 23.084C3.1325 23.5199 3.37718 23.9099 3.71566 24.2047C4.05414 24.4994 4.47121 24.6858 4.91413 24.7401C5.35704 24.7944 5.80588 24.7143 6.20387 24.5098C6.60186 24.3053 6.93112 23.9857 7.14998 23.5914C7.36885 23.1971 7.46749 22.7458 7.43343 22.2946C7.38864 21.7225 7.13347 21.1884 6.71856 20.7983C6.30366 20.4081 5.75932 20.1904 5.19353 20.1883Z" fill="#211E1F"/>
<path d="M38.7152 56.3779C38.7152 56.3371 38.7265 56.2971 38.7479 56.2625C38.7692 56.2279 38.7997 56.2001 38.8359 56.1823C38.8721 56.1645 38.9126 56.1573 38.9526 56.1617C38.9926 56.1661 39.0306 56.1819 39.0622 56.2071C39.7102 56.7246 41.3633 57.0921 45.4757 59.1259C49.1489 60.8187 53.2512 61.3072 57.211 60.5232C57.782 60.4464 58.3359 60.2714 58.8488 60.0056C58.8829 59.9829 58.9228 59.9708 58.9636 59.9708C59.0044 59.9708 59.0443 59.9829 59.0784 60.0056L59.2468 60.0988C59.2785 60.1149 59.3055 60.1391 59.3252 60.1691C59.3449 60.199 59.3566 60.2337 59.359 60.2696L59.5172 62.469C59.5224 62.5177 59.5117 62.5668 59.4866 62.6087C59.134 63.0178 58.6526 63.2903 58.1243 63.3798C56.8691 63.7317 51.0525 64.4511 47.0421 62.9503C43.0317 61.4495 42.9603 60.4507 40.2255 59.7935C38.8734 59.4674 38.6387 59.0327 38.6387 59.0327L38.7152 56.3779Z" fill="white"/>
<path d="M44.5322 51.6168C44.2224 51.6228 43.9158 51.5517 43.6393 51.4098C43.5487 51.3338 43.4867 51.2285 43.4638 51.1115C43.441 50.9945 43.4586 50.8731 43.5138 50.7679C43.569 50.6626 43.6584 50.5799 43.7668 50.5337C43.8752 50.4875 43.996 50.4807 44.1087 50.5145C44.3987 50.6229 44.7153 50.6338 45.0118 50.5455C45.4501 50.4512 45.8827 50.3319 46.3078 50.1885C46.4886 50.14 46.6607 50.0632 46.8181 49.9608C46.9241 49.9079 47.0449 49.8941 47.16 49.9215C47.275 49.949 47.377 50.0161 47.4487 50.1114C47.5203 50.2067 47.5572 50.3242 47.5529 50.444C47.5486 50.5638 47.5035 50.6783 47.4252 50.7681C47.1738 50.9435 46.894 51.0731 46.5987 51.151C46.1363 51.3053 45.6662 51.4348 45.1904 51.5392C44.9741 51.5873 44.7536 51.6133 44.5322 51.6168V51.6168Z" fill="white"/>
<path d="M44.4548 54.4734C44.3497 54.4651 44.2498 54.424 44.1687 54.3557C44.0876 54.2874 44.0293 54.1953 44.0019 54.092C43.9745 53.9888 43.9793 53.8795 44.0156 53.7791C44.052 53.6788 44.1181 53.5923 44.2048 53.5316C45.5055 52.7837 46.9139 52.2476 48.3785 51.9428C48.4939 51.9456 48.605 51.9881 48.6936 52.0633C48.7822 52.1384 48.843 52.2419 48.8661 52.3566C48.8892 52.4714 48.8733 52.5908 48.8208 52.6951C48.7684 52.7995 48.6826 52.8828 48.5775 52.9313C47.2162 53.2147 45.9075 53.7142 44.6997 54.4113C44.6245 54.4525 44.5403 54.4739 44.4548 54.4734Z" fill="white"/>
<path d="M45.71 56.678C45.6042 56.6789 45.5008 56.6463 45.4141 56.5849C45.3094 56.5036 45.2397 56.3844 45.2198 56.2523C45.1998 56.1201 45.231 55.9852 45.3069 55.8759C45.8096 55.1848 46.4666 54.6243 47.2239 54.2402C47.9813 53.8561 48.8175 53.6594 49.6643 53.6661C49.7996 53.6661 49.9294 53.7206 50.0251 53.8177C50.1207 53.9148 50.1745 54.0464 50.1745 54.1836C50.1745 54.3209 50.1207 54.4525 50.0251 54.5496C49.9294 54.6466 49.7996 54.7011 49.6643 54.7011H49.6081C48.9292 54.707 48.2609 54.8721 47.6554 55.1836C47.0499 55.4952 46.5238 55.9447 46.1182 56.4969C46.0681 56.5564 46.0053 56.6037 45.9346 56.6351C45.8639 56.6664 45.7871 56.6811 45.71 56.678Z" fill="white"/>
<path d="M47.5932 58.2772C47.5038 58.2778 47.4159 58.2546 47.3381 58.2099C47.2258 58.14 47.1446 58.0288 47.1113 57.8996C47.078 57.7703 47.0953 57.633 47.1595 57.5164C47.5736 56.8141 48.1433 56.2193 48.8235 55.7791C49.5037 55.339 50.2756 55.0656 51.0781 54.9806C51.2078 54.9716 51.336 55.0132 51.4366 55.0969C51.5371 55.1806 51.6023 55.3 51.6189 55.4308C51.6291 55.5633 51.5887 55.6947 51.5061 55.7977C51.4235 55.9008 51.3049 55.9677 51.175 55.9846C50.5267 56.0565 49.904 56.2811 49.3565 56.6405C48.809 56.9999 48.352 57.4842 48.0218 58.0546C47.9739 58.1246 47.9098 58.1816 47.835 58.2204C47.7602 58.2592 47.6772 58.2787 47.5932 58.2772Z" fill="white"/>
<path d="M49.5579 59.6848C49.484 59.6852 49.4108 59.6693 49.3436 59.6382C49.2255 59.578 49.1351 59.4737 49.0913 59.3473C49.0475 59.2208 49.0538 59.0821 49.1089 58.9603C49.4384 58.275 49.9274 57.6813 50.5336 57.2305C51.1399 56.7797 51.8452 56.4853 52.5886 56.3727C52.7194 56.3562 52.8515 56.3918 52.9571 56.4718C53.0626 56.5519 53.1336 56.6703 53.155 56.8023C53.1712 56.9349 53.1362 57.0689 53.0573 57.176C52.9783 57.283 52.8616 57.355 52.7315 57.3767C52.1502 57.4685 51.5993 57.7007 51.1251 58.0538C50.6509 58.4069 50.2674 58.8704 50.0069 59.4053C49.9642 59.4889 49.8998 59.5591 49.8207 59.6084C49.7416 59.6576 49.6507 59.684 49.5579 59.6848Z" fill="white"/>
<path fill-rule="evenodd" clip-rule="evenodd" d="M35.5781 65.0203C35.4913 67.0593 33.9453 68.0374 30.986 67.9235L30.9962 67.9391C27.5675 67.789 26.8379 65.9777 26.3276 63.799C26.2804 63.6014 26.2463 63.4009 26.2256 63.1987C26.9807 64.7357 28.3685 65.3722 30.7105 65.4654C33.0524 65.5585 34.5933 65.16 35.4403 64.2233C35.5188 64.4821 35.565 64.7499 35.5781 65.0203Z" fill="white"/>
<path d="M30.302 52.0308C29.8943 52.0253 29.4873 51.9976 29.0825 51.948C28.4936 51.9301 27.9263 51.7196 27.4651 51.3477C27.3988 51.3096 27.3418 51.2571 27.2981 51.1938C27.2545 51.1305 27.2254 51.058 27.2129 50.9818C27.2005 50.9057 27.205 50.8276 27.2261 50.7534C27.2473 50.6792 27.2846 50.6107 27.3352 50.5531C27.3859 50.4954 27.4486 50.4499 27.5188 50.42C27.589 50.3901 27.6649 50.3766 27.741 50.3803C27.8171 50.384 27.8913 50.405 27.9584 50.4417C28.0254 50.4783 28.0835 50.5297 28.1284 50.5921C28.4348 50.8162 28.8018 50.9391 29.1795 50.944C29.8039 51.0266 30.4355 51.037 31.0622 50.9751C31.8123 50.913 32.5164 50.8509 33.0521 50.3592C33.0948 50.2935 33.1517 50.2384 33.2185 50.1984C33.2853 50.1583 33.3603 50.1342 33.4376 50.1279C33.515 50.1217 33.5928 50.1334 33.665 50.1622C33.7373 50.191 33.8021 50.2362 33.8545 50.2942C33.9069 50.3523 33.9456 50.4217 33.9676 50.4972C33.9896 50.5727 33.9943 50.6523 33.9814 50.7299C33.9685 50.8076 33.9382 50.8812 33.893 50.9452C33.8478 51.0092 33.7888 51.0619 33.7205 51.0993C32.9921 51.6751 32.0928 51.9834 31.1694 51.9739C30.8122 52.0153 30.5469 52.0308 30.302 52.0308Z" fill="white"/>
<path d="M27.8128 54.2871C27.7144 54.285 27.6187 54.2541 27.5372 54.1981C27.4558 54.1421 27.392 54.0634 27.3536 53.9714C27.306 53.8463 27.3081 53.7074 27.3595 53.5838C27.4109 53.4602 27.5075 53.3617 27.6291 53.309C29.56 52.7551 31.5948 52.6858 33.558 53.1072C33.6651 53.1591 33.7511 53.2473 33.801 53.3566C33.851 53.4659 33.8618 53.5894 33.8315 53.7059C33.8013 53.8224 33.732 53.9245 33.6355 53.9947C33.539 54.0649 33.4213 54.0988 33.3029 54.0905C31.5477 53.7231 29.7321 53.7781 28.0016 54.2509C27.9417 54.2758 27.8775 54.2881 27.8128 54.2871V54.2871Z" fill="white"/>
<path d="M27.8021 56.5279C27.6933 56.5184 27.5904 56.4736 27.5085 56.4003C27.4266 56.327 27.3701 56.229 27.3472 56.1206C27.3244 56.0123 27.3364 55.8994 27.3816 55.7985C27.4267 55.6976 27.5026 55.6141 27.598 55.5602C29.5028 54.7426 31.6363 54.658 33.5983 55.3222C33.7225 55.3669 33.8249 55.4587 33.8839 55.5784C33.9429 55.698 33.9539 55.8362 33.9146 55.9639C33.8687 56.0823 33.7815 56.1794 33.6695 56.2367C33.5575 56.2939 33.4286 56.3074 33.3074 56.2744C31.582 55.6875 29.705 55.7574 28.0266 56.471C27.9575 56.5085 27.8804 56.5281 27.8021 56.5279Z" fill="white"/>
<path d="M28.1342 58.9292C28.0313 58.9226 27.9329 58.8846 27.8518 58.8201C27.7707 58.7556 27.7107 58.6678 27.6798 58.5681C27.6488 58.4683 27.6484 58.3615 27.6785 58.2615C27.7086 58.1616 27.7679 58.0732 27.8485 58.008C28.6846 57.4383 29.6539 57.1021 30.6589 57.033C31.6638 56.964 32.669 57.1646 33.5732 57.6147C33.6469 57.6345 33.7152 57.6708 33.7733 57.7209C33.8313 57.771 33.8775 57.8336 33.9086 57.9042C33.9396 57.9748 33.9547 58.0515 33.9527 58.1288C33.9506 58.206 33.9316 58.2819 33.8969 58.3507C33.8622 58.4195 33.8127 58.4795 33.7521 58.5264C33.6915 58.5733 33.6214 58.6058 33.5468 58.6216C33.4722 58.6374 33.3951 58.636 33.3211 58.6176C33.247 58.5992 33.178 58.5642 33.1191 58.5152C32.3766 58.1464 31.5513 57.9823 30.7264 58.0395C29.9016 58.0968 29.106 58.3733 28.4199 58.8412C28.3355 58.8988 28.236 58.9294 28.1342 58.9292V58.9292Z" fill="white"/>
<path d="M27.537 61.7031C27.4106 61.7027 27.2887 61.6548 27.1952 61.5685C27.1012 61.4756 27.0461 61.3496 27.0414 61.2166C27.0366 61.0836 27.0825 60.9539 27.1696 60.8543C28.0749 59.9647 29.2638 59.4324 30.5218 59.3536C32.1035 59.1776 33.4403 59.5502 34.2873 60.3886C34.351 60.4301 34.4048 60.4855 34.4448 60.5508C34.4848 60.616 34.5099 60.6895 34.5185 60.7658C34.527 60.8422 34.5186 60.9195 34.494 60.9921C34.4694 61.0648 34.4291 61.131 34.3761 61.1859C34.3231 61.2408 34.2588 61.2831 34.1877 61.3096C34.1166 61.3361 34.0406 61.3463 33.9652 61.3393C33.8897 61.3323 33.8168 61.3084 33.7516 61.2693C33.6864 61.2302 33.6306 61.1768 33.5883 61.1131C32.7413 60.2696 31.3688 60.2799 30.629 60.3627C29.6127 60.4207 28.6486 60.8383 27.9044 61.5426C27.8569 61.5931 27.8 61.6333 27.7368 61.6609C27.6737 61.6885 27.6057 61.7028 27.537 61.7031V61.7031Z" fill="white"/>
<path d="M15.4951 33.7692L15.7249 35.7861C15.7249 35.7861 25.1845 41.4529 42.1241 41.1217C55.2879 40.8629 57.5891 37.8924 57.7523 35.6619C57.8136 34.8132 57.8442 34.1611 57.8595 33.6799C57.8706 33.3629 57.7758 33.0515 57.5906 32.796C57.483 32.6476 57.3486 32.5231 57.1957 32.4284C57.0749 32.9985 56.8518 33.5368 56.5074 34.0007C56.3502 34.2238 56.1376 34.4007 55.8911 34.5135C55.6447 34.6262 55.3732 34.6707 55.1042 34.6424C54.7105 34.5616 54.3579 34.3415 54.1093 34.0214C53.5824 34.567 52.8645 34.8796 52.1116 34.8912C51.3587 34.9029 50.6317 34.6126 50.0887 34.0835C49.649 34.7703 49.0632 35.3486 48.3743 35.7758C47.7799 36.0615 47.11 36.1433 46.4657 36.0089C45.8214 35.8745 45.2377 35.5311 44.8028 35.0306C44.6793 34.8814 44.5635 34.726 44.4558 34.5648C44.2906 34.8484 44.0881 35.1078 43.8537 35.3359C43.5326 35.6553 43.1495 35.9035 42.7288 36.0647C42.3081 36.226 41.8589 36.2968 41.4097 36.2726C40.3281 36.1691 39.4301 35.2427 38.8892 34.5389C38.5818 35.0557 38.1519 35.4865 37.6387 35.7919C37.1254 36.0974 36.5451 36.268 35.9503 36.2881H35.7819C34.5421 36.226 33.8737 35.1392 33.3583 34.1456C32.9132 34.5917 32.3794 34.9365 31.7926 35.1569C31.2058 35.3773 30.5794 35.4683 29.9551 35.4239C28.6949 35.3307 27.5622 34.3526 26.8223 33.2607C25.9345 34.6062 24.9957 34.6787 24.3222 34.4509C23.7258 34.1415 23.2034 33.7035 22.7915 33.1675C22.653 33.4332 22.4413 33.6524 22.1823 33.7985C21.9232 33.9446 21.6279 34.0112 21.3323 33.9904C21.0806 33.9281 20.8457 33.8099 20.6445 33.6443C20.4433 33.4787 20.2809 33.2699 20.169 33.033C19.9658 33.329 19.697 33.5726 19.3842 33.7443C19.0714 33.916 18.7233 34.0109 18.3679 34.0214C18.0989 34.0061 17.8361 33.9331 17.5969 33.8073C17.3577 33.6815 17.1475 33.5058 16.98 33.2917C16.7819 33.4716 16.5487 33.6074 16.2956 33.6903C16.0425 33.7732 15.7751 33.8014 15.5106 33.773C15.5054 33.7718 15.5003 33.7705 15.4951 33.7692Z" fill="#EC3627"/>
<path d="M13.4087 17.8476L13.3421 15.7015C13.3115 14.8994 13.4748 14.237 14.832 13.8385C21.5328 11.3911 28.5 9.77169 35.5829 9.01527C47.3743 7.70597 54.6297 8.38908 56.2778 8.61161C57.7938 8.81632 57.7857 10.3173 57.7747 12.3612C57.7737 12.5392 57.7727 12.7212 57.7727 12.907C57.7727 13.797 57.8614 14.4917 57.9367 15.0812C58.0407 15.8956 58.119 16.509 57.9021 17.1583C57.9428 16.1544 57.823 15.1193 57.339 14.4251C57.1676 14.1719 56.9396 13.9635 56.6735 13.8169C56.4075 13.6703 56.111 13.5896 55.8084 13.5815H55.7573C55.3924 13.5795 55.0324 13.6664 54.7074 13.8348C54.3825 14.0032 54.1021 14.2482 53.8899 14.5493C53.268 14.0905 52.5209 13.8392 51.752 13.8299C51.6297 13.8222 51.507 13.8222 51.3847 13.8299C50.5747 13.9256 49.8263 14.3153 49.2774 14.927C48.864 14.2883 48.3019 13.7625 47.6408 13.3961C46.9796 13.0297 46.2398 12.8339 45.4865 12.8259H45.1905L45.1956 12.8052C44.4844 12.7843 43.7795 12.9466 43.1469 13.2769C42.5143 13.6073 41.9745 14.0949 41.5781 14.6942C41.1434 14.164 40.5967 13.7399 39.9784 13.4533C39.3601 13.1666 38.6862 13.0247 38.0065 13.0381H37.9555C36.1238 13.0381 34.5982 14.1508 33.5777 16.1432C32.7112 15.3344 31.5766 14.8856 30.399 14.8856H30.297C29.6303 14.8763 28.9716 15.0328 28.3784 15.3413C27.7851 15.6498 27.2754 16.1011 26.8938 16.6555C26.5696 16.2439 26.1634 15.9062 25.7019 15.6646C25.2403 15.4229 24.7337 15.2827 24.2151 15.2531H24.1232C22.6997 15.2531 21.8527 16.1691 21.3833 17.2714C20.9587 16.9319 20.4388 16.738 19.8985 16.7176C19.817 16.7125 19.7352 16.7125 19.6536 16.7176C19.355 16.7515 19.0669 16.8492 18.8083 17.0045C18.5497 17.1597 18.3265 17.3689 18.1536 17.6181C18.0626 17.7418 17.9856 17.8755 17.924 18.0166C17.601 17.8333 17.2378 17.7354 16.8678 17.732C16.7743 17.7268 16.6806 17.7268 16.5872 17.732C16.1474 17.8183 15.7578 18.0743 15.5004 18.4461C15.0847 18.0437 14.543 17.8019 13.9697 17.763H13.9187C13.7447 17.7617 13.5723 17.7904 13.4087 17.8476Z" fill="#EC3627"/>
<path d="M49.3841 29.2344C49.416 29.2927 49.4573 29.3448 49.506 29.3885C49.6634 30.0899 49.7445 30.8087 49.7464 31.5322L50.3331 31.5943C50.5252 30.6846 50.5999 29.7562 50.5573 28.8322C50.66 28.6383 50.8028 28.4677 50.9773 28.3327C51.2382 28.1307 51.5562 28.0192 51.8844 28.0146C52.2126 28.0099 52.5336 28.1124 52.8 28.3069C53.0664 28.5014 53.2641 28.7776 53.3639 29.0947C53.3945 29.1679 53.4393 29.2333 53.4948 29.2874C53.6652 29.9056 53.7738 30.5414 53.818 31.1854H54.415C54.5346 30.3402 54.5524 29.4857 54.4698 28.6407C54.5079 28.527 54.5792 28.427 54.6752 28.3547C55.0732 28.3961 55.1956 28.4426 55.2977 28.5875C56.1651 29.8192 56.4865 32.06 55.5528 33.3124C55.5199 33.3662 55.4751 33.4115 55.4219 33.4447C55.3688 33.4779 55.3088 33.4982 55.2466 33.5039C55.1223 33.4153 55.0183 33.3006 54.9417 33.1675C54.8651 33.0344 54.8177 32.8862 54.8027 32.7328C54.8239 32.5867 54.7897 32.4379 54.7072 32.3163C54.6246 32.1947 54.4998 32.1092 54.3576 32.0771C54.2155 32.045 54.0667 32.0686 53.9411 32.1432C53.8154 32.2178 53.7222 32.3378 53.6802 32.4792C53.5884 32.8267 53.3873 33.1342 53.1073 33.3551C52.8273 33.5759 52.4839 33.698 52.1293 33.7026C51.7747 33.7073 51.4282 33.5944 51.1427 33.381C50.8572 33.1677 50.6481 32.8656 50.5474 32.5206C50.5101 32.3778 50.4195 32.2554 50.2948 32.1791C50.1701 32.1028 50.021 32.0787 49.8791 32.1118C49.7323 32.1477 49.6043 32.2386 49.521 32.3663C49.4377 32.4941 49.4052 32.649 49.43 32.8001C49.4658 33.1468 48.4504 34.4303 47.8994 34.6994C47.5281 34.8748 47.111 34.9247 46.7097 34.8418C46.3083 34.7589 45.9438 34.5475 45.6697 34.2388C45.317 33.8255 45.056 33.3401 44.9043 32.8156C44.899 32.6623 44.8345 32.5173 44.7248 32.4118C44.615 32.3063 44.4688 32.2487 44.3176 32.2515C44.2423 32.2529 44.1681 32.2694 44.0992 32.3002C44.0303 32.3309 43.9681 32.3753 43.9164 32.4307C43.8646 32.4861 43.8242 32.5514 43.7976 32.6229C43.771 32.6943 43.7587 32.7704 43.7614 32.8467C43.7625 33.1519 43.7008 33.454 43.5805 33.7338C43.4602 34.0135 43.2837 34.2648 43.0624 34.4717C42.8589 34.6802 42.614 34.8426 42.344 34.9478C42.0739 35.0531 41.7849 35.099 41.496 35.0823C40.6031 35.0202 39.6337 33.6126 39.3633 33.0951C39.311 32.9965 39.2314 32.9157 39.1345 32.8623C39.0375 32.809 38.9273 32.7856 38.8173 32.7949C38.7047 32.7987 38.5958 32.8367 38.5048 32.9041C38.4138 32.9715 38.3449 33.0651 38.3071 33.1727C38.3069 33.173 38.3063 33.1742 38.3055 33.1762L38.3013 33.1862C38.228 33.362 37.4663 35.188 35.8427 35.1237C35.1407 35.0879 34.6636 34.1545 34.2384 33.3225L34.2253 33.2969C34.1914 33.2322 34.1582 33.1674 34.1256 33.1036C34.0747 33.0042 34.025 32.907 33.9753 32.8156C33.9256 32.7229 33.8517 32.6458 33.7617 32.5928C33.6717 32.5399 33.5691 32.5131 33.465 32.5155C33.3706 32.5163 33.2778 32.5408 33.195 32.5868C33.1122 32.6329 33.0419 32.6991 32.9905 32.7794C32.6688 33.2642 32.2282 33.6557 31.7119 33.9152C31.1957 34.1748 30.6217 34.2934 30.0465 34.2595C28.9546 34.1767 27.8525 32.945 27.3423 31.8272C27.2991 31.7257 27.228 31.6391 27.1375 31.5776C27.047 31.5161 26.941 31.4823 26.8321 31.4804C26.7243 31.4843 26.6196 31.5182 26.5296 31.5785C26.4396 31.6388 26.3677 31.723 26.3218 31.822C25.7861 33.0071 25.2198 33.5194 24.7095 33.3383C24.1273 32.9096 23.6202 32.3848 23.2095 31.7858C23.1501 31.7077 23.0721 31.6463 22.9828 31.6074C22.8935 31.5685 22.7959 31.5533 22.6992 31.5632C22.6001 31.575 22.5056 31.6126 22.4252 31.6725C22.3447 31.7324 22.2809 31.8124 22.24 31.9048C22.0977 32.2607 21.88 32.5805 21.6022 32.8415C21.4186 32.8104 21.1226 32.4637 20.9083 31.6098C20.8788 31.4923 20.8137 31.3872 20.7221 31.3092C20.6306 31.2312 20.5173 31.1843 20.3981 31.1751C20.2818 31.1614 20.1641 31.185 20.0616 31.2425C19.9591 31.3001 19.877 31.3887 19.8266 31.496C19.5001 32.1584 18.9491 32.8881 18.4388 32.8415C18.267 32.8201 18.1045 32.7507 17.9694 32.641C17.8342 32.5314 17.7318 32.3858 17.6735 32.2205C17.6441 32.1253 17.5904 32.0397 17.5178 31.9724C17.4452 31.9051 17.3563 31.8586 17.2602 31.8375C17.1645 31.8149 17.0646 31.8173 16.9701 31.8445C16.8755 31.8716 16.7892 31.9227 16.7194 31.9928C16.4623 32.2796 16.1449 32.5043 15.7907 32.65L15.7847 32.6483C15.6062 32.5966 15.3435 32.5207 15.4999 31.615C15.602 30.9992 15.6836 30.3678 15.7601 29.7623C15.8009 29.4415 15.8418 29.1206 15.8877 28.7997C15.9204 28.3522 16.0364 27.9149 16.2295 27.5111C16.2929 27.3861 16.3875 27.2801 16.5039 27.2038C16.6203 27.1275 16.7544 27.0836 16.8928 27.0764C17.043 27.2524 17.1618 27.4528 17.2445 27.6687C17.2049 27.8594 17.1744 28.0521 17.1531 28.246C17.0718 28.9605 17.0513 29.6808 17.0918 30.3988L17.6786 30.4195C17.7925 29.7622 17.9633 29.1162 18.1888 28.4892C18.2643 28.2708 18.3556 28.0584 18.4618 27.8538C18.6787 27.5617 18.9761 27.2834 19.1276 27.2834C19.3474 27.2932 19.5599 27.366 19.7405 27.4933C19.9211 27.6206 20.0624 27.7973 20.1481 28.0028C20.1649 28.0463 20.1867 28.0873 20.2129 28.125C20.2098 28.1688 20.2069 28.2125 20.2042 28.2563C20.1583 28.9352 20.1583 29.6165 20.2042 30.2953H20.7961C20.907 29.6661 21.0604 29.0453 21.2553 28.4375C21.364 28.0806 21.4878 27.7288 21.6265 27.3831C21.8063 27.2562 22.0206 27.1887 22.24 27.1903C22.4652 27.2043 22.6805 27.2891 22.856 27.4328C22.951 27.5106 23.0318 27.6035 23.0956 27.7073C22.976 28.5985 22.9236 29.4983 22.939 30.3988L23.536 30.4144C23.6708 29.8213 23.8412 29.2372 24.0462 28.6652C24.0923 28.531 24.1404 28.3976 24.1904 28.2649C24.548 27.899 24.9588 27.5907 25.4085 27.3507C25.5854 27.2521 25.7821 27.1957 25.9837 27.1858C26.1853 27.176 26.3865 27.2129 26.5719 27.2938C26.7964 27.4387 27.0055 27.9976 26.9698 28.8463C26.9621 28.9849 27.0036 29.1218 27.087 29.232C27.1703 29.3422 27.2899 29.4183 27.4239 29.4466C27.5532 29.4788 27.6895 29.4637 27.809 29.4041C27.9284 29.3445 28.0233 29.2441 28.077 29.1206C28.4597 28.2563 29.6179 27.92 30.5414 27.92C31.7609 27.9614 32.6283 28.277 32.8987 29.695C32.9236 29.8275 32.9933 29.947 33.0957 30.0329C33.1982 30.1189 33.327 30.1659 33.4599 30.166C33.5936 30.1657 33.723 30.1179 33.8255 30.031C33.9281 29.944 33.9973 29.8233 34.0212 29.6898C34.0786 29.3166 34.2134 28.9599 34.4165 28.6432C34.6196 28.3266 34.8866 28.0572 35.1998 27.8527C35.5315 27.6974 37.1183 27.9769 37.654 28.2149C37.8338 28.2923 37.9928 28.412 38.1179 28.5641C38.243 28.7162 38.3306 28.8963 38.3734 29.0895C38.4041 29.1961 38.464 29.2917 38.5462 29.365C38.6285 29.4383 38.7296 29.4864 38.8377 29.5035C38.946 29.519 39.0565 29.5035 39.1566 29.4587C39.2566 29.4139 39.3424 29.3416 39.4041 29.25C39.4745 29.1429 39.5388 29.0358 39.6018 28.9311L39.6025 28.9299C39.6215 28.8984 39.6403 28.867 39.6592 28.836C39.8267 28.4978 40.0653 28.201 40.3582 27.9665C40.7747 27.6556 41.286 27.5035 41.8021 27.537C42.2988 27.5902 42.7654 27.8041 43.1329 28.1471C43.5005 28.4901 43.7494 28.9439 43.8431 29.4414C43.8625 29.5687 43.9231 29.6857 44.0153 29.7741C44.1075 29.8626 44.2262 29.9173 44.3525 29.9298C44.4788 29.9422 44.6056 29.9117 44.713 29.8429C44.8203 29.7742 44.902 29.6712 44.9451 29.5501C45.1106 29.1057 45.3983 28.7188 45.774 28.4352C46.1497 28.1516 46.5977 27.9832 47.0649 27.9499C47.5321 27.9167 47.9989 28.0201 48.41 28.2477C48.821 28.4754 49.1591 28.8178 49.3841 29.2344Z" fill="white"/>
<path d="M47.0063 14.425C46.5331 14.1899 46.01 14.0656 45.4761 14.0662C43.1699 13.942 42.3025 15.6187 41.9759 16.7624C41.9631 16.8196 41.9322 16.871 41.8879 16.9088C41.8436 16.9465 41.7883 16.9685 41.7305 16.9714C41.6727 16.9744 41.6156 16.9581 41.5678 16.925C41.5342 16.9018 41.5065 16.8712 41.4866 16.8357C41.4646 16.8114 41.4471 16.7831 41.4351 16.7521C41.2334 16.2517 40.9148 15.6609 40.4158 15.1793C40.3303 15.1038 40.2411 15.0322 40.1484 14.9649C39.5287 14.5152 38.7835 14.2783 38.0217 14.2887C35.8838 14.2887 34.7715 16.3122 34.2613 17.6732C34.222 17.7523 34.1633 17.8199 34.0909 17.8694C34.0184 17.9189 33.9347 17.9487 33.8476 17.9559C33.7606 17.9632 33.6732 17.9477 33.5937 17.9109C33.5557 17.8933 33.5202 17.8711 33.4878 17.8449C33.4388 17.8079 33.3966 17.762 33.3633 17.7095C33.2829 17.583 33.1948 17.4624 33.0997 17.3482C32.8242 17.0266 32.4922 16.7578 32.1191 16.5562C31.6012 16.2763 31.0213 16.1353 30.4346 16.1466C29.7858 16.1331 29.149 16.3253 28.613 16.6963C28.2475 16.9494 27.9412 17.2772 27.7124 17.656C27.7572 18.7918 27.8224 19.9285 27.9702 21.0733L27.3936 21.2285C26.9671 20.1102 26.6254 18.9838 26.3037 17.8345C26.2255 17.7183 26.1402 17.6032 26.0476 17.4922C25.6114 16.9825 25.0166 16.5663 24.2251 16.5347C23.2468 16.4851 22.7013 17.1797 22.3973 17.9494C22.4382 19.2029 22.5007 20.4568 22.6638 21.7253L22.0873 21.8806C21.6929 20.8466 21.371 19.8021 21.0705 18.7443C20.6966 18.3433 20.2463 17.9941 19.8117 17.9941H19.7096C19.6354 18.0037 19.5662 18.0196 19.5016 18.0414C19.2297 18.153 19.0467 18.3674 18.9262 18.6311C19.0246 20.0177 19.1312 21.421 19.3269 22.7862L18.7504 22.9415C18.3204 21.7638 17.9556 20.5825 17.6041 19.3913C17.3492 19.1717 17.0685 19.0188 16.7809 19.0188H16.6762C16.611 19.0409 16.5482 19.0815 16.4881 19.1359C16.3891 19.8398 16.305 20.5675 16.2452 21.2803C16.1774 22.0079 16.1603 22.7394 16.1941 23.4694L15.6125 23.5884C15.4161 22.8408 15.2729 22.0798 15.1839 21.3113C15.119 20.7984 15.0655 20.2925 15.0219 19.781C14.7373 19.4172 14.372 19.0815 13.9622 19.0147C13.9477 19.014 13.9331 19.0136 13.9185 19.0136C12.8981 19.0136 13.2859 22.3205 13.7195 24.287C13.9848 25.4899 14.735 26.3269 15.4201 26.4023C15.4367 26.4032 15.4532 26.4036 15.4696 26.4036C15.8676 26.4036 16.2299 26.1345 16.4544 25.5187C16.4669 25.5322 16.4796 25.5454 16.4926 25.5583C16.4969 25.547 16.5012 25.5355 16.5054 25.5239C16.957 25.9673 17.4682 26.0143 17.94 25.8901C18.7726 25.6538 19.4698 24.8873 19.4698 24.8873C19.4766 24.8947 19.4834 24.902 19.4903 24.9092C19.5169 24.8821 19.531 24.8666 19.531 24.8666C19.531 24.8666 20.4852 25.9017 21.4291 25.5912C21.4502 25.5839 21.471 25.5763 21.4914 25.5684C22.4856 25.1464 22.7608 23.9144 22.7608 23.9144C22.7608 23.9144 22.7696 23.9399 22.7877 23.984C22.8044 23.9268 22.8118 23.8937 22.8118 23.8937C22.8118 23.8937 23.322 25.3479 24.4802 25.291C24.58 25.2857 24.6898 25.282 24.8065 25.2782C24.9992 25.2718 25.2106 25.2648 25.4267 25.2485C26.2094 25.1757 27.0385 24.9825 27.2508 24.2767C27.2881 24.1276 27.3103 23.975 27.3171 23.8213C27.3322 23.695 27.3925 23.5788 27.4866 23.4949C27.5807 23.4109 27.702 23.3649 27.8273 23.3659C27.8692 23.3656 27.9108 23.371 27.951 23.3818C27.9663 23.3843 27.9816 23.3875 27.9967 23.3914C28.0875 23.415 28.1701 23.4634 28.2355 23.5315C28.4664 23.8389 28.7607 24.0914 29.0978 24.2715C29.495 24.4114 29.9107 24.4826 30.3276 24.4839C30.5284 24.4758 30.7288 24.4603 30.9285 24.4371C30.9851 24.4281 31.0416 24.4177 31.0979 24.4061C31.7015 24.3919 32.2901 24.2131 32.8021 23.8886C32.9336 23.7714 33.0553 23.6447 33.1665 23.5098C33.5145 23.0805 33.7565 22.5698 33.8684 22.0203C33.8801 21.966 33.9098 21.9174 33.9525 21.8826C33.9629 21.874 33.974 21.8664 33.9857 21.8598C34.0202 21.8367 34.0602 21.8229 34.1019 21.8201C34.1536 21.8166 34.205 21.8302 34.2485 21.8588C34.2919 21.8874 34.3251 21.9296 34.3429 21.9789C34.5489 22.5118 34.8677 22.9923 35.2767 23.3866C35.2866 23.396 35.2966 23.4054 35.3066 23.4147C35.5727 23.6532 35.8681 23.8502 36.1833 24.0024C37.5737 24.6427 39.2954 24.299 40.7616 23.9041C41.0576 23.8069 41.3245 23.6354 41.5377 23.4056C41.7509 23.1758 41.9034 22.8951 41.9811 22.5896C41.9932 22.5321 42.0236 22.4803 42.0676 22.442C42.1116 22.4037 42.1667 22.3811 42.2245 22.3776C42.2824 22.3741 42.3398 22.3898 42.3879 22.4225C42.4361 22.4552 42.4724 22.503 42.4913 22.5585C42.4917 22.5598 42.4922 22.561 42.4927 22.5622C42.6361 22.9335 42.8867 23.2524 43.2116 23.477C43.5377 23.7024 43.9233 23.8224 44.3179 23.8213C44.5791 23.8131 44.8379 23.8195 45.0939 23.8258C45.1804 23.8279 45.2666 23.8301 45.3524 23.8316H45.5527C45.5637 23.8325 45.5748 23.8333 45.5858 23.834C45.8865 23.8342 46.1825 23.8207 46.4731 23.7687C46.8705 23.6826 47.2511 23.5205 47.5936 23.2882C48.0683 22.9146 48.4263 22.4095 48.6242 21.834C48.6427 21.7809 48.6774 21.7352 48.7233 21.7036C48.7571 21.6803 48.7956 21.6655 48.8357 21.6601C48.8658 21.6467 48.8982 21.6388 48.9315 21.6371C48.9876 21.6342 49.0432 21.6492 49.0905 21.6798C49.1378 21.7105 49.1746 21.7553 49.1957 21.8082C49.5579 22.543 50.1651 23.3607 50.6243 23.5108C50.9778 23.5979 51.3376 23.6465 51.6978 23.6568C51.7091 23.6565 51.7203 23.6561 51.7315 23.6557C51.7599 23.657 51.7882 23.658 51.8165 23.6588C52.1381 23.6605 52.4595 23.6317 52.7764 23.5727C52.9969 23.5267 53.214 23.4629 53.4255 23.3814C53.726 23.1617 53.9565 22.8577 54.0888 22.5068C54.1052 22.4674 54.133 22.434 54.1685 22.4109C54.204 22.3878 54.2456 22.3761 54.2877 22.3774C54.3008 22.3771 54.3138 22.3779 54.3267 22.3799C54.3315 22.379 54.3364 22.3782 54.3414 22.3776C54.3791 22.3729 54.4174 22.3781 54.4526 22.3925C54.4879 22.407 54.5189 22.4303 54.5429 22.4602C54.6868 22.645 54.8577 22.8065 55.0496 22.9391C55.4021 22.8641 55.9346 21.0315 56.3644 19.5414C56.7841 18.0861 57.1198 15.1106 55.9513 14.8096C55.9215 14.8051 55.8908 14.8022 55.8592 14.8011C55.4382 14.7851 55.1356 14.965 54.9186 15.2216C55.1502 15.9094 55.2469 16.6386 55.2011 17.3679C55.1356 18.222 54.9817 19.0668 54.7418 19.8882L54.1602 19.7899C54.2396 18.9984 54.2396 18.2008 54.1602 17.4093C54.0978 16.9035 53.9442 16.4155 53.7087 15.9692C53.375 15.622 52.9058 15.2573 52.3169 15.1061C52.0802 15.0515 51.8251 15.0312 51.5529 15.0598C50.4763 15.1737 49.7773 16.1673 49.3896 16.9332C49.3663 16.9856 49.3274 17.0293 49.2783 17.058C49.2292 17.0868 49.1725 17.0992 49.1161 17.0935C49.0656 17.0883 49.0176 17.0689 48.9776 17.0376C48.9585 17.0286 48.9404 17.0175 48.9236 17.0041C48.8765 16.9667 48.843 16.9144 48.8283 16.8556C48.6682 16.0602 48.242 15.3454 47.6217 14.8323C47.4302 14.6738 47.2237 14.5376 47.0063 14.425Z" fill="white"/>
<path d="M40.4252 19.4459C40.4705 18.235 39.8018 17.2262 38.9317 17.1927C38.0616 17.1593 37.3195 18.1139 37.2743 19.3248C37.2291 20.5358 37.8977 21.5446 38.7679 21.5781C39.638 21.6115 40.38 20.6569 40.4252 19.4459Z" fill="#211E1F"/>
<path d="M47.4575 19.2684C47.5027 18.0574 46.834 17.0486 45.9639 17.0152C45.0938 16.9818 44.3518 17.9363 44.3065 19.1473C44.2613 20.3583 44.93 21.3671 45.8001 21.4005C46.6702 21.434 47.4122 20.4794 47.4575 19.2684Z" fill="#211E1F"/>
</svg>
