<svg width="4741" height="140" viewBox="0 0 4741 140" fill="none" xmlns="http://www.w3.org/2000/svg">
<path fill-rule="evenodd" clip-rule="evenodd" d="M0 51.7768C197.002 17.023 230.065 21.2613 330.632 36.519C364.168 41.6069 391.423 48.8313 417.607 55.7719C469.945 69.6452 518.007 82.385 603.404 74.6634C652.42 70.2314 695.387 58.8516 739.556 47.1533C810.838 28.2742 885.251 8.56577 993.275 15.8928C1168.23 27.7599 1336.31 36.2365 1503 24.3693V40.3693C1336.31 52.2365 1168.23 43.7599 993.275 31.8928C885.251 24.5658 810.838 44.2742 739.556 63.1533C695.387 74.8516 652.42 86.2314 603.404 90.6634C518.007 98.385 469.945 85.6452 417.607 71.7719C391.423 64.8313 364.168 57.6069 330.632 52.519C230.065 37.2613 197.002 33.023 0 67.7768V51.7768Z" fill="#E9A17A"/>
<path fill-rule="evenodd" clip-rule="evenodd" d="M3122 51.7768C2909.79 17.023 2874.18 21.2613 2765.85 36.519C2729.73 41.6069 2700.37 48.8313 2672.16 55.7719C2615.78 69.6452 2564.01 82.385 2472.03 74.6634C2419.23 70.2314 2372.94 58.8516 2325.37 47.1533C2248.58 28.2742 2168.43 8.56577 2052.07 15.8928C1863.6 27.7599 1682.56 36.2365 1503 24.3693V40.3693C1682.56 52.2365 1863.6 43.7599 2052.07 31.8928C2168.43 24.5658 2248.58 44.2742 2325.37 63.1533C2372.94 74.8516 2419.23 86.2314 2472.03 90.6634C2564.01 98.385 2615.78 85.6452 2672.16 71.7719C2700.37 64.8313 2729.73 57.6069 2765.85 52.519C2874.18 37.2613 2909.79 33.023 3122 67.7768V51.7768Z" fill="#E9A17A"/>
<path fill-rule="evenodd" clip-rule="evenodd" d="M3122 51.7768C3334.21 17.023 3369.82 21.2613 3478.15 36.519C3514.27 41.6069 3543.63 48.8313 3571.84 55.7719C3628.22 69.6452 3679.99 82.385 3771.97 74.6634C3824.77 70.2314 3871.06 58.8516 3918.63 47.1533C3995.42 28.2742 4075.57 8.56577 4191.93 15.8928C4380.4 27.7599 4561.44 36.2365 4741 24.3693V40.3693C4561.44 52.2365 4380.4 43.7599 4191.93 31.8928C4075.57 24.5658 3995.42 44.2742 3918.63 63.1533C3871.06 74.8516 3824.77 86.2314 3771.97 90.6634C3679.99 98.385 3628.22 85.6452 3571.84 71.7719C3543.63 64.8313 3514.27 57.6069 3478.15 52.519C3369.82 37.2613 3334.21 33.023 3122 67.7768V51.7768Z" fill="#E9A17A"/>
<path fill-rule="evenodd" clip-rule="evenodd" d="M0 66.4511C197.002 31.6973 230.065 35.9356 330.632 51.1933C364.168 56.2812 391.423 63.5056 417.607 70.4462C469.945 84.3195 518.007 97.0593 603.404 89.3377C652.42 84.9057 695.387 73.5259 739.556 61.8276C810.838 42.9485 885.251 23.2401 993.275 30.5671C1168.23 42.4343 1336.31 50.9108 1503 39.0436V55.0436C1336.31 66.9108 1168.23 58.4343 993.275 46.5671C885.251 39.2401 810.838 58.9485 739.556 77.8276C695.387 89.5259 652.42 100.906 603.404 105.338C518.007 113.059 469.945 100.32 417.607 86.4462C391.423 79.5056 364.168 72.2812 330.632 67.1933C230.065 51.9356 197.002 47.6973 0 82.4511V66.4511Z" fill="#E2823F"/>
<path fill-rule="evenodd" clip-rule="evenodd" d="M3122 66.4511C2909.79 31.6973 2874.18 35.9356 2765.85 51.1933C2729.73 56.2812 2700.37 63.5056 2672.16 70.4462C2615.78 84.3195 2564.01 97.0593 2472.03 89.3377C2419.23 84.9057 2372.94 73.5259 2325.37 61.8276C2248.58 42.9485 2168.43 23.2401 2052.07 30.5671C1863.6 42.4343 1682.56 50.9108 1503 39.0436V55.0436C1682.56 66.9108 1863.6 58.4343 2052.07 46.5671C2168.43 39.2401 2248.58 58.9485 2325.37 77.8276C2372.94 89.5259 2419.23 100.906 2472.03 105.338C2564.01 113.059 2615.78 100.32 2672.16 86.4462C2700.37 79.5056 2729.73 72.2812 2765.85 67.1933C2874.18 51.9356 2909.79 47.6973 3122 82.4511V66.4511Z" fill="#E2823F"/>
<path fill-rule="evenodd" clip-rule="evenodd" d="M3122 66.4511C3334.21 31.6973 3369.82 35.9356 3478.15 51.1933C3514.27 56.2812 3543.63 63.5056 3571.84 70.4462C3628.22 84.3195 3679.99 97.0593 3771.97 89.3377C3824.77 84.9057 3871.06 73.5259 3918.63 61.8276C3995.42 42.9485 4075.57 23.2401 4191.93 30.5671C4380.4 42.4343 4561.44 50.9108 4741 39.0436V55.0436C4561.44 66.9108 4380.4 58.4343 4191.93 46.5671C4075.57 39.2401 3995.42 58.9485 3918.63 77.8276C3871.06 89.5259 3824.77 100.906 3771.97 105.338C3679.99 113.059 3628.22 100.32 3571.84 86.4462C3543.63 79.5056 3514.27 72.2812 3478.15 67.1933C3369.82 51.9356 3334.21 47.6973 3122 82.4511V66.4511Z" fill="#E2823F"/>
<path fill-rule="evenodd" clip-rule="evenodd" d="M0 82.4511C197.002 47.6973 230.065 51.9356 330.632 67.1933C364.168 72.2812 391.423 79.5056 417.607 86.4462C469.945 100.32 518.007 113.059 603.404 105.338C652.42 100.906 695.387 89.5259 739.556 77.8276C810.838 58.9485 885.251 39.2401 993.275 46.5671C1168.23 58.4343 1336.31 66.9108 1503 55.0436V71.0436C1336.31 82.9108 1168.23 74.4343 993.275 62.5671C885.251 55.2401 810.838 74.9485 739.556 93.8276C695.387 105.526 652.42 116.906 603.404 121.338C518.007 129.059 469.945 116.32 417.607 102.446C391.423 95.5056 364.168 88.2812 330.632 83.1933C230.065 67.9356 197.002 63.6973 0 98.4511V82.4511Z" fill="#DC5B3B"/>
<path fill-rule="evenodd" clip-rule="evenodd" d="M3122 82.4511C2909.79 47.6973 2874.18 51.9356 2765.85 67.1933C2729.73 72.2812 2700.37 79.5056 2672.16 86.4462C2615.78 100.32 2564.01 113.059 2472.03 105.338C2419.23 100.906 2372.94 89.5259 2325.37 77.8276C2248.58 58.9485 2168.43 39.2401 2052.07 46.5671C1863.6 58.4343 1682.56 66.9108 1503 55.0436V71.0436C1682.56 82.9108 1863.6 74.4343 2052.07 62.5671C2168.43 55.2401 2248.58 74.9485 2325.37 93.8276C2372.94 105.526 2419.23 116.906 2472.03 121.338C2564.01 129.059 2615.78 116.32 2672.16 102.446C2700.37 95.5056 2729.73 88.2812 2765.85 83.1933C2874.18 67.9356 2909.79 63.6973 3122 98.4511V82.4511Z" fill="#DC5B3B"/>
<path fill-rule="evenodd" clip-rule="evenodd" d="M3122 82.4511C3334.21 47.6973 3369.82 51.9356 3478.15 67.1933C3514.27 72.2812 3543.63 79.5056 3571.84 86.4462C3628.22 100.32 3679.99 113.059 3771.97 105.338C3824.77 100.906 3871.06 89.5259 3918.63 77.8276C3995.42 58.9485 4075.57 39.2401 4191.93 46.5671C4380.4 58.4343 4561.44 66.9108 4741 55.0436V71.0436C4561.44 82.9108 4380.4 74.4343 4191.93 62.5671C4075.57 55.2401 3995.42 74.9485 3918.63 93.8276C3871.06 105.526 3824.77 116.906 3771.97 121.338C3679.99 129.059 3628.22 116.32 3571.84 102.446C3543.63 95.5056 3514.27 88.2812 3478.15 83.1933C3369.82 67.9356 3334.21 63.6973 3122 98.4511V82.4511Z" fill="#DC5B3B"/>
<path fill-rule="evenodd" clip-rule="evenodd" d="M0 98.4511C197.002 63.6973 230.065 67.9356 330.632 83.1933C364.168 88.2812 391.423 95.5056 417.607 102.446C469.945 116.32 518.007 129.059 603.404 121.338C652.42 116.906 695.387 105.526 739.556 93.8276C810.838 74.9485 885.251 55.2401 993.275 62.5671C1168.23 74.4343 1336.31 82.9108 1503 71.0436V87.0436C1336.31 98.9108 1168.23 90.4343 993.275 78.5671C885.251 71.2401 810.838 90.9485 739.556 109.828C695.387 121.526 652.42 132.906 603.404 137.338C518.007 145.059 469.945 132.32 417.607 118.446C391.423 111.506 364.168 104.281 330.632 99.1933C230.065 83.9356 197.002 79.6973 0 114.451V98.4511Z" fill="#943728"/>
<path fill-rule="evenodd" clip-rule="evenodd" d="M3122 98.4511C2909.79 63.6973 2874.18 67.9356 2765.85 83.1933C2729.73 88.2812 2700.37 95.5056 2672.16 102.446C2615.78 116.32 2564.01 129.059 2472.03 121.338C2419.23 116.906 2372.94 105.526 2325.37 93.8276C2248.58 74.9485 2168.43 55.2401 2052.07 62.5671C1863.6 74.4343 1682.56 82.9108 1503 71.0436V87.0436C1682.56 98.9108 1863.6 90.4343 2052.07 78.5671C2168.43 71.2401 2248.58 90.9485 2325.37 109.828C2372.94 121.526 2419.23 132.906 2472.03 137.338C2564.01 145.059 2615.78 132.32 2672.16 118.446C2700.37 111.506 2729.73 104.281 2765.85 99.1933C2874.18 83.9356 2909.79 79.6973 3122 114.451V98.4511Z" fill="#943728"/>
<path fill-rule="evenodd" clip-rule="evenodd" d="M3122 98.4511C3334.21 63.6973 3369.82 67.9356 3478.15 83.1933C3514.27 88.2812 3543.63 95.5056 3571.84 102.446C3628.22 116.32 3679.99 129.059 3771.97 121.338C3824.77 116.906 3871.06 105.526 3918.63 93.8276C3995.42 74.9485 4075.57 55.2401 4191.93 62.5671C4380.4 74.4343 4561.44 82.9108 4741 71.0436V87.0436C4561.44 98.9108 4380.4 90.4343 4191.93 78.5671C4075.57 71.2401 3995.42 90.9485 3918.63 109.828C3871.06 121.526 3824.77 132.906 3771.97 137.338C3679.99 145.059 3628.22 132.32 3571.84 118.446C3543.63 111.506 3514.27 104.281 3478.15 99.1933C3369.82 83.9356 3334.21 79.6973 3122 114.451V98.4511Z" fill="#943728"/>
<path fill-rule="evenodd" clip-rule="evenodd" d="M0 37.4511C197.002 2.69732 230.065 6.93559 330.632 22.1933C364.168 27.2812 391.423 34.5056 417.607 41.4462C469.945 55.3195 518.007 68.0593 603.404 60.3377C652.42 55.9057 695.387 44.5259 739.556 32.8276C810.838 13.9485 885.251 -5.75991 993.275 1.56712C1168.23 13.4343 1336.31 21.9108 1503 10.0436V26.0436C1336.31 37.9108 1168.23 29.4343 993.275 17.5671C885.251 10.2401 810.838 29.9485 739.556 48.8276C695.387 60.5259 652.42 71.9057 603.404 76.3377C518.007 84.0593 469.945 71.3195 417.607 57.4462C391.423 50.5056 364.168 43.2812 330.632 38.1933C230.065 22.9356 197.002 18.6973 0 53.4511V37.4511Z" fill="#F2D060"/>
<path fill-rule="evenodd" clip-rule="evenodd" d="M3122 37.4511C2909.79 2.69732 2874.18 6.93559 2765.85 22.1933C2729.73 27.2812 2700.37 34.5056 2672.16 41.4462C2615.78 55.3195 2564.01 68.0593 2472.03 60.3377C2419.23 55.9057 2372.94 44.5259 2325.37 32.8276C2248.58 13.9485 2168.43 -5.75991 2052.07 1.56712C1863.6 13.4343 1682.56 21.9108 1503 10.0436V26.0436C1682.56 37.9108 1863.6 29.4343 2052.07 17.5671C2168.43 10.2401 2248.58 29.9485 2325.37 48.8276C2372.94 60.5259 2419.23 71.9057 2472.03 76.3377C2564.01 84.0593 2615.78 71.3195 2672.16 57.4462C2700.37 50.5056 2729.73 43.2812 2765.85 38.1933C2874.18 22.9356 2909.79 18.6973 3122 53.4511V37.4511Z" fill="#F2D060"/>
<path fill-rule="evenodd" clip-rule="evenodd" d="M3122 37.4511C3334.21 2.69732 3369.82 6.93559 3478.15 22.1933C3514.27 27.2812 3543.63 34.5056 3571.84 41.4462C3628.22 55.3195 3679.99 68.0593 3771.97 60.3377C3824.77 55.9057 3871.06 44.5259 3918.63 32.8276C3995.42 13.9485 4075.57 -5.75991 4191.93 1.56712C4380.4 13.4343 4561.44 21.9108 4741 10.0436V26.0436C4561.44 37.9108 4380.4 29.4343 4191.93 17.5671C4075.57 10.2401 3995.42 29.9485 3918.63 48.8276C3871.06 60.5259 3824.77 71.9057 3771.97 76.3377C3679.99 84.0593 3628.22 71.3195 3571.84 57.4462C3543.63 50.5056 3514.27 43.2812 3478.15 38.1933C3369.82 22.9356 3334.21 18.6973 3122 53.4511V37.4511Z" fill="#F2D060"/>
</svg>
