<svg width="4741" height="140" viewBox="0 0 4741 140" fill="none" xmlns="http://www.w3.org/2000/svg">
<path fill-rule="evenodd" clip-rule="evenodd" d="M4741 87.8977C4544 122.651 4510.93 118.413 4410.37 103.155C4376.83 98.0675 4349.58 90.8432 4323.39 83.9025C4271.05 70.0292 4222.99 57.2895 4137.6 65.011C4088.58 69.443 4045.61 80.8229 4001.44 92.5211C3930.16 111.4 3855.75 131.109 3747.72 123.782C3572.77 111.914 3404.69 103.438 3238 115.305L3238 99.305C3404.69 87.4379 3572.77 95.9144 3747.72 107.782C3855.75 115.109 3930.16 95.4002 4001.44 76.5211C4045.61 64.8229 4088.58 53.443 4137.6 49.011C4222.99 41.2895 4271.05 54.0292 4323.39 67.9025C4349.58 74.8432 4376.83 82.0675 4410.37 87.1554C4510.93 102.413 4544 106.651 4741 71.8977L4741 87.8977Z" fill="#B0B34F"/>
<path fill-rule="evenodd" clip-rule="evenodd" d="M1619 87.8974C1831.21 122.651 1866.82 118.413 1975.15 103.155C2011.27 98.0673 2040.63 90.8429 2068.84 83.9023C2125.22 70.029 2176.99 57.2893 2268.97 65.0108C2321.77 69.4428 2368.06 80.8227 2415.63 92.5209C2492.42 111.4 2572.57 131.108 2688.93 123.781C2877.4 111.914 3058.44 103.438 3238 115.305L3238 99.305C3058.44 87.4378 2877.4 95.9143 2688.93 107.781C2572.57 115.108 2492.42 95.4 2415.63 76.5209C2368.06 64.8227 2321.77 53.4428 2268.97 49.0108C2176.99 41.2893 2125.22 54.029 2068.84 67.9023C2040.63 74.8429 2011.27 82.0673 1975.15 87.1552C1866.82 102.413 1831.21 106.651 1619 71.8974L1619 87.8974Z" fill="#B0B34F"/>
<path fill-rule="evenodd" clip-rule="evenodd" d="M1619 87.8974C1406.79 122.651 1371.18 118.413 1262.85 103.155C1226.73 98.0672 1197.37 90.8429 1169.16 83.9022C1112.78 70.0289 1061.01 57.2892 969.026 65.0107C916.227 69.4427 869.944 80.8225 822.366 92.5208C745.582 111.4 665.426 131.108 549.065 123.781C360.602 111.914 179.559 103.438 8.78043e-07 115.305L2.27681e-06 99.3047C179.559 87.4376 360.602 95.9141 549.065 107.781C665.426 115.108 745.582 95.3999 822.366 76.5208C869.944 64.8225 916.227 53.4427 969.026 49.0107C1061.01 41.2892 1112.78 54.0289 1169.16 67.9022C1197.37 74.8429 1226.73 82.0672 1262.85 87.1551C1371.18 102.413 1406.79 106.651 1619 71.8974L1619 87.8974Z" fill="#B0B34F"/>
<path fill-rule="evenodd" clip-rule="evenodd" d="M4741 73.2234C4544 107.977 4510.93 103.739 4410.37 88.4811C4376.83 83.3932 4349.58 76.1688 4323.39 69.2282C4271.05 55.3549 4222.99 42.6152 4137.6 50.3367C4088.58 54.7687 4045.61 66.1485 4001.44 77.8468C3930.16 96.7259 3855.75 116.434 3747.72 109.107C3572.77 97.2401 3404.69 88.7636 3238 100.631L3238 84.6307C3404.69 72.7636 3572.77 81.2401 3747.72 93.1073C3855.75 100.434 3930.16 80.7259 4001.44 61.8468C4045.61 50.1485 4088.58 38.7687 4137.6 34.3367C4222.99 26.6152 4271.05 39.3549 4323.39 53.2282C4349.58 60.1688 4376.83 67.3932 4410.37 72.4811C4510.93 87.7389 4544 91.9771 4741 57.2234L4741 73.2234Z" fill="#2B367A"/>
<path fill-rule="evenodd" clip-rule="evenodd" d="M1619 73.2231C1831.21 107.977 1866.82 103.739 1975.15 88.4809C2011.27 83.393 2040.63 76.1686 2068.84 69.228C2125.22 55.3547 2176.99 42.615 2268.97 50.3365C2321.77 54.7686 2368.06 66.1484 2415.63 77.8466C2492.42 96.7258 2572.57 116.434 2688.93 109.107C2877.4 97.24 3058.44 88.7635 3238 100.631L3238 84.6307C3058.44 72.7635 2877.4 81.24 2688.93 93.1072C2572.57 100.434 2492.42 80.7258 2415.63 61.8466C2368.06 50.1484 2321.77 38.7686 2268.97 34.3365C2176.99 26.615 2125.22 39.3547 2068.84 53.228C2040.63 60.1686 2011.27 67.393 1975.15 72.4809C1866.82 87.7386 1831.21 91.9769 1619 57.2231L1619 73.2231Z" fill="#2B367A"/>
<path fill-rule="evenodd" clip-rule="evenodd" d="M1619 73.2231C1406.79 107.977 1371.18 103.739 1262.85 88.4808C1226.73 83.3929 1197.37 76.1686 1169.16 69.2279C1112.78 55.3546 1061.01 42.6149 969.026 50.3364C916.227 54.7684 869.944 66.1483 822.366 77.8465C745.582 96.7256 665.426 116.434 549.065 109.107C360.602 97.2398 179.559 88.7633 8.78043e-07 100.63L2.27681e-06 84.6304C179.559 72.7633 360.602 81.2398 549.065 93.107C665.426 100.434 745.582 80.7256 822.366 61.8465C869.944 50.1483 916.227 38.7684 969.026 34.3364C1061.01 26.6149 1112.78 39.3546 1169.16 53.2279C1197.37 60.1686 1226.73 67.3929 1262.85 72.4808C1371.18 87.7386 1406.79 91.9769 1619 57.2231L1619 73.2231Z" fill="#2B367A"/>
<path fill-rule="evenodd" clip-rule="evenodd" d="M4741 57.2234C4544 91.9771 4510.93 87.7389 4410.37 72.4811C4376.83 67.3932 4349.58 60.1688 4323.39 53.2282C4271.05 39.3549 4222.99 26.6152 4137.6 34.3367C4088.58 38.7687 4045.61 50.1485 4001.44 61.8468C3930.16 80.7259 3855.75 100.434 3747.72 93.1073C3572.77 81.2401 3404.69 72.7636 3238 84.6307L3238 68.6307C3404.69 56.7636 3572.77 65.2401 3747.72 77.1073C3855.75 84.4343 3930.16 64.7259 4001.44 45.8468C4045.61 34.1485 4088.58 22.7687 4137.6 18.3367C4222.99 10.6152 4271.05 23.3549 4323.39 37.2282C4349.58 44.1688 4376.83 51.3932 4410.37 56.4811C4510.93 71.7389 4544 75.9771 4741 41.2234L4741 57.2234Z" fill="#425FA8"/>
<path fill-rule="evenodd" clip-rule="evenodd" d="M1619 57.2231C1831.21 91.9769 1866.82 87.7386 1975.15 72.4809C2011.27 67.393 2040.63 60.1686 2068.84 53.228C2125.22 39.3547 2176.99 26.615 2268.97 34.3365C2321.77 38.7686 2368.06 50.1484 2415.63 61.8466C2492.42 80.7258 2572.57 100.434 2688.93 93.1072C2877.4 81.24 3058.44 72.7635 3238 84.6307L3238 68.6307C3058.44 56.7635 2877.4 65.24 2688.93 77.1072C2572.57 84.4342 2492.42 64.7258 2415.63 45.8466C2368.06 34.1484 2321.77 22.7686 2268.97 18.3365C2176.99 10.615 2125.22 23.3547 2068.84 37.228C2040.63 44.1686 2011.27 51.393 1975.15 56.4809C1866.82 71.7386 1831.21 75.9769 1619 41.2231L1619 57.2231Z" fill="#425FA8"/>
<path fill-rule="evenodd" clip-rule="evenodd" d="M1619 57.2231C1406.79 91.9769 1371.18 87.7386 1262.85 72.4808C1226.73 67.3929 1197.37 60.1686 1169.16 53.2279C1112.78 39.3546 1061.01 26.6149 969.026 34.3364C916.227 38.7684 869.944 50.1483 822.366 61.8465C745.582 80.7256 665.426 100.434 549.065 93.107C360.602 81.2398 179.559 72.7633 8.78043e-07 84.6304L2.27681e-06 68.6304C179.559 56.7633 360.602 65.2398 549.065 77.107C665.426 84.434 745.582 64.7256 822.366 45.8465C869.944 34.1483 916.227 22.7684 969.026 18.3364C1061.01 10.6149 1112.78 23.3546 1169.16 37.2279C1197.37 44.1686 1226.73 51.3929 1262.85 56.4808C1371.18 71.7386 1406.79 75.9769 1619 41.2231L1619 57.2231Z" fill="#425FA8"/>
<path fill-rule="evenodd" clip-rule="evenodd" d="M4741 41.2234C4544 75.9771 4510.93 71.7389 4410.37 56.4811C4376.83 51.3932 4349.58 44.1688 4323.39 37.2282C4271.05 23.3549 4222.99 10.6152 4137.6 18.3367C4088.58 22.7687 4045.61 34.1485 4001.44 45.8468C3930.16 64.7259 3855.75 84.4343 3747.72 77.1073C3572.77 65.2401 3404.69 56.7636 3238 68.6307L3238 52.6307C3404.69 40.7636 3572.77 49.2401 3747.72 61.1073C3855.75 68.4343 3930.16 48.7259 4001.44 29.8468C4045.61 18.1485 4088.58 6.76872 4137.6 2.3367C4222.99 -5.38485 4271.05 7.35492 4323.39 21.2282C4349.58 28.1688 4376.83 35.3932 4410.37 40.4811C4510.93 55.7389 4544 59.9771 4741 25.2234L4741 41.2234Z" fill="#4F85AB"/>
<path fill-rule="evenodd" clip-rule="evenodd" d="M1619 41.2231C1831.21 75.9769 1866.82 71.7386 1975.15 56.4809C2011.27 51.393 2040.63 44.1686 2068.84 37.228C2125.22 23.3547 2176.99 10.615 2268.97 18.3365C2321.77 22.7686 2368.06 34.1484 2415.63 45.8466C2492.42 64.7258 2572.57 84.4342 2688.93 77.1072C2877.4 65.24 3058.44 56.7635 3238 68.6307L3238 52.6307C3058.44 40.7635 2877.4 49.24 2688.93 61.1072C2572.57 68.4342 2492.42 48.7258 2415.63 29.8466C2368.06 18.1484 2321.77 6.76856 2268.97 2.33654C2176.99 -5.38503 2125.22 7.35473 2068.84 21.228C2040.63 28.1686 2011.27 35.393 1975.15 40.4809C1866.82 55.7386 1831.21 59.9769 1619 25.2231L1619 41.2231Z" fill="#4F85AB"/>
<path fill-rule="evenodd" clip-rule="evenodd" d="M1619 41.2231C1406.79 75.9769 1371.18 71.7386 1262.85 56.4808C1226.73 51.3929 1197.37 44.1686 1169.16 37.2279C1112.78 23.3546 1061.01 10.6149 969.026 18.3364C916.227 22.7684 869.944 34.1483 822.366 45.8465C745.582 64.7256 665.426 84.434 549.065 77.107C360.602 65.2398 179.559 56.7633 8.78043e-07 68.6304L2.27681e-06 52.6304C179.559 40.7633 360.602 49.2398 549.065 61.107C665.426 68.434 745.582 48.7256 822.366 29.8465C869.944 18.1483 916.227 6.76844 969.026 2.33642C1061.01 -5.38513 1112.78 7.35464 1169.16 21.2279C1197.37 28.1686 1226.73 35.3929 1262.85 40.4808C1371.18 55.7386 1406.79 59.9769 1619 25.2231L1619 41.2231Z" fill="#4F85AB"/>
<path fill-rule="evenodd" clip-rule="evenodd" d="M4741 102.223C4544 136.977 4510.93 132.739 4410.37 117.481C4376.83 112.393 4349.58 105.169 4323.39 98.2282C4271.05 84.3549 4222.99 71.6152 4137.6 79.3367C4088.58 83.7687 4045.61 95.1485 4001.44 106.847C3930.16 125.726 3855.75 145.434 3747.72 138.107C3572.77 126.24 3404.69 117.764 3238 129.631L3238 113.631C3404.69 101.764 3572.77 110.24 3747.72 122.107C3855.75 129.434 3930.16 109.726 4001.44 90.8468C4045.61 79.1485 4088.58 67.7687 4137.6 63.3367C4222.99 55.6152 4271.05 68.3549 4323.39 82.2282C4349.58 89.1688 4376.83 96.3932 4410.37 101.481C4510.93 116.739 4544 120.977 4741 86.2234L4741 102.223Z" fill="#4C734E"/>
<path fill-rule="evenodd" clip-rule="evenodd" d="M1619 102.223C1831.21 136.977 1866.82 132.739 1975.15 117.481C2011.27 112.393 2040.63 105.169 2068.84 98.228C2125.22 84.3547 2176.99 71.615 2268.97 79.3365C2321.77 83.7686 2368.06 95.1484 2415.63 106.847C2492.42 125.726 2572.57 145.434 2688.93 138.107C2877.4 126.24 3058.44 117.764 3238 129.631L3238 113.631C3058.44 101.764 2877.4 110.24 2688.93 122.107C2572.57 129.434 2492.42 109.726 2415.63 90.8466C2368.06 79.1484 2321.77 67.7686 2268.97 63.3365C2176.99 55.615 2125.22 68.3547 2068.84 82.228C2040.63 89.1686 2011.27 96.393 1975.15 101.481C1866.82 116.739 1831.21 120.977 1619 86.2231L1619 102.223Z" fill="#4C734E"/>
<path fill-rule="evenodd" clip-rule="evenodd" d="M1619 102.223C1406.79 136.977 1371.18 132.739 1262.85 117.481C1226.73 112.393 1197.37 105.169 1169.16 98.2279C1112.78 84.3546 1061.01 71.6149 969.026 79.3364C916.227 83.7684 869.944 95.1483 822.366 106.847C745.582 125.726 665.426 145.434 549.065 138.107C360.602 126.24 179.559 117.763 8.78043e-07 129.63L2.27681e-06 113.63C179.559 101.763 360.602 110.24 549.065 122.107C665.426 129.434 745.582 109.726 822.366 90.8465C869.944 79.1483 916.227 67.7684 969.026 63.3364C1061.01 55.6149 1112.78 68.3546 1169.16 82.2279C1197.37 89.1686 1226.73 96.3929 1262.85 101.481C1371.18 116.739 1406.79 120.977 1619 86.2231L1619 102.223Z" fill="#4C734E"/>
</svg>
