<svg width="183" height="133" viewBox="0 0 183 133" fill="none" xmlns="http://www.w3.org/2000/svg">
<path d="M41.3543 66.9049L40.9012 66.6729L40.8771 66.6606L40.8532 66.6479C26.9368 59.2499 21.6802 41.7493 28.7202 27.6024C28.7207 27.6014 28.7212 27.6004 28.7217 27.5995L30.1122 24.7935L30.1149 24.788C37.1794 10.5958 54.5785 4.58207 68.5713 12.0072L145.123 51.565C159.124 58.6619 164.724 76.264 157.368 90.3963L156.004 93.148C149.198 107.475 131.77 113.449 117.802 106.042L116.212 105.228C115.423 105.67 114.577 106.093 113.688 106.495C110.079 108.128 105.496 109.531 100.486 110.416C90.5512 112.17 78.2754 111.996 68.2273 106.808C58.1916 101.627 50.8162 91.6997 46.3807 82.565C44.1438 77.9583 42.5767 73.3971 41.7816 69.4996C41.6007 68.6128 41.4565 67.7445 41.3543 66.9049ZM41.3543 66.9049L45.2291 68.8886C47.4422 79.5943 56.2114 96.6663 69.8329 103.698C83.544 110.777 102.471 107.77 112.359 103.255L41.3543 66.9049ZM41.231 62.8368C30.0001 55.9965 25.845 41.2328 31.8549 29.1591L33.2482 26.3476C39.4788 13.8307 54.7697 8.63402 66.947 15.1075L41.231 62.8368Z" fill="#A13122" stroke="white" stroke-width="7" stroke-miterlimit="10"/>
<path d="M119.421 102.938L42.4962 63.5575C30.3189 57.084 25.6244 41.676 31.855 29.1591L33.2483 26.3476C39.4789 13.8307 54.7698 8.63402 66.9471 15.1075L143.528 54.6809C155.784 60.8848 160.743 76.3698 154.248 88.8097L152.855 91.6211C146.889 104.215 131.598 109.412 119.421 102.938Z" fill="#F4F3E0" stroke="#211E1F" stroke-width="5" stroke-miterlimit="10"/>
<path d="M63.7149 12.4107L42.6005 53.3505" stroke="#211E1F" stroke-width="3" stroke-miterlimit="10"/>
<path d="M84.68 23.2L59.336 73.7297" stroke="#211E1F" stroke-width="3" stroke-miterlimit="10"/>
<path d="M105.91 34.0664L80.3011 84.519" stroke="#211E1F" stroke-width="3" stroke-miterlimit="10"/>
<path d="M126.875 44.8555L101.531 95.3852" stroke="#211E1F" stroke-width="3" stroke-miterlimit="10"/>
<path d="M148.026 55.9914L127.833 95.7373" stroke="#211E1F" stroke-width="3" stroke-miterlimit="10"/>
<path fill-rule="evenodd" clip-rule="evenodd" d="M42.4961 63.5575L119.42 102.938C131.598 109.412 146.889 104.215 152.855 91.6211L152.865 91.6L31.8014 29.2671C25.6514 41.7645 30.3539 57.1026 42.4961 63.5575Z" fill="#211E1F"/>
<path d="M83.3925 80.3067C86.6819 73.8071 80.7873 64.1302 70.2267 58.6927C59.666 53.2553 48.4383 54.1163 45.1489 60.6159C41.8595 67.1155 47.754 76.7924 58.3147 82.2299C68.8754 87.6673 80.1031 86.8063 83.3925 80.3067Z" fill="#A13122" stroke="#A13122" stroke-width="1.5763" stroke-miterlimit="10"/>
<path d="M118.622 98.5049C121.911 92.0053 116.017 82.3284 105.456 76.891C94.8952 71.4535 83.6674 72.3146 80.378 78.8142C77.0886 85.3138 82.9832 94.9907 93.5439 100.428C104.105 105.866 115.332 105.005 118.622 98.5049Z" fill="#A13122" stroke="#A13122" stroke-width="1.5763" stroke-miterlimit="10"/>
<path d="M118.669 98.6242C122.034 91.9998 116.219 82.4078 105.472 76.9361C97.4775 72.8515 89.2557 72.5032 84.1875 75.1213C83.5639 69.3821 78.2857 62.8715 70.2915 58.787C59.809 53.3924 48.6563 54.2374 45.2909 60.8618C42.0826 66.9469 51.6207 94.2963 69.8329 103.698C88.0451 113.1 115.46 104.709 118.669 98.6242Z" fill="#A13122" stroke="#A13122" stroke-width="1.5763" stroke-miterlimit="10"/>
</svg>
