<?xml version="1.0" encoding="utf-8"?>
<!-- Svg Vector Icons : http://www.onlinewebfonts.com/icon -->
<!DOCTYPE svg PUBLIC "-//W3C//DTD SVG 1.1//EN" "http://www.w3.org/Graphics/SVG/1.1/DTD/svg11.dtd">
<svg version="1.1" xmlns="http://www.w3.org/2000/svg" xmlns:xlink="http://www.w3.org/1999/xlink" x="0px" y="0px" viewBox="0 0 256 256" enable-background="new 0 0 256 256" xml:space="preserve">
<metadata> Svg Vector Icons : http://www.onlinewebfonts.com/icon </metadata>
<g><g><g><g><path fill="#000000" d="M159.3,203.1c0,0,21.5,0,21.5-21.5V74.4c0-21.5-21.5-21.5-21.5-21.5H31.5c0,0-21.5,0-21.5,21.5v107.3c0,21.5,21.5,21.5,21.5,21.5L159.3,203.1L159.3,203.1z M20.7,181.4V74.6c0-10.9,10.8-10.9,10.8-10.9h128.8c0,0,10.8,0,10.8,10.9v106.9c0,10.9-10.8,10.9-10.8,10.9H31.6C31.6,192.4,20.7,192.4,20.7,181.4z"/><path fill="#000000" d="M193.2 148.4L193.2 161.6 246 203.1 246 52.9 193.2 94.8 193.2 108.2 235.3 76.7 235.3 179.9 z"/></g></g><g></g><g></g><g></g><g></g><g></g><g></g><g></g><g></g><g></g><g></g><g></g><g></g><g></g><g></g><g></g></g></g>
</svg>